G04*
G04 #@! TF.GenerationSoftware,Altium Limited,Altium Designer,20.2.6 (244)*
G04*
G04 Layer_Color=32896*
%FSLAX25Y25*%
%MOIN*%
G70*
G04*
G04 #@! TF.SameCoordinates,35E5D78F-83E5-4AAB-BCDB-BF6E4E5D2065*
G04*
G04*
G04 #@! TF.FilePolarity,Positive*
G04*
G01*
G75*
%ADD76C,0.00442*%
%ADD77C,0.00408*%
%ADD78C,0.00595*%
G36*
X55876Y46303D02*
Y46210D01*
Y46117D01*
Y46023D01*
Y45930D01*
Y45837D01*
Y45744D01*
Y45651D01*
Y45558D01*
Y45465D01*
Y45372D01*
Y45279D01*
Y45186D01*
Y45093D01*
Y45000D01*
Y44907D01*
Y44814D01*
X55317D01*
Y44907D01*
X54759D01*
Y45000D01*
X54573D01*
Y45093D01*
Y45186D01*
Y45279D01*
Y45372D01*
Y45465D01*
Y45558D01*
Y45651D01*
Y45744D01*
Y45837D01*
Y45930D01*
Y46023D01*
Y46117D01*
Y46210D01*
Y46303D01*
Y46396D01*
X55876D01*
Y46303D01*
D02*
G37*
G36*
X22287Y63051D02*
X23683D01*
Y62958D01*
X24334D01*
Y62864D01*
X25357D01*
Y62771D01*
X25450D01*
Y62678D01*
X25823D01*
Y62585D01*
X26195D01*
Y62492D01*
X26846D01*
Y62399D01*
X27125D01*
Y62306D01*
X27404D01*
Y62213D01*
X27683D01*
Y62120D01*
X27963D01*
Y62027D01*
X28242D01*
Y61934D01*
X28521D01*
Y61841D01*
X28707D01*
Y61748D01*
X29172D01*
Y61655D01*
Y61562D01*
X29265D01*
Y61469D01*
Y61376D01*
X29544D01*
Y61283D01*
X29637D01*
Y61190D01*
Y61097D01*
X29730D01*
Y61004D01*
X29823D01*
Y60910D01*
Y60817D01*
X29917D01*
Y60724D01*
X30009D01*
Y60631D01*
X30196D01*
Y60538D01*
Y60445D01*
Y60352D01*
X30289D01*
Y60259D01*
X30382D01*
Y60166D01*
Y60073D01*
X30475D01*
Y59980D01*
X30568D01*
Y59887D01*
X30847D01*
Y59980D01*
Y60073D01*
X30754D01*
Y60166D01*
Y60259D01*
X30661D01*
Y60352D01*
X30568D01*
Y60445D01*
Y60538D01*
X30475D01*
Y60631D01*
Y60724D01*
X30382D01*
Y60817D01*
Y60910D01*
X30289D01*
Y61004D01*
X30196D01*
Y61097D01*
X30103D01*
Y61190D01*
X30382D01*
Y61097D01*
X30475D01*
Y61004D01*
X30754D01*
Y60910D01*
X30847D01*
Y60817D01*
X31033D01*
Y60724D01*
X31219D01*
Y60631D01*
X31405D01*
Y60538D01*
Y60445D01*
X31498D01*
Y60352D01*
Y60259D01*
X31591D01*
Y60166D01*
X31684D01*
Y60073D01*
X31777D01*
Y59980D01*
Y59887D01*
X31870D01*
Y59794D01*
X31963D01*
Y59701D01*
Y59608D01*
X32056D01*
Y59515D01*
X32149D01*
Y59422D01*
Y59329D01*
X32243D01*
Y59236D01*
Y59143D01*
X32429D01*
Y59050D01*
Y58957D01*
X32522D01*
Y58864D01*
Y58771D01*
X32615D01*
Y58677D01*
Y58584D01*
Y58491D01*
Y58398D01*
X32708D01*
Y58305D01*
Y58212D01*
X32801D01*
Y58119D01*
Y58026D01*
X32894D01*
Y57933D01*
Y57840D01*
X32987D01*
Y57747D01*
Y57654D01*
X33080D01*
Y57561D01*
Y57468D01*
Y57375D01*
X33173D01*
Y57282D01*
Y57189D01*
Y57096D01*
X33359D01*
Y57189D01*
Y57282D01*
Y57375D01*
Y57468D01*
Y57561D01*
Y57654D01*
Y57747D01*
Y57840D01*
Y57933D01*
Y58026D01*
X33266D01*
Y58119D01*
Y58212D01*
Y58305D01*
X33080D01*
Y58398D01*
X33173D01*
Y58491D01*
Y58584D01*
X32987D01*
Y58677D01*
X33080D01*
Y58771D01*
Y58864D01*
X32987D01*
Y58957D01*
Y59050D01*
Y59143D01*
X32894D01*
Y59236D01*
X32801D01*
Y59329D01*
Y59422D01*
Y59515D01*
X32708D01*
Y59608D01*
Y59701D01*
X32615D01*
Y59794D01*
Y59887D01*
X32708D01*
Y59794D01*
X32894D01*
Y59701D01*
X32987D01*
Y59608D01*
X33080D01*
Y59515D01*
X33359D01*
Y59422D01*
Y59329D01*
X33545D01*
Y59236D01*
X33638D01*
Y59143D01*
X33824D01*
Y59050D01*
X33917D01*
Y58957D01*
X34103D01*
Y58864D01*
X34196D01*
Y58771D01*
X34290D01*
Y58677D01*
X34476D01*
Y58584D01*
X34569D01*
Y58491D01*
X34662D01*
Y58398D01*
X34848D01*
Y58305D01*
X34941D01*
Y58212D01*
X35034D01*
Y58119D01*
X35127D01*
Y58026D01*
X35313D01*
Y57933D01*
X35406D01*
Y57840D01*
X35499D01*
Y57747D01*
X35592D01*
Y57654D01*
X35685D01*
Y57561D01*
X35871D01*
Y57468D01*
Y57375D01*
X35964D01*
Y57282D01*
X36150D01*
Y57189D01*
X36244D01*
Y57096D01*
X36336D01*
Y57003D01*
Y56910D01*
X36523D01*
Y56817D01*
X36616D01*
Y56723D01*
X36709D01*
Y56630D01*
X36616D01*
Y56537D01*
X36802D01*
Y56444D01*
X36895D01*
Y56351D01*
Y56258D01*
X36988D01*
Y56165D01*
Y56072D01*
Y55979D01*
X37174D01*
Y55886D01*
Y55793D01*
X37267D01*
Y55700D01*
Y55607D01*
X37360D01*
Y55514D01*
X37453D01*
Y55421D01*
Y55328D01*
X37546D01*
Y55235D01*
Y55142D01*
X37639D01*
Y55049D01*
X37732D01*
Y54956D01*
Y54863D01*
Y54770D01*
X37825D01*
Y54677D01*
X37918D01*
Y54584D01*
X38011D01*
Y54491D01*
Y54397D01*
X38197D01*
Y54491D01*
Y54584D01*
Y54677D01*
Y54770D01*
X38104D01*
Y54863D01*
X38011D01*
Y54956D01*
Y55049D01*
Y55142D01*
X37918D01*
Y55235D01*
Y55328D01*
X37825D01*
Y55421D01*
X38011D01*
Y55328D01*
X38104D01*
Y55235D01*
Y55142D01*
X38197D01*
Y55049D01*
X38383D01*
Y54956D01*
Y54863D01*
Y54770D01*
X38476D01*
Y54677D01*
X38663D01*
Y54584D01*
X38756D01*
Y54491D01*
X38849D01*
Y54397D01*
X38942D01*
Y54304D01*
X39035D01*
Y54211D01*
X39128D01*
Y54118D01*
X39221D01*
Y54025D01*
Y53932D01*
Y53839D01*
X39314D01*
Y53746D01*
Y53653D01*
Y53560D01*
X39407D01*
Y53467D01*
X39500D01*
Y53374D01*
Y53281D01*
X39593D01*
Y53188D01*
Y53095D01*
X39686D01*
Y53002D01*
Y52909D01*
X39779D01*
Y52816D01*
X39872D01*
Y52723D01*
Y52630D01*
Y52536D01*
X39965D01*
Y52443D01*
Y52350D01*
Y52257D01*
Y52164D01*
X40151D01*
Y52071D01*
X40058D01*
Y51978D01*
X40244D01*
Y51885D01*
X40151D01*
Y51792D01*
X40430D01*
Y51885D01*
Y51978D01*
Y52071D01*
X40337D01*
Y52164D01*
Y52257D01*
Y52350D01*
Y52443D01*
X40244D01*
Y52536D01*
Y52630D01*
X40151D01*
Y52723D01*
Y52816D01*
Y52909D01*
Y53002D01*
X40058D01*
Y53095D01*
Y53188D01*
X40244D01*
Y53095D01*
X40337D01*
Y53002D01*
Y52909D01*
X40523D01*
Y52816D01*
X40617D01*
Y52723D01*
X40710D01*
Y52630D01*
Y52536D01*
X40803D01*
Y52443D01*
X40989D01*
Y52350D01*
X41082D01*
Y52257D01*
X41175D01*
Y52164D01*
X41361D01*
Y52071D01*
X41454D01*
Y51978D01*
Y51885D01*
X41547D01*
Y51792D01*
X41733D01*
Y51699D01*
X41826D01*
Y51606D01*
X41919D01*
Y51513D01*
Y51420D01*
X42105D01*
Y51327D01*
X42291D01*
Y51234D01*
X42384D01*
Y51141D01*
X42477D01*
Y51048D01*
X42570D01*
Y50955D01*
X42663D01*
Y50862D01*
X42757D01*
Y50769D01*
X42850D01*
Y50676D01*
X43129D01*
Y50583D01*
X43222D01*
Y50490D01*
X43315D01*
Y50397D01*
Y50304D01*
Y50210D01*
X43501D01*
Y50117D01*
X43408D01*
Y50024D01*
X43594D01*
Y49931D01*
X43687D01*
Y49838D01*
Y49745D01*
Y49652D01*
X43780D01*
Y49559D01*
X43966D01*
Y49652D01*
Y49745D01*
Y49838D01*
X44059D01*
Y49745D01*
X44152D01*
Y49652D01*
X44338D01*
Y49559D01*
X44431D01*
Y49466D01*
X44710D01*
Y49373D01*
X44804D01*
Y49280D01*
Y49187D01*
Y49094D01*
X44990D01*
Y49001D01*
Y48908D01*
X45083D01*
Y48815D01*
Y48722D01*
X45176D01*
Y48629D01*
Y48536D01*
X45269D01*
Y48443D01*
X45362D01*
Y48350D01*
Y48256D01*
Y48164D01*
Y48070D01*
X45548D01*
Y48164D01*
Y48256D01*
Y48350D01*
Y48443D01*
Y48536D01*
Y48629D01*
X45734D01*
Y48536D01*
X45827D01*
Y48443D01*
X46013D01*
Y48350D01*
X46199D01*
Y48256D01*
X46292D01*
Y48164D01*
Y48070D01*
X46571D01*
Y47977D01*
X46757D01*
Y47884D01*
X46850D01*
Y47791D01*
X47037D01*
Y47698D01*
Y47605D01*
X47223D01*
Y47512D01*
X47316D01*
Y47419D01*
X47502D01*
Y47326D01*
X47688D01*
Y47233D01*
X47781D01*
Y47140D01*
X47967D01*
Y47047D01*
X48060D01*
Y46954D01*
X48246D01*
Y46861D01*
X48432D01*
Y46768D01*
X48618D01*
Y46675D01*
X48711D01*
Y46582D01*
X48897D01*
Y46489D01*
X49084D01*
Y46396D01*
X49177D01*
Y46303D01*
X49270D01*
Y46210D01*
X49642D01*
Y46117D01*
X49735D01*
Y46023D01*
X49921D01*
Y45930D01*
Y45837D01*
X50293D01*
Y45744D01*
X50386D01*
Y45651D01*
X50572D01*
Y45558D01*
X50758D01*
Y45465D01*
X50944D01*
Y45372D01*
X51037D01*
Y45279D01*
X51223D01*
Y45186D01*
X51410D01*
Y45093D01*
X51689D01*
Y45000D01*
X51968D01*
Y44907D01*
X52154D01*
Y44814D01*
X51782D01*
Y44907D01*
X51410D01*
Y45000D01*
X51130D01*
Y45093D01*
X50758D01*
Y45186D01*
X50107D01*
Y45279D01*
X49828D01*
Y45372D01*
X49456D01*
Y45465D01*
X49270D01*
Y45558D01*
X48897D01*
Y45651D01*
X48618D01*
Y45744D01*
X48339D01*
Y45837D01*
X48060D01*
Y45930D01*
X47781D01*
Y46023D01*
X47595D01*
Y46117D01*
X47316D01*
Y46210D01*
X47037D01*
Y46303D01*
X46571D01*
Y46396D01*
X46292D01*
Y46489D01*
X46013D01*
Y46582D01*
X45827D01*
Y46675D01*
X45548D01*
Y46768D01*
X45362D01*
Y46861D01*
X45083D01*
Y46954D01*
X44897D01*
Y47047D01*
X44617D01*
Y47140D01*
X44431D01*
Y47233D01*
X44245D01*
Y47326D01*
X44059D01*
Y47419D01*
X43687D01*
Y47512D01*
X43408D01*
Y47605D01*
X43222D01*
Y47698D01*
X43036D01*
Y47791D01*
X42757D01*
Y47884D01*
X42663D01*
Y47977D01*
X42384D01*
Y48070D01*
X42291D01*
Y48164D01*
X41919D01*
Y48256D01*
X41826D01*
Y48350D01*
X41640D01*
Y48443D01*
X41454D01*
Y48536D01*
X41082D01*
Y48629D01*
X40896D01*
Y48722D01*
X40710D01*
Y48815D01*
X40523D01*
Y48908D01*
X40430D01*
Y49001D01*
X40151D01*
Y49094D01*
X40058D01*
Y49187D01*
X39779D01*
Y49280D01*
X39686D01*
Y49373D01*
X39500D01*
Y49466D01*
X39314D01*
Y49559D01*
X39128D01*
Y49652D01*
X38942D01*
Y49745D01*
X38756D01*
Y49838D01*
X38570D01*
Y49931D01*
X38383D01*
Y50024D01*
X38197D01*
Y50117D01*
X38104D01*
Y50210D01*
X37918D01*
Y50304D01*
X37825D01*
Y50397D01*
X37639D01*
Y50490D01*
X37453D01*
Y50583D01*
X37267D01*
Y50676D01*
X37174D01*
Y50769D01*
X36895D01*
Y50862D01*
X36802D01*
Y50955D01*
X36616D01*
Y51048D01*
X36430D01*
Y51141D01*
X36336D01*
Y51234D01*
X36150D01*
Y51327D01*
X35964D01*
Y51420D01*
X35871D01*
Y51513D01*
X35685D01*
Y51606D01*
X35592D01*
Y51699D01*
X35499D01*
Y51792D01*
X35313D01*
Y51885D01*
X35034D01*
Y51978D01*
X34848D01*
Y52071D01*
Y52164D01*
X34662D01*
Y52257D01*
X34476D01*
Y52350D01*
X34383D01*
Y52443D01*
X34290D01*
Y52536D01*
X34103D01*
Y52630D01*
X34010D01*
Y52723D01*
X33824D01*
Y52816D01*
X33731D01*
Y52909D01*
X33638D01*
Y53002D01*
X33452D01*
Y53095D01*
X33266D01*
Y53188D01*
X33173D01*
Y53281D01*
X32987D01*
Y53374D01*
X32894D01*
Y53467D01*
X32708D01*
Y53560D01*
Y53653D01*
X32522D01*
Y53746D01*
X32336D01*
Y53839D01*
X32243D01*
Y53932D01*
Y54025D01*
X32056D01*
Y54118D01*
X31870D01*
Y54211D01*
X31684D01*
Y54304D01*
X31591D01*
Y54397D01*
Y54491D01*
X31405D01*
Y54584D01*
X31312D01*
Y54677D01*
X31219D01*
Y54770D01*
X31033D01*
Y54863D01*
X30940D01*
Y54956D01*
X30847D01*
Y55049D01*
X30754D01*
Y55142D01*
X30475D01*
Y55235D01*
Y55328D01*
X30382D01*
Y55421D01*
X30196D01*
Y55514D01*
X30103D01*
Y55607D01*
X30009D01*
Y55700D01*
X29917D01*
Y55793D01*
X29823D01*
Y55886D01*
X29637D01*
Y55979D01*
X29544D01*
Y56072D01*
X29451D01*
Y56165D01*
X29358D01*
Y56258D01*
X29265D01*
Y56351D01*
X29079D01*
Y56444D01*
X28986D01*
Y56537D01*
X28893D01*
Y56630D01*
X28800D01*
Y56723D01*
X28707D01*
Y56817D01*
X28614D01*
Y56910D01*
X28521D01*
Y57003D01*
X28428D01*
Y57096D01*
X28335D01*
Y57189D01*
X28242D01*
Y57282D01*
X28149D01*
Y57375D01*
X27963D01*
Y57468D01*
X27869D01*
Y57561D01*
X27777D01*
Y57654D01*
X27683D01*
Y57747D01*
X27590D01*
Y57840D01*
X27497D01*
Y57933D01*
X27404D01*
Y58026D01*
X27311D01*
Y58119D01*
X27218D01*
Y58212D01*
X27125D01*
Y58305D01*
Y58398D01*
X27032D01*
Y58491D01*
Y58584D01*
X27125D01*
Y58677D01*
Y58771D01*
X27032D01*
Y58864D01*
Y58957D01*
Y59050D01*
Y59143D01*
X26939D01*
Y59236D01*
Y59329D01*
X26846D01*
Y59422D01*
X26753D01*
Y59515D01*
X26660D01*
Y59608D01*
X26195D01*
Y59701D01*
X25730D01*
Y59608D01*
X25450D01*
Y59515D01*
X25264D01*
Y59422D01*
X25078D01*
Y59329D01*
Y59236D01*
Y59143D01*
Y59050D01*
X24985D01*
Y58957D01*
Y58864D01*
Y58771D01*
Y58677D01*
Y58584D01*
Y58491D01*
Y58398D01*
Y58305D01*
X25078D01*
Y58212D01*
Y58119D01*
Y58026D01*
Y57933D01*
X25264D01*
Y57840D01*
X25357D01*
Y57747D01*
X25543D01*
Y57654D01*
X26288D01*
Y57561D01*
X26381D01*
Y57468D01*
X26474D01*
Y57375D01*
X26567D01*
Y57282D01*
X26660D01*
Y57189D01*
Y57096D01*
X26753D01*
Y57003D01*
X26846D01*
Y56910D01*
X27032D01*
Y56817D01*
Y56723D01*
X27125D01*
Y56630D01*
X27218D01*
Y56537D01*
X27311D01*
Y56444D01*
X27497D01*
Y56351D01*
X27590D01*
Y56258D01*
X27683D01*
Y56165D01*
Y56072D01*
X27869D01*
Y55979D01*
X27963D01*
Y55886D01*
X28056D01*
Y55793D01*
X28149D01*
Y55700D01*
X28242D01*
Y55607D01*
X28335D01*
Y55514D01*
X28428D01*
Y55421D01*
X28707D01*
Y55328D01*
X28800D01*
Y55235D01*
Y55142D01*
X28893D01*
Y55049D01*
X28986D01*
Y54956D01*
X29079D01*
Y54863D01*
X29265D01*
Y54770D01*
X29358D01*
Y54677D01*
X29451D01*
Y54584D01*
X29544D01*
Y54491D01*
X29637D01*
Y54397D01*
X29823D01*
Y54304D01*
X29917D01*
Y54211D01*
X30009D01*
Y54118D01*
X30196D01*
Y54025D01*
X30289D01*
Y53932D01*
X30382D01*
Y53839D01*
X30568D01*
Y53746D01*
X30661D01*
Y53653D01*
Y53560D01*
X30847D01*
Y53467D01*
X31033D01*
Y53374D01*
Y53281D01*
X31126D01*
Y53188D01*
X31405D01*
Y53095D01*
X31498D01*
Y53002D01*
X31684D01*
Y52909D01*
X31777D01*
Y52816D01*
X31963D01*
Y52723D01*
X32056D01*
Y52630D01*
X32149D01*
Y52536D01*
X32243D01*
Y52443D01*
X32429D01*
Y52350D01*
X32522D01*
Y52257D01*
X32615D01*
Y52164D01*
X32708D01*
Y52071D01*
X32894D01*
Y51978D01*
X33173D01*
Y51885D01*
X33266D01*
Y51792D01*
X33359D01*
Y51699D01*
X33452D01*
Y51606D01*
X33638D01*
Y51513D01*
X33731D01*
Y51420D01*
X33917D01*
Y51327D01*
X34010D01*
Y51234D01*
X34196D01*
Y51141D01*
X34290D01*
Y51048D01*
X34383D01*
Y50955D01*
X34662D01*
Y50862D01*
X34848D01*
Y50769D01*
X34941D01*
Y50676D01*
X35127D01*
Y50583D01*
X35313D01*
Y50490D01*
X35406D01*
Y50397D01*
X35499D01*
Y50304D01*
X35592D01*
Y50210D01*
X35871D01*
Y50117D01*
X35964D01*
Y50024D01*
X36057D01*
Y49931D01*
X36244D01*
Y49838D01*
X36616D01*
Y49745D01*
Y49652D01*
X36802D01*
Y49559D01*
X36988D01*
Y49466D01*
X37174D01*
Y49373D01*
X37267D01*
Y49280D01*
X37453D01*
Y49187D01*
X37639D01*
Y49094D01*
X37825D01*
Y49001D01*
X37918D01*
Y48908D01*
X38011D01*
Y48815D01*
X38197D01*
Y48722D01*
X38476D01*
Y48629D01*
X38663D01*
Y48536D01*
X38849D01*
Y48443D01*
X39035D01*
Y48350D01*
X39221D01*
Y48256D01*
X39407D01*
Y48164D01*
X39500D01*
Y48070D01*
X39779D01*
Y47977D01*
X39965D01*
Y47884D01*
X40058D01*
Y47791D01*
X40244D01*
Y47698D01*
X40430D01*
Y47605D01*
X40710D01*
Y47512D01*
X40896D01*
Y47419D01*
X41175D01*
Y47326D01*
X41361D01*
Y47233D01*
X41547D01*
Y47140D01*
X41733D01*
Y47047D01*
X41826D01*
Y46954D01*
X42198D01*
Y46861D01*
X42291D01*
Y46768D01*
X42477D01*
Y46675D01*
X42757D01*
Y46582D01*
X42850D01*
Y46489D01*
X43315D01*
Y46396D01*
X43501D01*
Y46303D01*
X43780D01*
Y46210D01*
X43966D01*
Y46117D01*
X44245D01*
Y46023D01*
X44338D01*
Y45930D01*
X44617D01*
Y45837D01*
X44804D01*
Y45744D01*
X45083D01*
Y45651D01*
X45362D01*
Y45558D01*
X45548D01*
Y45465D01*
X45734D01*
Y45372D01*
X46199D01*
Y45279D01*
X46478D01*
Y45186D01*
X46757D01*
Y45093D01*
X47037D01*
Y45000D01*
X47316D01*
Y44907D01*
X47502D01*
Y44814D01*
X47781D01*
Y44721D01*
X48153D01*
Y44628D01*
X48432D01*
Y44535D01*
X48711D01*
Y44442D01*
X48897D01*
Y44349D01*
X49270D01*
Y44256D01*
X49828D01*
Y44163D01*
X50200D01*
Y44070D01*
X50572D01*
Y43977D01*
X50851D01*
Y43883D01*
X51223D01*
Y43790D01*
X51596D01*
Y43697D01*
X51875D01*
Y43604D01*
X51503D01*
Y43511D01*
X50014D01*
Y43418D01*
X47316D01*
Y43325D01*
X46106D01*
Y43418D01*
X43873D01*
Y43511D01*
X43687D01*
Y43604D01*
X44338D01*
Y43697D01*
X44431D01*
Y43790D01*
X44804D01*
Y43883D01*
Y43977D01*
X44338D01*
Y43883D01*
X43873D01*
Y43790D01*
X43408D01*
Y43697D01*
X40896D01*
Y43790D01*
X40430D01*
Y43883D01*
X39965D01*
Y43977D01*
X39593D01*
Y44070D01*
X39128D01*
Y44163D01*
X38756D01*
Y44256D01*
X38663D01*
Y44349D01*
X39035D01*
Y44442D01*
X39407D01*
Y44535D01*
X39593D01*
Y44628D01*
X39872D01*
Y44721D01*
X40337D01*
Y44814D01*
X40430D01*
Y44907D01*
X40710D01*
Y45000D01*
X40803D01*
Y45093D01*
Y45186D01*
X40523D01*
Y45093D01*
X40151D01*
Y45000D01*
X39500D01*
Y44907D01*
X38570D01*
Y44814D01*
X36895D01*
Y44907D01*
X36244D01*
Y45000D01*
X36057D01*
Y45093D01*
X35778D01*
Y45186D01*
X35499D01*
Y45279D01*
Y45372D01*
X35871D01*
Y45465D01*
X36336D01*
Y45558D01*
X36709D01*
Y45651D01*
Y45744D01*
X35685D01*
Y45651D01*
X34476D01*
Y45744D01*
X34290D01*
Y45837D01*
X34103D01*
Y45930D01*
X33731D01*
Y46023D01*
X33545D01*
Y46117D01*
X33359D01*
Y46210D01*
X33173D01*
Y46303D01*
X32987D01*
Y46396D01*
X32894D01*
Y46489D01*
X32708D01*
Y46582D01*
X32336D01*
Y46675D01*
Y46768D01*
X32243D01*
Y46861D01*
X32056D01*
Y46954D01*
X31870D01*
Y47047D01*
X31591D01*
Y47140D01*
X31405D01*
Y47233D01*
X31312D01*
Y47326D01*
X31126D01*
Y47419D01*
X30940D01*
Y47512D01*
X30847D01*
Y47605D01*
X30754D01*
Y47698D01*
X30475D01*
Y47791D01*
X30754D01*
Y47884D01*
X31405D01*
Y47977D01*
X31870D01*
Y48070D01*
X32522D01*
Y48164D01*
Y48256D01*
X32894D01*
Y48350D01*
X33266D01*
Y48443D01*
Y48536D01*
X32615D01*
Y48443D01*
X31591D01*
Y48350D01*
X30009D01*
Y48443D01*
X29358D01*
Y48536D01*
X29265D01*
Y48629D01*
X29079D01*
Y48722D01*
X28986D01*
Y48815D01*
X28800D01*
Y48908D01*
X28707D01*
Y49001D01*
X28521D01*
Y49094D01*
Y49187D01*
X28242D01*
Y49280D01*
X28149D01*
Y49373D01*
X28056D01*
Y49466D01*
X27963D01*
Y49559D01*
X27777D01*
Y49652D01*
Y49745D01*
X27590D01*
Y49838D01*
X27497D01*
Y49931D01*
X27404D01*
Y50024D01*
X27311D01*
Y50117D01*
X27218D01*
Y50210D01*
X27125D01*
Y50304D01*
X26939D01*
Y50397D01*
X26846D01*
Y50490D01*
X26753D01*
Y50583D01*
Y50676D01*
X26567D01*
Y50769D01*
X26474D01*
Y50862D01*
X26381D01*
Y50955D01*
X26288D01*
Y51048D01*
X26195D01*
Y51141D01*
X26102D01*
Y51234D01*
Y51327D01*
X26009D01*
Y51420D01*
X25916D01*
Y51513D01*
X25823D01*
Y51606D01*
X25730D01*
Y51699D01*
X25637D01*
Y51792D01*
Y51885D01*
X25543D01*
Y51978D01*
Y52071D01*
X25357D01*
Y52164D01*
X25264D01*
Y52257D01*
Y52350D01*
X25171D01*
Y52443D01*
X26195D01*
Y52536D01*
X26846D01*
Y52630D01*
X27311D01*
Y52723D01*
X27777D01*
Y52816D01*
Y52909D01*
X25823D01*
Y53002D01*
X24985D01*
Y53095D01*
X24613D01*
Y53188D01*
X24520D01*
Y53281D01*
Y53374D01*
X24427D01*
Y53467D01*
Y53560D01*
Y53653D01*
X24241D01*
Y53746D01*
Y53839D01*
X24148D01*
Y53932D01*
Y54025D01*
X24055D01*
Y54118D01*
X23962D01*
Y54211D01*
X24148D01*
Y54118D01*
X24985D01*
Y54211D01*
Y54304D01*
X24520D01*
Y54397D01*
X23869D01*
Y54491D01*
X23776D01*
Y54584D01*
X23683D01*
Y54677D01*
Y54770D01*
X23589D01*
Y54863D01*
Y54956D01*
X23496D01*
Y55049D01*
X23403D01*
Y55142D01*
Y55235D01*
Y55328D01*
Y55421D01*
Y55514D01*
X23310D01*
Y55607D01*
X23217D01*
Y55700D01*
Y55793D01*
Y55886D01*
X23124D01*
Y55979D01*
X23031D01*
Y56072D01*
Y56165D01*
X22938D01*
Y56258D01*
Y56351D01*
Y56444D01*
X22845D01*
Y56537D01*
Y56630D01*
X22752D01*
Y56723D01*
Y56817D01*
Y56910D01*
X22659D01*
Y57003D01*
Y57096D01*
X22566D01*
Y57189D01*
Y57282D01*
X22473D01*
Y57375D01*
Y57468D01*
Y57561D01*
X22380D01*
Y57654D01*
Y57747D01*
X22287D01*
Y57840D01*
Y57933D01*
Y58026D01*
Y58119D01*
Y58212D01*
Y58305D01*
Y58398D01*
X22194D01*
Y58491D01*
Y58584D01*
Y58677D01*
X22101D01*
Y58771D01*
Y58864D01*
Y58957D01*
X22008D01*
Y59050D01*
Y59143D01*
Y59236D01*
Y59329D01*
X21915D01*
Y59422D01*
Y59515D01*
Y59608D01*
Y59701D01*
X21822D01*
Y59794D01*
Y59887D01*
Y59980D01*
Y60073D01*
X21729D01*
Y60166D01*
Y60259D01*
Y60352D01*
Y60445D01*
Y60538D01*
Y60631D01*
X21636D01*
Y60724D01*
Y60817D01*
Y60910D01*
Y61004D01*
Y61097D01*
X21542D01*
Y61190D01*
Y61283D01*
Y61376D01*
Y61469D01*
Y61562D01*
Y61655D01*
Y61748D01*
Y61841D01*
Y61934D01*
X21450D01*
Y62027D01*
Y62120D01*
Y62213D01*
Y62306D01*
Y62399D01*
Y62492D01*
Y62585D01*
Y62678D01*
Y62771D01*
Y62864D01*
Y62958D01*
Y63051D01*
X21822D01*
Y63144D01*
X22287D01*
Y63051D01*
D02*
G37*
G36*
X61924Y46210D02*
Y46117D01*
X62017D01*
Y46023D01*
Y45930D01*
Y45837D01*
X62110D01*
Y45744D01*
Y45651D01*
Y45558D01*
Y45465D01*
X62203D01*
Y45372D01*
Y45279D01*
Y45186D01*
X62296D01*
Y45093D01*
Y45000D01*
X62389D01*
Y44907D01*
Y44814D01*
Y44721D01*
X62482D01*
Y44628D01*
Y44535D01*
X62575D01*
Y44442D01*
Y44349D01*
X62668D01*
Y44256D01*
Y44163D01*
Y44070D01*
X62761D01*
Y43977D01*
Y43883D01*
X62854D01*
Y43790D01*
Y43697D01*
Y43604D01*
Y43511D01*
Y43418D01*
X64436D01*
Y43511D01*
X64529D01*
Y43604D01*
X64622D01*
Y43697D01*
X64715D01*
Y43790D01*
X64808D01*
Y43883D01*
X64901D01*
Y43977D01*
X65738D01*
Y43883D01*
X65925D01*
Y43790D01*
X66111D01*
Y43697D01*
Y43604D01*
X66204D01*
Y43511D01*
X66297D01*
Y43418D01*
X66390D01*
Y43325D01*
X66297D01*
Y43232D01*
Y43139D01*
Y43046D01*
X66483D01*
Y42953D01*
Y42860D01*
Y42767D01*
X66297D01*
Y42674D01*
X66390D01*
Y42581D01*
X66204D01*
Y42488D01*
Y42395D01*
Y42302D01*
Y42209D01*
X66018D01*
Y42116D01*
X65925D01*
Y42023D01*
X65738D01*
Y41930D01*
X64901D01*
Y42023D01*
X64808D01*
Y42116D01*
X64715D01*
Y42209D01*
X64529D01*
Y42302D01*
X64436D01*
Y42395D01*
X63133D01*
Y42302D01*
Y42209D01*
Y42116D01*
Y42023D01*
Y41930D01*
Y41837D01*
Y41743D01*
Y41650D01*
Y41557D01*
Y41464D01*
Y41371D01*
Y41278D01*
Y41185D01*
Y41092D01*
Y40999D01*
Y40906D01*
Y40813D01*
Y40720D01*
Y40627D01*
Y40534D01*
Y40441D01*
Y40348D01*
Y40255D01*
Y40162D01*
Y40069D01*
Y39976D01*
Y39883D01*
Y39790D01*
Y39696D01*
Y39603D01*
Y39510D01*
Y39417D01*
Y39324D01*
Y39231D01*
Y39138D01*
Y39045D01*
Y38952D01*
Y38859D01*
Y38766D01*
Y38673D01*
Y38580D01*
Y38487D01*
Y38394D01*
Y38301D01*
Y38208D01*
Y38115D01*
Y38022D01*
Y37929D01*
Y37836D01*
Y37743D01*
Y37650D01*
Y37556D01*
Y37463D01*
Y37370D01*
Y37277D01*
Y37184D01*
Y37091D01*
Y36998D01*
Y36905D01*
Y36812D01*
Y36719D01*
Y36626D01*
Y36533D01*
Y36440D01*
Y36347D01*
Y36254D01*
Y36161D01*
Y36068D01*
Y35975D01*
Y35882D01*
Y35789D01*
Y35696D01*
Y35603D01*
Y35509D01*
Y35416D01*
Y35323D01*
Y35230D01*
Y35137D01*
Y35044D01*
Y34951D01*
Y34858D01*
Y34765D01*
Y34672D01*
Y34579D01*
Y34486D01*
Y34393D01*
Y34300D01*
Y34207D01*
Y34114D01*
Y34021D01*
Y33928D01*
Y33835D01*
Y33742D01*
Y33649D01*
Y33556D01*
Y33463D01*
Y33369D01*
Y33277D01*
Y33183D01*
Y33090D01*
Y32997D01*
Y32904D01*
Y32811D01*
Y32718D01*
Y32625D01*
Y32532D01*
Y32439D01*
X63040D01*
Y32346D01*
Y32253D01*
Y32160D01*
Y32067D01*
Y31974D01*
Y31881D01*
Y31788D01*
Y31695D01*
Y31602D01*
Y31509D01*
X62854D01*
Y31416D01*
Y31323D01*
Y31229D01*
Y31137D01*
Y31043D01*
Y30950D01*
Y30857D01*
Y30764D01*
X62761D01*
Y30671D01*
Y30578D01*
Y30485D01*
X62668D01*
Y30392D01*
X62575D01*
Y30299D01*
Y30206D01*
X62482D01*
Y30113D01*
Y30020D01*
X62389D01*
Y29927D01*
Y29834D01*
X62296D01*
Y29741D01*
X62203D01*
Y29648D01*
X62110D01*
Y29555D01*
Y29462D01*
X62017D01*
Y29369D01*
X61924D01*
Y29276D01*
X61644D01*
Y29182D01*
X61551D01*
Y29089D01*
X61458D01*
Y28996D01*
X61179D01*
Y28903D01*
X60714D01*
Y28810D01*
X58388D01*
Y28903D01*
Y28996D01*
Y29089D01*
Y29182D01*
Y29276D01*
Y29369D01*
Y29462D01*
Y29555D01*
Y29648D01*
Y29741D01*
X58853D01*
Y29834D01*
X59225D01*
Y29927D01*
X59597D01*
Y30020D01*
X60063D01*
Y30113D01*
X60342D01*
Y30206D01*
X60621D01*
Y30299D01*
X60807D01*
Y30392D01*
X60993D01*
Y30485D01*
X61086D01*
Y30578D01*
X61179D01*
Y30671D01*
X61272D01*
Y30764D01*
X61365D01*
Y30857D01*
X61458D01*
Y30950D01*
Y31043D01*
Y31137D01*
X61551D01*
Y31229D01*
Y31323D01*
X61458D01*
Y31416D01*
X61644D01*
Y31509D01*
Y31602D01*
Y31695D01*
X61551D01*
Y31788D01*
X61738D01*
Y31881D01*
Y31974D01*
Y32067D01*
Y32160D01*
Y32253D01*
X61644D01*
Y32346D01*
X61831D01*
Y32439D01*
Y32532D01*
Y32625D01*
Y32718D01*
Y32811D01*
Y32904D01*
Y32997D01*
Y33090D01*
Y33183D01*
Y33277D01*
Y33369D01*
Y33463D01*
Y33556D01*
Y33649D01*
Y33742D01*
Y33835D01*
Y33928D01*
Y34021D01*
Y34114D01*
Y34207D01*
Y34300D01*
Y34393D01*
Y34486D01*
Y34579D01*
Y34672D01*
Y34765D01*
Y34858D01*
Y34951D01*
Y35044D01*
Y35137D01*
Y35230D01*
Y35323D01*
Y35416D01*
Y35509D01*
Y35603D01*
Y35696D01*
Y35789D01*
Y35882D01*
Y35975D01*
Y36068D01*
Y36161D01*
Y36254D01*
Y36347D01*
Y36440D01*
Y36533D01*
Y36626D01*
Y36719D01*
Y36812D01*
Y36905D01*
Y36998D01*
Y37091D01*
Y37184D01*
Y37277D01*
Y37370D01*
Y37463D01*
Y37556D01*
Y37650D01*
Y37743D01*
Y37836D01*
Y37929D01*
Y38022D01*
Y38115D01*
Y38208D01*
Y38301D01*
Y38394D01*
Y38487D01*
Y38580D01*
Y38673D01*
Y38766D01*
Y38859D01*
Y38952D01*
Y39045D01*
Y39138D01*
Y39231D01*
Y39324D01*
Y39417D01*
Y39510D01*
Y39603D01*
Y39696D01*
Y39790D01*
Y39883D01*
Y39976D01*
Y40069D01*
Y40162D01*
Y40255D01*
Y40348D01*
Y40441D01*
Y40534D01*
Y40627D01*
Y40720D01*
Y40813D01*
Y40906D01*
Y40999D01*
Y41092D01*
Y41185D01*
Y41278D01*
Y41371D01*
Y41464D01*
Y41557D01*
Y41650D01*
Y41743D01*
Y41837D01*
Y41930D01*
Y42023D01*
Y42116D01*
Y42209D01*
Y42302D01*
Y42395D01*
X61551D01*
Y42488D01*
X59970D01*
Y42581D01*
X58109D01*
Y42674D01*
X57364D01*
Y42767D01*
X56620D01*
Y42860D01*
X55969D01*
Y42953D01*
X55876D01*
Y42860D01*
Y42767D01*
Y42674D01*
Y42581D01*
Y42488D01*
Y42395D01*
Y42302D01*
Y42209D01*
Y42116D01*
Y42023D01*
Y41930D01*
Y41837D01*
Y41743D01*
Y41650D01*
Y41557D01*
Y41464D01*
Y41371D01*
Y41278D01*
Y41185D01*
Y41092D01*
Y40999D01*
Y40906D01*
Y40813D01*
Y40720D01*
Y40627D01*
Y40534D01*
Y40441D01*
Y40348D01*
Y40255D01*
Y40162D01*
Y40069D01*
Y39976D01*
Y39883D01*
Y39790D01*
Y39696D01*
Y39603D01*
Y39510D01*
Y39417D01*
Y39324D01*
Y39231D01*
Y39138D01*
Y39045D01*
Y38952D01*
Y38859D01*
Y38766D01*
Y38673D01*
Y38580D01*
Y38487D01*
Y38394D01*
Y38301D01*
Y38208D01*
Y38115D01*
Y38022D01*
Y37929D01*
Y37836D01*
Y37743D01*
Y37650D01*
Y37556D01*
Y37463D01*
Y37370D01*
Y37277D01*
Y37184D01*
Y37091D01*
Y36998D01*
Y36905D01*
Y36812D01*
Y36719D01*
Y36626D01*
Y36533D01*
Y36440D01*
Y36347D01*
Y36254D01*
Y36161D01*
Y36068D01*
Y35975D01*
Y35882D01*
Y35789D01*
Y35696D01*
Y35603D01*
Y35509D01*
Y35416D01*
Y35323D01*
Y35230D01*
Y35137D01*
Y35044D01*
Y34951D01*
Y34858D01*
Y34765D01*
Y34672D01*
Y34579D01*
Y34486D01*
Y34393D01*
Y34300D01*
Y34207D01*
Y34114D01*
Y34021D01*
Y33928D01*
Y33835D01*
Y33742D01*
Y33649D01*
Y33556D01*
Y33463D01*
Y33369D01*
Y33277D01*
Y33183D01*
Y33090D01*
Y32997D01*
Y32904D01*
Y32811D01*
Y32718D01*
Y32625D01*
Y32532D01*
Y32439D01*
Y32346D01*
Y32253D01*
Y32160D01*
Y32067D01*
Y31974D01*
Y31881D01*
Y31788D01*
Y31695D01*
Y31602D01*
Y31509D01*
Y31416D01*
Y31323D01*
Y31229D01*
Y31137D01*
Y31043D01*
Y30950D01*
Y30857D01*
Y30764D01*
Y30671D01*
Y30578D01*
Y30485D01*
Y30392D01*
Y30299D01*
Y30206D01*
Y30113D01*
Y30020D01*
Y29927D01*
Y29834D01*
Y29741D01*
Y29648D01*
Y29555D01*
Y29462D01*
Y29369D01*
Y29276D01*
Y29182D01*
Y29089D01*
Y28996D01*
Y28903D01*
Y28810D01*
X54573D01*
Y28903D01*
Y28996D01*
Y29089D01*
Y29182D01*
Y29276D01*
Y29369D01*
Y29462D01*
Y29555D01*
Y29648D01*
Y29741D01*
Y29834D01*
Y29927D01*
Y30020D01*
Y30113D01*
Y30206D01*
Y30299D01*
Y30392D01*
Y30485D01*
Y30578D01*
Y30671D01*
Y30764D01*
Y30857D01*
Y30950D01*
Y31043D01*
Y31137D01*
Y31229D01*
Y31323D01*
Y31416D01*
Y31509D01*
Y31602D01*
Y31695D01*
Y31788D01*
Y31881D01*
Y31974D01*
Y32067D01*
Y32160D01*
Y32253D01*
Y32346D01*
Y32439D01*
Y32532D01*
Y32625D01*
Y32718D01*
Y32811D01*
Y32904D01*
Y32997D01*
Y33090D01*
Y33183D01*
Y33277D01*
Y33369D01*
Y33463D01*
Y33556D01*
Y33649D01*
Y33742D01*
Y33835D01*
Y33928D01*
Y34021D01*
Y34114D01*
Y34207D01*
Y34300D01*
Y34393D01*
Y34486D01*
Y34579D01*
Y34672D01*
Y34765D01*
Y34858D01*
Y34951D01*
Y35044D01*
Y35137D01*
Y35230D01*
Y35323D01*
Y35416D01*
Y35509D01*
Y35603D01*
Y35696D01*
Y35789D01*
Y35882D01*
Y35975D01*
Y36068D01*
Y36161D01*
Y36254D01*
Y36347D01*
Y36440D01*
Y36533D01*
Y36626D01*
Y36719D01*
Y36812D01*
Y36905D01*
Y36998D01*
Y37091D01*
Y37184D01*
Y37277D01*
Y37370D01*
Y37463D01*
Y37556D01*
Y37650D01*
Y37743D01*
Y37836D01*
Y37929D01*
Y38022D01*
Y38115D01*
Y38208D01*
Y38301D01*
Y38394D01*
X54387D01*
Y38487D01*
X54201D01*
Y38580D01*
X53922D01*
Y38673D01*
X53736D01*
Y38766D01*
X53643D01*
Y38859D01*
X53364D01*
Y38952D01*
X53271D01*
Y39045D01*
X53084D01*
Y39138D01*
X52805D01*
Y39231D01*
X52340D01*
Y39324D01*
X52061D01*
Y39417D01*
X51782D01*
Y39510D01*
X51223D01*
Y39603D01*
X49363D01*
Y39510D01*
X49177D01*
Y39417D01*
X48804D01*
Y39324D01*
Y39231D01*
X48525D01*
Y39138D01*
X48432D01*
Y39045D01*
X48339D01*
Y38952D01*
Y38859D01*
X48153D01*
Y38766D01*
X48060D01*
Y38673D01*
X48153D01*
Y38580D01*
X48060D01*
Y38487D01*
X47874D01*
Y38394D01*
Y38301D01*
X47967D01*
Y38208D01*
X47781D01*
Y38115D01*
Y38022D01*
X47688D01*
Y37929D01*
Y37836D01*
Y37743D01*
Y37650D01*
Y37556D01*
Y37463D01*
Y37370D01*
Y37277D01*
Y37184D01*
Y37091D01*
Y36998D01*
Y36905D01*
Y36812D01*
Y36719D01*
Y36626D01*
Y36533D01*
Y36440D01*
Y36347D01*
Y36254D01*
Y36161D01*
Y36068D01*
Y35975D01*
Y35882D01*
Y35789D01*
Y35696D01*
Y35603D01*
Y35509D01*
Y35416D01*
Y35323D01*
Y35230D01*
Y35137D01*
Y35044D01*
Y34951D01*
Y34858D01*
Y34765D01*
Y34672D01*
Y34579D01*
Y34486D01*
Y34393D01*
Y34300D01*
Y34207D01*
Y34114D01*
Y34021D01*
Y33928D01*
Y33835D01*
Y33742D01*
Y33649D01*
Y33556D01*
Y33463D01*
Y33369D01*
Y33277D01*
Y33183D01*
Y33090D01*
Y32997D01*
Y32904D01*
Y32811D01*
Y32718D01*
Y32625D01*
Y32532D01*
Y32439D01*
Y32346D01*
Y32253D01*
Y32160D01*
Y32067D01*
Y31974D01*
Y31881D01*
Y31788D01*
Y31695D01*
Y31602D01*
Y31509D01*
Y31416D01*
Y31323D01*
Y31229D01*
Y31137D01*
Y31043D01*
Y30950D01*
Y30857D01*
Y30764D01*
Y30671D01*
Y30578D01*
Y30485D01*
Y30392D01*
Y30299D01*
Y30206D01*
Y30113D01*
Y30020D01*
Y29927D01*
Y29834D01*
Y29741D01*
Y29648D01*
Y29555D01*
Y29462D01*
Y29369D01*
Y29276D01*
Y29182D01*
Y29089D01*
Y28996D01*
Y28903D01*
Y28810D01*
X46292D01*
Y28903D01*
Y28996D01*
Y29089D01*
Y29182D01*
Y29276D01*
Y29369D01*
Y29462D01*
Y29555D01*
Y29648D01*
Y29741D01*
Y29834D01*
Y29927D01*
Y30020D01*
Y30113D01*
Y30206D01*
Y30299D01*
Y30392D01*
Y30485D01*
Y30578D01*
Y30671D01*
Y30764D01*
Y30857D01*
Y30950D01*
Y31043D01*
Y31137D01*
Y31229D01*
Y31323D01*
Y31416D01*
Y31509D01*
Y31602D01*
Y31695D01*
Y31788D01*
Y31881D01*
Y31974D01*
Y32067D01*
Y32160D01*
Y32253D01*
Y32346D01*
Y32439D01*
Y32532D01*
Y32625D01*
Y32718D01*
Y32811D01*
Y32904D01*
Y32997D01*
Y33090D01*
Y33183D01*
Y33277D01*
Y33369D01*
Y33463D01*
Y33556D01*
Y33649D01*
Y33742D01*
Y33835D01*
Y33928D01*
Y34021D01*
Y34114D01*
Y34207D01*
Y34300D01*
Y34393D01*
Y34486D01*
Y34579D01*
Y34672D01*
Y34765D01*
Y34858D01*
Y34951D01*
Y35044D01*
Y35137D01*
Y35230D01*
Y35323D01*
Y35416D01*
Y35509D01*
Y35603D01*
Y35696D01*
Y35789D01*
Y35882D01*
Y35975D01*
Y36068D01*
Y36161D01*
Y36254D01*
Y36347D01*
Y36440D01*
Y36533D01*
Y36626D01*
Y36719D01*
Y36812D01*
Y36905D01*
Y36998D01*
Y37091D01*
Y37184D01*
Y37277D01*
Y37370D01*
Y37463D01*
Y37556D01*
X46385D01*
Y37650D01*
Y37743D01*
Y37836D01*
Y37929D01*
Y38022D01*
X46478D01*
Y38115D01*
Y38208D01*
Y38301D01*
Y38394D01*
X46571D01*
Y38487D01*
X46664D01*
Y38580D01*
X46571D01*
Y38673D01*
X46664D01*
Y38766D01*
Y38859D01*
X46757D01*
Y38952D01*
Y39045D01*
X46850D01*
Y39138D01*
X46944D01*
Y39231D01*
Y39324D01*
Y39417D01*
X47037D01*
Y39510D01*
X47130D01*
Y39603D01*
Y39696D01*
X47316D01*
Y39790D01*
X47409D01*
Y39883D01*
Y39976D01*
X47502D01*
Y40069D01*
X47595D01*
Y40162D01*
X47688D01*
Y40255D01*
X47874D01*
Y40348D01*
X47967D01*
Y40441D01*
X48153D01*
Y40534D01*
X48246D01*
Y40627D01*
X48618D01*
Y40720D01*
X48897D01*
Y40813D01*
X49177D01*
Y40906D01*
X51037D01*
Y40813D01*
X51410D01*
Y40720D01*
X51782D01*
Y40627D01*
X52247D01*
Y40534D01*
X52526D01*
Y40441D01*
X52712D01*
Y40348D01*
X52805D01*
Y40255D01*
X53177D01*
Y40162D01*
X53271D01*
Y40069D01*
X53550D01*
Y39976D01*
X53643D01*
Y39883D01*
X53736D01*
Y39790D01*
X53922D01*
Y39696D01*
X54108D01*
Y39603D01*
X54294D01*
Y39510D01*
X54573D01*
Y39603D01*
Y39696D01*
Y39790D01*
Y39883D01*
Y39976D01*
Y40069D01*
Y40162D01*
Y40255D01*
Y40348D01*
Y40441D01*
Y40534D01*
Y40627D01*
Y40720D01*
Y40813D01*
Y40906D01*
Y40999D01*
Y41092D01*
Y41185D01*
Y41278D01*
Y41371D01*
Y41464D01*
Y41557D01*
Y41650D01*
Y41743D01*
Y41837D01*
Y41930D01*
Y42023D01*
Y42116D01*
Y42209D01*
Y42302D01*
Y42395D01*
Y42488D01*
Y42581D01*
Y42674D01*
Y42767D01*
Y42860D01*
Y42953D01*
Y43046D01*
Y43139D01*
X54480D01*
Y43232D01*
X53922D01*
Y43325D01*
X53457D01*
Y43418D01*
X53084D01*
Y43511D01*
X52712D01*
Y43604D01*
X53922D01*
Y43697D01*
X54387D01*
Y43790D01*
Y43883D01*
Y43977D01*
X54108D01*
Y44070D01*
X53736D01*
Y44163D01*
X53364D01*
Y44256D01*
X53271D01*
Y44349D01*
X53084D01*
Y44442D01*
X52805D01*
Y44535D01*
X52619D01*
Y44628D01*
X52991D01*
Y44535D01*
X53457D01*
Y44442D01*
X53829D01*
Y44349D01*
X54294D01*
Y44256D01*
X54759D01*
Y44163D01*
X55224D01*
Y44070D01*
X55876D01*
Y43977D01*
X56899D01*
Y43883D01*
X57644D01*
Y43790D01*
X58388D01*
Y43697D01*
X58481D01*
Y43604D01*
X60435D01*
Y43511D01*
X61831D01*
Y43604D01*
Y43697D01*
Y43790D01*
Y43883D01*
Y43977D01*
Y44070D01*
Y44163D01*
Y44256D01*
Y44349D01*
Y44442D01*
Y44535D01*
Y44628D01*
Y44721D01*
Y44814D01*
Y44907D01*
Y45000D01*
Y45093D01*
Y45186D01*
Y45279D01*
Y45372D01*
Y45465D01*
Y45558D01*
Y45651D01*
Y45744D01*
Y45837D01*
Y45930D01*
Y46023D01*
Y46117D01*
Y46210D01*
Y46303D01*
X61924D01*
Y46210D01*
D02*
G37*
G36*
X43687Y43418D02*
X43594D01*
Y43511D01*
X43687D01*
Y43418D01*
D02*
G37*
G36*
X70484Y40906D02*
X72158D01*
Y40813D01*
X72996D01*
Y40720D01*
X73554D01*
Y40627D01*
X74577D01*
Y40534D01*
X74950D01*
Y40441D01*
X75136D01*
Y40348D01*
Y40255D01*
Y40162D01*
Y40069D01*
Y39976D01*
Y39883D01*
Y39790D01*
Y39696D01*
Y39603D01*
Y39510D01*
Y39417D01*
X74298D01*
Y39510D01*
X73275D01*
Y39603D01*
X72065D01*
Y39696D01*
X69460D01*
Y39603D01*
X69088D01*
Y39510D01*
X68809D01*
Y39417D01*
Y39324D01*
X68623D01*
Y39231D01*
X68437D01*
Y39138D01*
X68344D01*
Y39045D01*
X68251D01*
Y38952D01*
X68158D01*
Y38859D01*
Y38766D01*
X68064D01*
Y38673D01*
Y38580D01*
X67971D01*
Y38487D01*
Y38394D01*
Y38301D01*
X67878D01*
Y38208D01*
Y38115D01*
Y38022D01*
Y37929D01*
Y37836D01*
Y37743D01*
Y37650D01*
X67785D01*
Y37556D01*
Y37463D01*
Y37370D01*
Y37277D01*
Y37184D01*
Y37091D01*
Y36998D01*
Y36905D01*
Y36812D01*
Y36719D01*
Y36626D01*
Y36533D01*
Y36440D01*
Y36347D01*
Y36254D01*
Y36161D01*
Y36068D01*
X73368D01*
Y35975D01*
X73926D01*
Y35882D01*
X74019D01*
Y35789D01*
X74392D01*
Y35696D01*
X74577D01*
Y35603D01*
X74764D01*
Y35509D01*
X74857D01*
Y35416D01*
X75043D01*
Y35323D01*
X75136D01*
Y35230D01*
X75229D01*
Y35137D01*
X75415D01*
Y35044D01*
X75322D01*
Y34951D01*
X75508D01*
Y34858D01*
Y34765D01*
Y34672D01*
X75601D01*
Y34579D01*
Y34486D01*
X75694D01*
Y34393D01*
Y34300D01*
X75787D01*
Y34207D01*
Y34114D01*
Y34021D01*
X75880D01*
Y33928D01*
Y33835D01*
Y33742D01*
X75973D01*
Y33649D01*
Y33556D01*
Y33463D01*
Y33369D01*
Y33277D01*
Y33183D01*
Y33090D01*
Y32997D01*
Y32904D01*
Y32811D01*
Y32718D01*
Y32625D01*
Y32532D01*
Y32439D01*
Y32346D01*
Y32253D01*
Y32160D01*
Y32067D01*
Y31974D01*
Y31881D01*
Y31788D01*
Y31695D01*
Y31602D01*
Y31509D01*
Y31416D01*
Y31323D01*
Y31229D01*
Y31137D01*
Y31043D01*
Y30950D01*
X75880D01*
Y30857D01*
Y30764D01*
Y30671D01*
Y30578D01*
X75787D01*
Y30485D01*
Y30392D01*
X75694D01*
Y30299D01*
Y30206D01*
X75601D01*
Y30113D01*
Y30020D01*
Y29927D01*
X75415D01*
Y29834D01*
X75508D01*
Y29741D01*
X75415D01*
Y29648D01*
X75322D01*
Y29555D01*
X75136D01*
Y29462D01*
X75043D01*
Y29369D01*
Y29276D01*
X74764D01*
Y29182D01*
X74671D01*
Y29089D01*
X74484D01*
Y28996D01*
X74392D01*
Y28903D01*
X74205D01*
Y28810D01*
X73833D01*
Y28717D01*
X73275D01*
Y28624D01*
X72531D01*
Y28717D01*
X71972D01*
Y28810D01*
X71507D01*
Y28903D01*
X71135D01*
Y28996D01*
X70856D01*
Y29089D01*
X70577D01*
Y29182D01*
X70297D01*
Y29276D01*
X69832D01*
Y29369D01*
X69646D01*
Y29462D01*
X69367D01*
Y29555D01*
X69181D01*
Y29648D01*
X68995D01*
Y29741D01*
X68809D01*
Y29834D01*
X68623D01*
Y29927D01*
X68344D01*
Y30020D01*
X68158D01*
Y30113D01*
X68064D01*
Y30206D01*
X67692D01*
Y30113D01*
Y30020D01*
Y29927D01*
X67599D01*
Y29834D01*
X67506D01*
Y29741D01*
X67413D01*
Y29648D01*
X67320D01*
Y29555D01*
X67227D01*
Y29462D01*
X67134D01*
Y29369D01*
X67041D01*
Y29276D01*
X66948D01*
Y29182D01*
Y29089D01*
X66855D01*
Y28996D01*
X66762D01*
Y28903D01*
X66669D01*
Y28810D01*
X66576D01*
Y28903D01*
Y28996D01*
Y29089D01*
Y29182D01*
Y29276D01*
Y29369D01*
Y29462D01*
Y29555D01*
Y29648D01*
Y29741D01*
Y29834D01*
Y29927D01*
Y30020D01*
Y30113D01*
Y30206D01*
Y30299D01*
Y30392D01*
Y30485D01*
Y30578D01*
Y30671D01*
Y30764D01*
Y30857D01*
Y30950D01*
Y31043D01*
Y31137D01*
Y31229D01*
Y31323D01*
Y31416D01*
Y31509D01*
Y31602D01*
Y31695D01*
Y31788D01*
Y31881D01*
Y31974D01*
Y32067D01*
Y32160D01*
Y32253D01*
Y32346D01*
Y32439D01*
Y32532D01*
Y32625D01*
Y32718D01*
Y32811D01*
Y32904D01*
Y32997D01*
Y33090D01*
Y33183D01*
Y33277D01*
Y33369D01*
Y33463D01*
Y33556D01*
Y33649D01*
Y33742D01*
Y33835D01*
Y33928D01*
Y34021D01*
Y34114D01*
Y34207D01*
Y34300D01*
Y34393D01*
Y34486D01*
Y34579D01*
Y34672D01*
Y34765D01*
Y34858D01*
Y34951D01*
Y35044D01*
Y35137D01*
Y35230D01*
Y35323D01*
Y35416D01*
Y35509D01*
Y35603D01*
Y35696D01*
Y35789D01*
Y35882D01*
Y35975D01*
Y36068D01*
Y36161D01*
Y36254D01*
Y36347D01*
Y36440D01*
Y36533D01*
Y36626D01*
Y36719D01*
Y36812D01*
Y36905D01*
Y36998D01*
Y37091D01*
Y37184D01*
Y37277D01*
Y37370D01*
Y37463D01*
Y37556D01*
Y37650D01*
Y37743D01*
Y37836D01*
Y37929D01*
Y38022D01*
Y38115D01*
Y38208D01*
Y38301D01*
Y38394D01*
X66669D01*
Y38487D01*
Y38580D01*
Y38673D01*
Y38766D01*
X66762D01*
Y38859D01*
Y38952D01*
Y39045D01*
X66855D01*
Y39138D01*
Y39231D01*
Y39324D01*
X66948D01*
Y39417D01*
Y39510D01*
X67041D01*
Y39603D01*
Y39696D01*
X67134D01*
Y39790D01*
X67227D01*
Y39883D01*
X67320D01*
Y39976D01*
X67413D01*
Y40069D01*
X67506D01*
Y40162D01*
X67599D01*
Y40255D01*
X67692D01*
Y40348D01*
X67785D01*
Y40441D01*
X67971D01*
Y40534D01*
X68064D01*
Y40627D01*
X68344D01*
Y40720D01*
X68623D01*
Y40813D01*
X68995D01*
Y40906D01*
X69553D01*
Y40999D01*
X70484D01*
Y40906D01*
D02*
G37*
G36*
X40430Y40720D02*
X41175D01*
Y40627D01*
X41826D01*
Y40534D01*
X42012D01*
Y40441D01*
X42198D01*
Y40348D01*
X42291D01*
Y40255D01*
X42570D01*
Y40162D01*
X42663D01*
Y40069D01*
X42757D01*
Y39976D01*
X42943D01*
Y39883D01*
Y39790D01*
X43036D01*
Y39696D01*
X43129D01*
Y39603D01*
X43222D01*
Y39510D01*
X43315D01*
Y39417D01*
Y39324D01*
Y39231D01*
X43408D01*
Y39138D01*
Y39045D01*
X43594D01*
Y38952D01*
X43501D01*
Y38859D01*
X43687D01*
Y38766D01*
Y38673D01*
Y38580D01*
Y38487D01*
Y38394D01*
X43780D01*
Y38301D01*
Y38208D01*
Y38115D01*
Y38022D01*
X43873D01*
Y37929D01*
Y37836D01*
Y37743D01*
Y37650D01*
Y37556D01*
X43966D01*
Y37463D01*
Y37370D01*
Y37277D01*
Y37184D01*
Y37091D01*
Y36998D01*
Y36905D01*
X44059D01*
Y36812D01*
Y36719D01*
Y36626D01*
Y36533D01*
Y36440D01*
Y36347D01*
Y36254D01*
Y36161D01*
Y36068D01*
Y35975D01*
Y35882D01*
Y35789D01*
X44152D01*
Y35696D01*
Y35603D01*
Y35509D01*
Y35416D01*
Y35323D01*
Y35230D01*
Y35137D01*
Y35044D01*
Y34951D01*
Y34858D01*
Y34765D01*
Y34672D01*
Y34579D01*
Y34486D01*
Y34393D01*
Y34300D01*
Y34207D01*
Y34114D01*
Y34021D01*
Y33928D01*
Y33835D01*
Y33742D01*
X44059D01*
Y33649D01*
Y33556D01*
Y33463D01*
Y33369D01*
Y33277D01*
Y33183D01*
Y33090D01*
Y32997D01*
Y32904D01*
Y32811D01*
Y32718D01*
Y32625D01*
Y32532D01*
X43966D01*
Y32439D01*
Y32346D01*
Y32253D01*
Y32160D01*
Y32067D01*
Y31974D01*
Y31881D01*
X43873D01*
Y31788D01*
Y31695D01*
Y31602D01*
Y31509D01*
X43780D01*
Y31416D01*
Y31323D01*
Y31229D01*
Y31137D01*
X43687D01*
Y31043D01*
Y30950D01*
Y30857D01*
Y30764D01*
Y30671D01*
Y30578D01*
X43501D01*
Y30485D01*
X43594D01*
Y30392D01*
X43501D01*
Y30299D01*
X43315D01*
Y30206D01*
Y30113D01*
Y30020D01*
Y29927D01*
X43222D01*
Y29834D01*
X43129D01*
Y29741D01*
X43036D01*
Y29648D01*
X42943D01*
Y29555D01*
X42850D01*
Y29462D01*
X42757D01*
Y29369D01*
X42663D01*
Y29276D01*
X42477D01*
Y29182D01*
X42291D01*
Y29089D01*
X42105D01*
Y28996D01*
X41919D01*
Y28903D01*
X41733D01*
Y28810D01*
X41268D01*
Y28717D01*
X37918D01*
Y28810D01*
X36988D01*
Y28903D01*
X36430D01*
Y28996D01*
X36057D01*
Y29089D01*
X35592D01*
Y29182D01*
X35220D01*
Y29276D01*
X34755D01*
Y29369D01*
Y29462D01*
Y29555D01*
Y29648D01*
Y29741D01*
Y29834D01*
Y29927D01*
Y30020D01*
Y30113D01*
Y30206D01*
Y30299D01*
X35220D01*
Y30206D01*
X35871D01*
Y30113D01*
X36988D01*
Y30020D01*
X41082D01*
Y30113D01*
X41361D01*
Y30206D01*
X41547D01*
Y30299D01*
X41733D01*
Y30392D01*
X41826D01*
Y30485D01*
X41919D01*
Y30578D01*
X42012D01*
Y30671D01*
X42105D01*
Y30764D01*
X42198D01*
Y30857D01*
X42291D01*
Y30950D01*
Y31043D01*
X42384D01*
Y31137D01*
Y31229D01*
X42477D01*
Y31323D01*
Y31416D01*
Y31509D01*
X42570D01*
Y31602D01*
Y31695D01*
Y31788D01*
X42663D01*
Y31881D01*
Y31974D01*
Y32067D01*
Y32160D01*
Y32253D01*
X42757D01*
Y32346D01*
Y32439D01*
Y32532D01*
Y32625D01*
Y32718D01*
Y32811D01*
Y32904D01*
Y32997D01*
Y33090D01*
X42850D01*
Y33183D01*
Y33277D01*
Y33369D01*
Y33463D01*
Y33556D01*
Y33649D01*
Y33742D01*
Y33835D01*
Y33928D01*
Y34021D01*
X36895D01*
Y34114D01*
X36336D01*
Y34207D01*
X36057D01*
Y34300D01*
X35871D01*
Y34393D01*
X35592D01*
Y34486D01*
X35499D01*
Y34579D01*
X35313D01*
Y34672D01*
X35220D01*
Y34765D01*
X35127D01*
Y34858D01*
X35034D01*
Y34951D01*
X34941D01*
Y35044D01*
Y35137D01*
X34848D01*
Y35230D01*
Y35323D01*
X34755D01*
Y35416D01*
Y35509D01*
X34662D01*
Y35603D01*
Y35696D01*
Y35789D01*
Y35882D01*
X34569D01*
Y35975D01*
Y36068D01*
Y36161D01*
Y36254D01*
Y36347D01*
Y36440D01*
Y36533D01*
Y36626D01*
Y36719D01*
Y36812D01*
Y36905D01*
Y36998D01*
Y37091D01*
Y37184D01*
Y37277D01*
Y37370D01*
Y37463D01*
Y37556D01*
Y37650D01*
Y37743D01*
Y37836D01*
Y37929D01*
X34662D01*
Y38022D01*
Y38115D01*
Y38208D01*
Y38301D01*
Y38394D01*
X34755D01*
Y38487D01*
Y38580D01*
Y38673D01*
Y38766D01*
X34848D01*
Y38859D01*
Y38952D01*
X34941D01*
Y39045D01*
Y39138D01*
X35034D01*
Y39231D01*
Y39324D01*
Y39417D01*
X35127D01*
Y39510D01*
X35220D01*
Y39603D01*
X35313D01*
Y39696D01*
X35220D01*
Y39790D01*
X35313D01*
Y39883D01*
X35406D01*
Y39976D01*
X35592D01*
Y40069D01*
Y40162D01*
X35778D01*
Y40255D01*
X35964D01*
Y40348D01*
X36057D01*
Y40441D01*
X36244D01*
Y40534D01*
X36336D01*
Y40627D01*
X37081D01*
Y40720D01*
X37639D01*
Y40813D01*
X40430D01*
Y40720D01*
D02*
G37*
G36*
X26474Y40813D02*
X27311D01*
Y40720D01*
X27683D01*
Y40627D01*
X28242D01*
Y40534D01*
X28428D01*
Y40441D01*
X28707D01*
Y40348D01*
X28800D01*
Y40255D01*
X29079D01*
Y40162D01*
X29265D01*
Y40069D01*
X29358D01*
Y39976D01*
X29637D01*
Y39883D01*
X29730D01*
Y39790D01*
X29917D01*
Y39696D01*
X30103D01*
Y39603D01*
X30196D01*
Y39510D01*
X30475D01*
Y39417D01*
X30940D01*
Y39510D01*
X31126D01*
Y39603D01*
Y39696D01*
X31219D01*
Y39790D01*
Y39883D01*
X31312D01*
Y39976D01*
X31405D01*
Y40069D01*
X31498D01*
Y40162D01*
X31591D01*
Y40255D01*
X31777D01*
Y40348D01*
Y40441D01*
Y40534D01*
X31870D01*
Y40627D01*
X31963D01*
Y40720D01*
X32056D01*
Y40627D01*
Y40534D01*
Y40441D01*
Y40348D01*
Y40255D01*
Y40162D01*
Y40069D01*
Y39976D01*
Y39883D01*
Y39790D01*
Y39696D01*
Y39603D01*
Y39510D01*
Y39417D01*
Y39324D01*
Y39231D01*
Y39138D01*
Y39045D01*
Y38952D01*
Y38859D01*
Y38766D01*
Y38673D01*
Y38580D01*
Y38487D01*
Y38394D01*
Y38301D01*
Y38208D01*
Y38115D01*
Y38022D01*
Y37929D01*
Y37836D01*
Y37743D01*
Y37650D01*
Y37556D01*
Y37463D01*
Y37370D01*
Y37277D01*
Y37184D01*
Y37091D01*
Y36998D01*
Y36905D01*
Y36812D01*
Y36719D01*
Y36626D01*
Y36533D01*
Y36440D01*
Y36347D01*
Y36254D01*
Y36161D01*
Y36068D01*
Y35975D01*
Y35882D01*
Y35789D01*
Y35696D01*
Y35603D01*
Y35509D01*
Y35416D01*
Y35323D01*
Y35230D01*
Y35137D01*
Y35044D01*
Y34951D01*
Y34858D01*
Y34765D01*
Y34672D01*
Y34579D01*
Y34486D01*
Y34393D01*
Y34300D01*
Y34207D01*
Y34114D01*
Y34021D01*
Y33928D01*
Y33835D01*
Y33742D01*
Y33649D01*
Y33556D01*
Y33463D01*
Y33369D01*
Y33277D01*
Y33183D01*
Y33090D01*
Y32997D01*
Y32904D01*
Y32811D01*
Y32718D01*
Y32625D01*
Y32532D01*
Y32439D01*
Y32346D01*
Y32253D01*
Y32160D01*
Y32067D01*
Y31974D01*
Y31881D01*
Y31788D01*
Y31695D01*
Y31602D01*
Y31509D01*
Y31416D01*
Y31323D01*
Y31229D01*
Y31137D01*
Y31043D01*
Y30950D01*
Y30857D01*
Y30764D01*
Y30671D01*
Y30578D01*
Y30485D01*
Y30392D01*
Y30299D01*
Y30206D01*
Y30113D01*
Y30020D01*
Y29927D01*
Y29834D01*
Y29741D01*
Y29648D01*
Y29555D01*
Y29462D01*
Y29369D01*
Y29276D01*
Y29182D01*
Y29089D01*
Y28996D01*
Y28903D01*
Y28810D01*
X30754D01*
Y28903D01*
Y28996D01*
Y29089D01*
Y29182D01*
Y29276D01*
Y29369D01*
Y29462D01*
Y29555D01*
Y29648D01*
Y29741D01*
Y29834D01*
Y29927D01*
Y30020D01*
Y30113D01*
Y30206D01*
Y30299D01*
Y30392D01*
Y30485D01*
Y30578D01*
Y30671D01*
Y30764D01*
Y30857D01*
Y30950D01*
Y31043D01*
Y31137D01*
Y31229D01*
Y31323D01*
Y31416D01*
Y31509D01*
Y31602D01*
Y31695D01*
Y31788D01*
Y31881D01*
Y31974D01*
Y32067D01*
Y32160D01*
Y32253D01*
Y32346D01*
Y32439D01*
Y32532D01*
Y32625D01*
Y32718D01*
Y32811D01*
Y32904D01*
Y32997D01*
Y33090D01*
Y33183D01*
Y33277D01*
Y33369D01*
Y33463D01*
Y33556D01*
Y33649D01*
Y33742D01*
Y33835D01*
Y33928D01*
Y34021D01*
Y34114D01*
Y34207D01*
Y34300D01*
Y34393D01*
Y34486D01*
Y34579D01*
Y34672D01*
Y34765D01*
Y34858D01*
Y34951D01*
Y35044D01*
Y35137D01*
Y35230D01*
Y35323D01*
Y35416D01*
Y35509D01*
Y35603D01*
Y35696D01*
Y35789D01*
Y35882D01*
Y35975D01*
Y36068D01*
Y36161D01*
Y36254D01*
Y36347D01*
Y36440D01*
Y36533D01*
Y36626D01*
Y36719D01*
Y36812D01*
Y36905D01*
Y36998D01*
Y37091D01*
Y37184D01*
Y37277D01*
Y37370D01*
Y37463D01*
Y37556D01*
Y37650D01*
Y37743D01*
Y37836D01*
Y37929D01*
Y38022D01*
Y38115D01*
Y38208D01*
X30568D01*
Y38301D01*
X30382D01*
Y38394D01*
X30196D01*
Y38487D01*
X30009D01*
Y38580D01*
X29823D01*
Y38673D01*
X29637D01*
Y38766D01*
X29451D01*
Y38859D01*
X29172D01*
Y38952D01*
X29079D01*
Y39045D01*
X28800D01*
Y39138D01*
X28614D01*
Y39231D01*
X28056D01*
Y39324D01*
X27777D01*
Y39417D01*
X27311D01*
Y39510D01*
X24799D01*
Y39417D01*
X24520D01*
Y39510D01*
Y39603D01*
Y39696D01*
Y39790D01*
Y39883D01*
Y39976D01*
Y40069D01*
Y40162D01*
Y40255D01*
Y40348D01*
Y40441D01*
Y40534D01*
Y40627D01*
Y40720D01*
X24799D01*
Y40813D01*
X25730D01*
Y40906D01*
X26474D01*
Y40813D01*
D02*
G37*
G36*
X80998Y40720D02*
X80439D01*
Y40627D01*
X79788D01*
Y40534D01*
X79602D01*
Y40441D01*
X79416D01*
Y40348D01*
Y40255D01*
X79230D01*
Y40162D01*
X78951D01*
Y40069D01*
X78858D01*
Y39976D01*
X78764D01*
Y39883D01*
Y39790D01*
X78671D01*
Y39696D01*
Y39603D01*
X78578D01*
Y39510D01*
X78485D01*
Y39417D01*
X78392D01*
Y39324D01*
Y39231D01*
Y39138D01*
X78299D01*
Y39045D01*
Y38952D01*
X78206D01*
Y38859D01*
Y38766D01*
Y38673D01*
X78113D01*
Y38580D01*
Y38487D01*
Y38394D01*
Y38301D01*
Y38208D01*
Y38115D01*
Y38022D01*
Y37929D01*
X78020D01*
Y37836D01*
Y37743D01*
Y37650D01*
Y37556D01*
Y37463D01*
Y37370D01*
Y37277D01*
Y37184D01*
Y37091D01*
Y36998D01*
Y36905D01*
Y36812D01*
Y36719D01*
Y36626D01*
Y36533D01*
Y36440D01*
Y36347D01*
Y36254D01*
Y36161D01*
Y36068D01*
Y35975D01*
Y35882D01*
X78113D01*
Y35789D01*
Y35696D01*
Y35603D01*
Y35509D01*
Y35416D01*
Y35323D01*
X78206D01*
Y35230D01*
Y35137D01*
X78299D01*
Y35044D01*
Y34951D01*
X78392D01*
Y34858D01*
X78485D01*
Y34765D01*
X78671D01*
Y34672D01*
X78764D01*
Y34579D01*
X78858D01*
Y34486D01*
X79044D01*
Y34393D01*
X79230D01*
Y34300D01*
X79416D01*
Y34207D01*
X79788D01*
Y34114D01*
X80346D01*
Y34021D01*
X86208D01*
Y33928D01*
Y33835D01*
Y33742D01*
Y33649D01*
Y33556D01*
Y33463D01*
Y33369D01*
Y33277D01*
Y33183D01*
Y33090D01*
X86115D01*
Y32997D01*
Y32904D01*
Y32811D01*
Y32718D01*
Y32625D01*
Y32532D01*
Y32439D01*
Y32346D01*
Y32253D01*
X86022D01*
Y32160D01*
Y32067D01*
Y31974D01*
Y31881D01*
Y31788D01*
X85929D01*
Y31695D01*
Y31602D01*
Y31509D01*
X85836D01*
Y31416D01*
Y31323D01*
Y31229D01*
Y31137D01*
Y31043D01*
X85743D01*
Y30950D01*
Y30857D01*
X85557D01*
Y30764D01*
X85464D01*
Y30671D01*
Y30578D01*
X85371D01*
Y30485D01*
X85278D01*
Y30392D01*
X85092D01*
Y30299D01*
X84905D01*
Y30206D01*
X84719D01*
Y30113D01*
X84440D01*
Y30020D01*
X80346D01*
Y30113D01*
X79323D01*
Y30206D01*
X78578D01*
Y30299D01*
X78113D01*
Y30206D01*
Y30113D01*
Y30020D01*
Y29927D01*
Y29834D01*
Y29741D01*
Y29648D01*
Y29555D01*
Y29462D01*
Y29369D01*
Y29276D01*
X78671D01*
Y29182D01*
X78951D01*
Y29089D01*
X79416D01*
Y28996D01*
X79881D01*
Y28903D01*
X80439D01*
Y28810D01*
X81277D01*
Y28717D01*
X84626D01*
Y28810D01*
X85185D01*
Y28903D01*
X85371D01*
Y28996D01*
X85464D01*
Y29089D01*
X85743D01*
Y29182D01*
X85836D01*
Y29276D01*
X86115D01*
Y29369D01*
X86208D01*
Y29462D01*
Y29555D01*
X86301D01*
Y29648D01*
X86487D01*
Y29741D01*
X86580D01*
Y29834D01*
Y29927D01*
X86673D01*
Y30020D01*
Y30113D01*
X86766D01*
Y30206D01*
Y30299D01*
X86859D01*
Y30392D01*
X86952D01*
Y30485D01*
X86859D01*
Y30578D01*
X87045D01*
Y30671D01*
Y30764D01*
Y30857D01*
X87138D01*
Y30950D01*
Y31043D01*
Y31137D01*
X87231D01*
Y31229D01*
Y31323D01*
Y31416D01*
Y31509D01*
Y31602D01*
Y31695D01*
Y31788D01*
Y31881D01*
X87325D01*
Y31974D01*
Y32067D01*
Y32160D01*
Y32253D01*
Y32346D01*
Y32439D01*
Y32532D01*
X87418D01*
Y32625D01*
Y32718D01*
Y32811D01*
Y32904D01*
Y32997D01*
Y33090D01*
Y33183D01*
Y33277D01*
Y33369D01*
Y33463D01*
Y33556D01*
Y33649D01*
X87511D01*
Y33742D01*
Y33835D01*
Y33928D01*
Y34021D01*
Y34114D01*
Y34207D01*
Y34300D01*
Y34393D01*
Y34486D01*
Y34579D01*
Y34672D01*
Y34765D01*
Y34858D01*
Y34951D01*
Y35044D01*
Y35137D01*
Y35230D01*
Y35323D01*
Y35416D01*
Y35509D01*
Y35603D01*
Y35696D01*
Y35789D01*
Y35882D01*
X87418D01*
Y35975D01*
Y36068D01*
Y36161D01*
Y36254D01*
Y36347D01*
Y36440D01*
Y36533D01*
Y36626D01*
Y36719D01*
Y36812D01*
Y36905D01*
Y36998D01*
X87325D01*
Y37091D01*
Y37184D01*
Y37277D01*
Y37370D01*
Y37463D01*
Y37556D01*
X87231D01*
Y37650D01*
Y37743D01*
Y37836D01*
Y37929D01*
Y38022D01*
Y38115D01*
Y38208D01*
Y38301D01*
Y38394D01*
X87138D01*
Y38487D01*
Y38580D01*
X87045D01*
Y38673D01*
Y38766D01*
Y38859D01*
X86859D01*
Y38952D01*
X86952D01*
Y39045D01*
X86859D01*
Y39138D01*
X86766D01*
Y39231D01*
Y39324D01*
Y39417D01*
X86673D01*
Y39510D01*
X86580D01*
Y39603D01*
Y39696D01*
X86487D01*
Y39790D01*
X86394D01*
Y39883D01*
X86301D01*
Y39976D01*
X86208D01*
Y40069D01*
X86115D01*
Y40162D01*
X85929D01*
Y40255D01*
X85743D01*
Y40348D01*
X85650D01*
Y40441D01*
X85464D01*
Y40534D01*
X85185D01*
Y40627D01*
X84533D01*
Y40720D01*
X83882D01*
Y40813D01*
X80998D01*
Y40720D01*
D02*
G37*
G36*
X90767Y46396D02*
X89837D01*
Y46303D01*
X89279D01*
Y46210D01*
X88441D01*
Y46117D01*
X88162D01*
Y46023D01*
Y45930D01*
Y45837D01*
Y45744D01*
Y45651D01*
Y45558D01*
Y45465D01*
Y45372D01*
Y45279D01*
Y45186D01*
X91698D01*
Y45093D01*
X91977D01*
Y45000D01*
X92070D01*
Y44907D01*
X92163D01*
Y44814D01*
X92442D01*
Y44721D01*
Y44628D01*
X92535D01*
Y44535D01*
Y44442D01*
Y44349D01*
Y44256D01*
Y44163D01*
Y44070D01*
X92628D01*
Y43977D01*
Y43883D01*
Y43790D01*
Y43697D01*
Y43604D01*
Y43511D01*
Y43418D01*
Y43325D01*
Y43232D01*
Y43139D01*
Y43046D01*
Y42953D01*
Y42860D01*
Y42767D01*
Y42674D01*
Y42581D01*
Y42488D01*
Y42395D01*
Y42302D01*
Y42209D01*
Y42116D01*
Y42023D01*
Y41930D01*
Y41837D01*
Y41743D01*
Y41650D01*
Y41557D01*
Y41464D01*
Y41371D01*
Y41278D01*
Y41185D01*
Y41092D01*
Y40999D01*
Y40906D01*
Y40813D01*
Y40720D01*
X89185D01*
Y40627D01*
Y40534D01*
Y40441D01*
Y40348D01*
Y40255D01*
Y40162D01*
Y40069D01*
Y39976D01*
Y39883D01*
Y39790D01*
Y39696D01*
Y39603D01*
Y39510D01*
Y39417D01*
X92628D01*
Y39324D01*
Y39231D01*
Y39138D01*
Y39045D01*
Y38952D01*
Y38859D01*
Y38766D01*
Y38673D01*
Y38580D01*
Y38487D01*
Y38394D01*
Y38301D01*
Y38208D01*
Y38115D01*
Y38022D01*
Y37929D01*
Y37836D01*
Y37743D01*
Y37650D01*
Y37556D01*
Y37463D01*
Y37370D01*
Y37277D01*
Y37184D01*
Y37091D01*
Y36998D01*
Y36905D01*
Y36812D01*
Y36719D01*
Y36626D01*
Y36533D01*
Y36440D01*
Y36347D01*
Y36254D01*
Y36161D01*
Y36068D01*
Y35975D01*
Y35882D01*
Y35789D01*
Y35696D01*
Y35603D01*
Y35509D01*
Y35416D01*
Y35323D01*
Y35230D01*
Y35137D01*
Y35044D01*
Y34951D01*
Y34858D01*
Y34765D01*
Y34672D01*
Y34579D01*
Y34486D01*
Y34393D01*
Y34300D01*
Y34207D01*
Y34114D01*
Y34021D01*
Y33928D01*
Y33835D01*
Y33742D01*
Y33649D01*
Y33556D01*
Y33463D01*
Y33369D01*
Y33277D01*
Y33183D01*
Y33090D01*
Y32997D01*
Y32904D01*
Y32811D01*
Y32718D01*
Y32625D01*
Y32532D01*
Y32439D01*
Y32346D01*
Y32253D01*
Y32160D01*
Y32067D01*
Y31974D01*
Y31881D01*
Y31788D01*
Y31695D01*
Y31602D01*
Y31509D01*
Y31416D01*
Y31323D01*
Y31229D01*
Y31137D01*
Y31043D01*
Y30950D01*
Y30857D01*
Y30764D01*
Y30671D01*
Y30578D01*
Y30485D01*
Y30392D01*
Y30299D01*
Y30206D01*
Y30113D01*
Y30020D01*
Y29927D01*
Y29834D01*
Y29741D01*
Y29648D01*
Y29555D01*
Y29462D01*
Y29369D01*
Y29276D01*
Y29182D01*
Y29089D01*
Y28996D01*
Y28903D01*
Y28810D01*
X93931D01*
Y28903D01*
Y28996D01*
Y29089D01*
Y29182D01*
Y29276D01*
Y29369D01*
Y29462D01*
Y29555D01*
Y29648D01*
Y29741D01*
Y29834D01*
Y29927D01*
Y30020D01*
Y30113D01*
Y30206D01*
Y30299D01*
Y30392D01*
Y30485D01*
Y30578D01*
Y30671D01*
Y30764D01*
Y30857D01*
Y30950D01*
Y31043D01*
Y31137D01*
Y31229D01*
Y31323D01*
Y31416D01*
Y31509D01*
Y31602D01*
Y31695D01*
Y31788D01*
Y31881D01*
Y31974D01*
Y32067D01*
Y32160D01*
Y32253D01*
Y32346D01*
Y32439D01*
Y32532D01*
Y32625D01*
Y32718D01*
Y32811D01*
Y32904D01*
Y32997D01*
Y33090D01*
Y33183D01*
Y33277D01*
Y33369D01*
Y33463D01*
Y33556D01*
Y33649D01*
Y33742D01*
Y33835D01*
Y33928D01*
Y34021D01*
Y34114D01*
Y34207D01*
Y34300D01*
Y34393D01*
Y34486D01*
Y34579D01*
Y34672D01*
Y34765D01*
Y34858D01*
Y34951D01*
Y35044D01*
Y35137D01*
Y35230D01*
Y35323D01*
Y35416D01*
Y35509D01*
Y35603D01*
Y35696D01*
Y35789D01*
Y35882D01*
Y35975D01*
Y36068D01*
Y36161D01*
Y36254D01*
Y36347D01*
Y36440D01*
Y36533D01*
Y36626D01*
Y36719D01*
Y36812D01*
Y36905D01*
Y36998D01*
Y37091D01*
Y37184D01*
Y37277D01*
Y37370D01*
Y37463D01*
Y37556D01*
Y37650D01*
Y37743D01*
Y37836D01*
Y37929D01*
Y38022D01*
Y38115D01*
Y38208D01*
Y38301D01*
Y38394D01*
Y38487D01*
Y38580D01*
Y38673D01*
Y38766D01*
Y38859D01*
Y38952D01*
Y39045D01*
Y39138D01*
Y39231D01*
Y39324D01*
Y39417D01*
X94024D01*
Y39510D01*
X94303D01*
Y39603D01*
Y39696D01*
X94489D01*
Y39790D01*
X94675D01*
Y39883D01*
X94768D01*
Y39976D01*
X94954D01*
Y40069D01*
X95047D01*
Y40162D01*
X95140D01*
Y40255D01*
X95419D01*
Y40348D01*
X95605D01*
Y40441D01*
X95792D01*
Y40534D01*
Y40627D01*
X96071D01*
Y40720D01*
X93931D01*
Y40813D01*
Y40906D01*
Y40999D01*
Y41092D01*
Y41185D01*
Y41278D01*
Y41371D01*
Y41464D01*
Y41557D01*
Y41650D01*
Y41743D01*
Y41837D01*
Y41930D01*
Y42023D01*
Y42116D01*
Y42209D01*
Y42302D01*
Y42395D01*
Y42488D01*
Y42581D01*
Y42674D01*
Y42767D01*
Y42860D01*
Y42953D01*
Y43046D01*
Y43139D01*
Y43232D01*
Y43325D01*
Y43418D01*
Y43511D01*
Y43604D01*
Y43697D01*
Y43790D01*
Y43883D01*
Y43977D01*
Y44070D01*
Y44163D01*
Y44256D01*
Y44349D01*
Y44442D01*
Y44535D01*
Y44628D01*
X93838D01*
Y44721D01*
Y44814D01*
Y44907D01*
X93651D01*
Y45000D01*
X93745D01*
Y45093D01*
X93559D01*
Y45186D01*
Y45279D01*
Y45372D01*
Y45465D01*
X93466D01*
Y45558D01*
X93372D01*
Y45651D01*
Y45744D01*
X93279D01*
Y45837D01*
X93186D01*
Y45930D01*
X93093D01*
Y46023D01*
X93000D01*
Y46117D01*
X92814D01*
Y46210D01*
X92535D01*
Y46303D01*
X92349D01*
Y46396D01*
X91884D01*
Y46489D01*
X90767D01*
Y46396D01*
D02*
G37*
G36*
X99196Y51746D02*
X98963D01*
Y51630D01*
X98847D01*
Y51513D01*
Y51397D01*
X98730D01*
Y51280D01*
Y51164D01*
Y51047D01*
Y50931D01*
X98614D01*
Y50814D01*
Y50697D01*
Y50581D01*
Y50464D01*
Y50348D01*
Y50231D01*
Y50115D01*
Y49998D01*
Y49882D01*
Y49765D01*
Y49649D01*
Y49532D01*
Y49416D01*
Y49299D01*
Y49183D01*
Y49066D01*
Y48950D01*
Y48833D01*
Y48717D01*
Y48600D01*
Y48483D01*
Y48367D01*
Y48250D01*
Y48134D01*
Y48017D01*
Y47901D01*
Y47784D01*
Y47668D01*
Y47551D01*
Y47435D01*
Y47318D01*
Y47202D01*
Y47085D01*
Y46969D01*
Y46852D01*
Y46736D01*
Y46619D01*
Y46503D01*
Y46386D01*
Y46270D01*
Y46153D01*
Y46036D01*
Y45920D01*
Y45803D01*
Y45687D01*
Y45570D01*
Y45454D01*
Y45337D01*
Y45221D01*
Y45104D01*
Y44988D01*
Y44871D01*
Y44755D01*
Y44638D01*
Y44522D01*
Y44405D01*
Y44289D01*
Y44172D01*
Y44056D01*
Y43939D01*
Y43823D01*
Y43706D01*
Y43589D01*
Y43473D01*
Y43356D01*
Y43240D01*
Y43123D01*
Y43007D01*
Y42890D01*
Y42774D01*
Y42657D01*
Y42541D01*
Y42424D01*
Y42308D01*
Y42191D01*
Y42075D01*
Y41958D01*
Y41842D01*
Y41725D01*
Y41609D01*
Y41492D01*
Y41376D01*
X98730D01*
Y41259D01*
Y41143D01*
Y41026D01*
X98847D01*
Y40909D01*
Y40793D01*
X98963D01*
Y40677D01*
X99080D01*
Y40560D01*
X99196D01*
Y40443D01*
X99546D01*
Y40327D01*
X118888D01*
Y40443D01*
Y40560D01*
Y40677D01*
Y40793D01*
Y40909D01*
Y41026D01*
Y41143D01*
Y41259D01*
Y41376D01*
Y41492D01*
Y41609D01*
Y41725D01*
Y41842D01*
Y41958D01*
Y42075D01*
Y42191D01*
Y42308D01*
Y42424D01*
Y42541D01*
Y42657D01*
Y42774D01*
Y42890D01*
Y43007D01*
Y43123D01*
Y43240D01*
Y43356D01*
Y43473D01*
Y43589D01*
Y43706D01*
Y43823D01*
Y43939D01*
Y44056D01*
Y44172D01*
Y44289D01*
Y44405D01*
Y44522D01*
Y44638D01*
Y44755D01*
Y44871D01*
Y44988D01*
Y45104D01*
Y45221D01*
Y45337D01*
Y45454D01*
Y45570D01*
Y45687D01*
Y45803D01*
Y45920D01*
Y46036D01*
Y46153D01*
Y46270D01*
Y46386D01*
Y46503D01*
Y46619D01*
Y46736D01*
Y46852D01*
Y46969D01*
Y47085D01*
Y47202D01*
Y47318D01*
Y47435D01*
Y47551D01*
Y47668D01*
Y47784D01*
Y47901D01*
Y48017D01*
Y48134D01*
Y48250D01*
Y48367D01*
Y48483D01*
Y48600D01*
Y48717D01*
Y48833D01*
Y48950D01*
Y49066D01*
Y49183D01*
Y49299D01*
Y49416D01*
Y49532D01*
Y49649D01*
Y49765D01*
Y49882D01*
Y49998D01*
Y50115D01*
Y50231D01*
Y50348D01*
Y50464D01*
Y50581D01*
Y50697D01*
Y50814D01*
Y50931D01*
Y51047D01*
Y51164D01*
Y51280D01*
Y51397D01*
Y51513D01*
Y51630D01*
Y51746D01*
Y51863D01*
X99196D01*
Y51746D01*
D02*
G37*
G36*
X120403D02*
Y51630D01*
Y51513D01*
Y51397D01*
Y51280D01*
Y51164D01*
Y51047D01*
Y50931D01*
Y50814D01*
Y50697D01*
Y50581D01*
Y50464D01*
Y50348D01*
Y50231D01*
Y50115D01*
Y49998D01*
Y49882D01*
Y49765D01*
Y49649D01*
Y49532D01*
Y49416D01*
Y49299D01*
Y49183D01*
Y49066D01*
Y48950D01*
Y48833D01*
Y48717D01*
Y48600D01*
Y48483D01*
Y48367D01*
Y48250D01*
Y48134D01*
Y48017D01*
Y47901D01*
Y47784D01*
Y47668D01*
Y47551D01*
Y47435D01*
Y47318D01*
Y47202D01*
Y47085D01*
Y46969D01*
Y46852D01*
Y46736D01*
Y46619D01*
Y46503D01*
Y46386D01*
Y46270D01*
Y46153D01*
Y46036D01*
Y45920D01*
Y45803D01*
Y45687D01*
Y45570D01*
Y45454D01*
Y45337D01*
Y45221D01*
Y45104D01*
Y44988D01*
Y44871D01*
Y44755D01*
Y44638D01*
Y44522D01*
Y44405D01*
Y44289D01*
Y44172D01*
Y44056D01*
Y43939D01*
Y43823D01*
Y43706D01*
Y43589D01*
Y43473D01*
Y43356D01*
Y43240D01*
Y43123D01*
Y43007D01*
Y42890D01*
Y42774D01*
Y42657D01*
Y42541D01*
Y42424D01*
Y42308D01*
Y42191D01*
Y42075D01*
Y41958D01*
Y41842D01*
Y41725D01*
Y41609D01*
Y41492D01*
Y41376D01*
Y41259D01*
Y41143D01*
Y41026D01*
Y40909D01*
Y40793D01*
Y40677D01*
Y40560D01*
Y40443D01*
Y40327D01*
X124365D01*
Y40443D01*
Y40560D01*
Y40677D01*
Y40793D01*
Y40909D01*
Y41026D01*
Y41143D01*
Y41259D01*
Y41376D01*
Y41492D01*
Y41609D01*
Y41725D01*
Y41842D01*
Y41958D01*
Y42075D01*
Y42191D01*
Y42308D01*
Y42424D01*
Y42541D01*
Y42657D01*
Y42774D01*
Y42890D01*
Y43007D01*
Y43123D01*
Y43240D01*
Y43356D01*
Y43473D01*
Y43589D01*
Y43706D01*
Y43823D01*
Y43939D01*
Y44056D01*
Y44172D01*
Y44289D01*
Y44405D01*
Y44522D01*
X127861D01*
Y44405D01*
Y44289D01*
Y44172D01*
Y44056D01*
Y43939D01*
Y43823D01*
Y43706D01*
Y43589D01*
Y43473D01*
Y43356D01*
Y43240D01*
Y43123D01*
Y43007D01*
Y42890D01*
Y42774D01*
Y42657D01*
Y42541D01*
Y42424D01*
Y42308D01*
Y42191D01*
Y42075D01*
Y41958D01*
Y41842D01*
Y41725D01*
Y41609D01*
Y41492D01*
Y41376D01*
Y41259D01*
Y41143D01*
Y41026D01*
Y40909D01*
Y40793D01*
Y40677D01*
Y40560D01*
Y40443D01*
Y40327D01*
X135901D01*
Y40443D01*
Y40560D01*
X136017D01*
Y40677D01*
Y40793D01*
Y40909D01*
X136134D01*
Y41026D01*
Y41143D01*
X136250D01*
Y41259D01*
Y41376D01*
Y41492D01*
X136367D01*
Y41609D01*
Y41725D01*
X136483D01*
Y41842D01*
Y41958D01*
X140562D01*
Y41842D01*
Y41725D01*
X140678D01*
Y41609D01*
Y41492D01*
Y41376D01*
Y41259D01*
X140795D01*
Y41143D01*
X140911D01*
Y41026D01*
Y40909D01*
Y40793D01*
X141028D01*
Y40677D01*
Y40560D01*
Y40443D01*
X141144D01*
Y40327D01*
X156991D01*
Y40443D01*
X157108D01*
Y40560D01*
X157224D01*
Y40677D01*
X157341D01*
Y40793D01*
X157457D01*
Y40909D01*
Y41026D01*
X157574D01*
Y41143D01*
X157457D01*
Y41259D01*
X157341D01*
Y41376D01*
X157224D01*
Y41492D01*
X157108D01*
Y41609D01*
X156991D01*
Y41725D01*
X156875D01*
Y41842D01*
Y41958D01*
X156642D01*
Y42075D01*
X156525D01*
Y42191D01*
X156409D01*
Y42308D01*
X156292D01*
Y42424D01*
X156176D01*
Y42541D01*
X156059D01*
Y42657D01*
X155943D01*
Y42774D01*
X155826D01*
Y42890D01*
Y43007D01*
X155593D01*
Y43123D01*
Y43240D01*
X155360D01*
Y43356D01*
X155244D01*
Y43473D01*
X155127D01*
Y43589D01*
X155010D01*
Y43706D01*
X154894D01*
Y43823D01*
X154777D01*
Y43939D01*
X154661D01*
Y44056D01*
X154544D01*
Y44172D01*
Y44289D01*
X154311D01*
Y44405D01*
X154195D01*
Y44522D01*
Y44638D01*
X153962D01*
Y44755D01*
X153845D01*
Y44871D01*
X153729D01*
Y44988D01*
X153612D01*
Y45104D01*
X153496D01*
Y45221D01*
X153379D01*
Y45337D01*
X153263D01*
Y45454D01*
Y45570D01*
X153030D01*
Y45687D01*
X152913D01*
Y45803D01*
Y45920D01*
X152680D01*
Y46036D01*
X152564D01*
Y46153D01*
Y46270D01*
X152330D01*
Y46386D01*
X152214D01*
Y46503D01*
Y46619D01*
X151981D01*
Y46736D01*
X151864D01*
Y46852D01*
Y46969D01*
X151631D01*
Y47085D01*
X151515D01*
Y47202D01*
X151398D01*
Y47318D01*
X151282D01*
Y47435D01*
Y47551D01*
X151049D01*
Y47668D01*
Y47784D01*
X150932D01*
Y47901D01*
X150816D01*
Y48017D01*
X150583D01*
Y48134D01*
Y48250D01*
X150466D01*
Y48367D01*
X150233D01*
Y48483D01*
Y48600D01*
X150000D01*
Y48717D01*
Y48833D01*
X153146D01*
Y48717D01*
X153263D01*
Y48600D01*
X153379D01*
Y48483D01*
X153496D01*
Y48367D01*
X153612D01*
Y48250D01*
X153729D01*
Y48134D01*
X153845D01*
Y48017D01*
X153962D01*
Y47901D01*
X154078D01*
Y47784D01*
X154195D01*
Y47668D01*
X154311D01*
Y47551D01*
X154428D01*
Y47435D01*
X154544D01*
Y47318D01*
X154661D01*
Y47202D01*
X154777D01*
Y47085D01*
X154894D01*
Y46969D01*
X155010D01*
Y46852D01*
X155127D01*
Y46736D01*
X155244D01*
Y46619D01*
X155360D01*
Y46503D01*
X155477D01*
Y46386D01*
X155593D01*
Y46270D01*
X155710D01*
Y46153D01*
X155826D01*
Y46036D01*
X155943D01*
Y45920D01*
X156059D01*
Y45803D01*
X156176D01*
Y45687D01*
X156292D01*
Y45570D01*
X156409D01*
Y45454D01*
X156525D01*
Y45337D01*
X156642D01*
Y45221D01*
X156758D01*
Y45104D01*
X156875D01*
Y44988D01*
X156991D01*
Y44871D01*
X157108D01*
Y44755D01*
X157224D01*
Y44638D01*
X157341D01*
Y44522D01*
X157457D01*
Y44405D01*
X157574D01*
Y44289D01*
X157691D01*
Y44172D01*
X157807D01*
Y44056D01*
X157923D01*
Y43939D01*
X158040D01*
Y43823D01*
X158157D01*
Y43706D01*
X158273D01*
Y43589D01*
X158390D01*
Y43473D01*
X158506D01*
Y43356D01*
X158623D01*
Y43240D01*
X158739D01*
Y43123D01*
X158856D01*
Y43007D01*
X158972D01*
Y42890D01*
X159089D01*
Y42774D01*
X159205D01*
Y42657D01*
X159322D01*
Y42774D01*
X159438D01*
Y42890D01*
X159555D01*
Y43007D01*
X159671D01*
Y43123D01*
X159788D01*
Y43240D01*
X159904D01*
Y43356D01*
X160254D01*
Y43240D01*
X160137D01*
Y43123D01*
Y43007D01*
Y42890D01*
Y42774D01*
Y42657D01*
Y42541D01*
Y42424D01*
Y42308D01*
Y42191D01*
Y42075D01*
Y41958D01*
Y41842D01*
Y41725D01*
Y41609D01*
Y41492D01*
Y41376D01*
Y41259D01*
Y41143D01*
Y41026D01*
Y40909D01*
Y40793D01*
Y40677D01*
Y40560D01*
Y40443D01*
Y40327D01*
X170741D01*
Y40443D01*
Y40560D01*
Y40677D01*
Y40793D01*
Y40909D01*
Y41026D01*
Y41143D01*
Y41259D01*
Y41376D01*
Y41492D01*
Y41609D01*
Y41725D01*
Y41842D01*
Y41958D01*
Y42075D01*
Y42191D01*
Y42308D01*
Y42424D01*
Y42541D01*
Y42657D01*
Y42774D01*
Y42890D01*
Y43007D01*
Y43123D01*
Y43240D01*
Y43356D01*
Y43473D01*
Y43589D01*
X170624D01*
Y43706D01*
X170508D01*
Y43823D01*
X170391D01*
Y43939D01*
X170275D01*
Y44056D01*
X170158D01*
Y44172D01*
X170042D01*
Y44289D01*
X169925D01*
Y44405D01*
X169809D01*
Y44522D01*
Y44638D01*
X169576D01*
Y44755D01*
X169459D01*
Y44871D01*
X169343D01*
Y44988D01*
X169226D01*
Y45104D01*
X169110D01*
Y45221D01*
X168993D01*
Y45337D01*
X168877D01*
Y45454D01*
X168760D01*
Y45570D01*
X168644D01*
Y45687D01*
X168527D01*
Y45803D01*
X168411D01*
Y45920D01*
X168294D01*
Y46036D01*
X168177D01*
Y46153D01*
Y46270D01*
X167945D01*
Y46386D01*
X167828D01*
Y46503D01*
X167711D01*
Y46619D01*
X167595D01*
Y46736D01*
X167478D01*
Y46852D01*
Y46969D01*
X167245D01*
Y47085D01*
X167129D01*
Y47202D01*
X167012D01*
Y47318D01*
X166896D01*
Y47435D01*
X166779D01*
Y47551D01*
X166663D01*
Y47668D01*
X166546D01*
Y47784D01*
X166430D01*
Y47901D01*
X166313D01*
Y48017D01*
X166197D01*
Y48134D01*
X166080D01*
Y48250D01*
X165964D01*
Y48367D01*
X165847D01*
Y48483D01*
Y48600D01*
X165614D01*
Y48717D01*
Y48833D01*
X170741D01*
Y48950D01*
Y49066D01*
Y49183D01*
Y49299D01*
Y49416D01*
Y49532D01*
Y49649D01*
Y49765D01*
Y49882D01*
Y49998D01*
Y50115D01*
Y50231D01*
Y50348D01*
Y50464D01*
Y50581D01*
Y50697D01*
Y50814D01*
Y50931D01*
Y51047D01*
Y51164D01*
Y51280D01*
Y51397D01*
Y51513D01*
Y51630D01*
Y51746D01*
Y51863D01*
X158739D01*
Y51746D01*
X158623D01*
Y51630D01*
X158506D01*
Y51513D01*
X158390D01*
Y51397D01*
Y51280D01*
X158506D01*
Y51164D01*
X158623D01*
Y51047D01*
Y50931D01*
X158856D01*
Y50814D01*
Y50697D01*
X159089D01*
Y50581D01*
X159205D01*
Y50464D01*
Y50348D01*
X159322D01*
Y50231D01*
X159555D01*
Y50115D01*
Y49998D01*
X159788D01*
Y49882D01*
X159904D01*
Y49765D01*
Y49649D01*
X160137D01*
Y49532D01*
X160254D01*
Y49416D01*
Y49299D01*
X160487D01*
Y49183D01*
Y49066D01*
X160603D01*
Y48950D01*
X160837D01*
Y48833D01*
Y48717D01*
X160953D01*
Y48600D01*
X161186D01*
Y48483D01*
Y48367D01*
X161419D01*
Y48250D01*
X161536D01*
Y48134D01*
Y48017D01*
X161769D01*
Y47901D01*
X161885D01*
Y47784D01*
Y47668D01*
X162002D01*
Y47551D01*
X162235D01*
Y47435D01*
Y47318D01*
X162351D01*
Y47202D01*
X162584D01*
Y47085D01*
Y46969D01*
X162818D01*
Y46852D01*
X162934D01*
Y46736D01*
Y46619D01*
X163167D01*
Y46503D01*
Y46386D01*
X163284D01*
Y46270D01*
X163400D01*
Y46153D01*
X163517D01*
Y46036D01*
X163633D01*
Y45920D01*
X163866D01*
Y45803D01*
Y45687D01*
X163983D01*
Y45570D01*
X164216D01*
Y45454D01*
Y45337D01*
X164332D01*
Y45221D01*
X164565D01*
Y45104D01*
Y44988D01*
X164682D01*
Y44871D01*
X164798D01*
Y44755D01*
X164915D01*
Y44638D01*
X165031D01*
Y44522D01*
X165148D01*
Y44405D01*
X165264D01*
Y44289D01*
X165498D01*
Y44172D01*
Y44056D01*
X165614D01*
Y43939D01*
X165731D01*
Y43823D01*
X165847D01*
Y43706D01*
X165964D01*
Y43589D01*
Y43473D01*
X162818D01*
Y43589D01*
X162701D01*
Y43706D01*
X162584D01*
Y43823D01*
X162468D01*
Y43939D01*
X162351D01*
Y44056D01*
X162235D01*
Y44172D01*
X162118D01*
Y44289D01*
X162002D01*
Y44405D01*
X161769D01*
Y44522D01*
Y44638D01*
X161652D01*
Y44755D01*
X161536D01*
Y44871D01*
X161419D01*
Y44988D01*
X161303D01*
Y45104D01*
X161186D01*
Y45221D01*
X161070D01*
Y45337D01*
X160953D01*
Y45454D01*
X160837D01*
Y45570D01*
X160720D01*
Y45687D01*
X160603D01*
Y45803D01*
X160487D01*
Y45920D01*
X160371D01*
Y46036D01*
X160137D01*
Y46153D01*
Y46270D01*
X160021D01*
Y46386D01*
X159904D01*
Y46503D01*
X159788D01*
Y46619D01*
X159671D01*
Y46736D01*
X159555D01*
Y46852D01*
X159438D01*
Y46969D01*
X159322D01*
Y47085D01*
X159205D01*
Y47202D01*
X159089D01*
Y47318D01*
X158972D01*
Y47435D01*
X158856D01*
Y47551D01*
X158739D01*
Y47668D01*
X158623D01*
Y47784D01*
X158506D01*
Y47901D01*
X158390D01*
Y48017D01*
X158273D01*
Y48134D01*
X158157D01*
Y48250D01*
X158040D01*
Y48367D01*
X157923D01*
Y48483D01*
X157807D01*
Y48600D01*
X157691D01*
Y48717D01*
X157457D01*
Y48833D01*
Y48950D01*
X157341D01*
Y49066D01*
X157224D01*
Y49183D01*
X157108D01*
Y49299D01*
X156991D01*
Y49416D01*
X156875D01*
Y49532D01*
X156758D01*
Y49649D01*
X156525D01*
Y49532D01*
X156409D01*
Y49416D01*
X156292D01*
Y49299D01*
X156176D01*
Y49183D01*
X156059D01*
Y49066D01*
X155943D01*
Y48950D01*
X155826D01*
Y49066D01*
Y49183D01*
Y49299D01*
Y49416D01*
Y49532D01*
Y49649D01*
Y49765D01*
Y49882D01*
Y49998D01*
Y50115D01*
Y50231D01*
Y50348D01*
Y50464D01*
Y50581D01*
Y50697D01*
Y50814D01*
Y50931D01*
Y51047D01*
Y51164D01*
Y51280D01*
Y51397D01*
Y51513D01*
Y51630D01*
Y51746D01*
Y51863D01*
X145223D01*
Y51746D01*
Y51630D01*
Y51513D01*
Y51397D01*
Y51280D01*
Y51164D01*
Y51047D01*
Y50931D01*
Y50814D01*
Y50697D01*
Y50581D01*
Y50464D01*
Y50348D01*
Y50231D01*
Y50115D01*
Y49998D01*
Y49882D01*
Y49765D01*
Y49649D01*
Y49532D01*
Y49416D01*
Y49299D01*
Y49183D01*
Y49066D01*
Y48950D01*
Y48833D01*
X145339D01*
Y48717D01*
Y48600D01*
X145572D01*
Y48483D01*
X145689D01*
Y48367D01*
X145805D01*
Y48250D01*
X145922D01*
Y48134D01*
X146038D01*
Y48017D01*
X146155D01*
Y47901D01*
X146271D01*
Y47784D01*
Y47668D01*
X146504D01*
Y47551D01*
X146621D01*
Y47435D01*
Y47318D01*
X146854D01*
Y47202D01*
X146970D01*
Y47085D01*
Y46969D01*
X147204D01*
Y46852D01*
X147320D01*
Y46736D01*
X147436D01*
Y46619D01*
X147553D01*
Y46503D01*
X147670D01*
Y46386D01*
Y46270D01*
X147786D01*
Y46153D01*
X147903D01*
Y46036D01*
X148019D01*
Y45920D01*
X148252D01*
Y45803D01*
Y45687D01*
X148485D01*
Y45570D01*
X148602D01*
Y45454D01*
Y45337D01*
X148718D01*
Y45221D01*
X148951D01*
Y45104D01*
Y44988D01*
X149068D01*
Y44871D01*
X149301D01*
Y44755D01*
Y44638D01*
X149417D01*
Y44522D01*
X149650D01*
Y44405D01*
Y44289D01*
X149767D01*
Y44172D01*
X150000D01*
Y44056D01*
Y43939D01*
X150233D01*
Y43823D01*
Y43706D01*
X150350D01*
Y43589D01*
Y43473D01*
X145223D01*
Y43356D01*
Y43240D01*
Y43123D01*
Y43007D01*
Y42890D01*
Y42774D01*
Y42657D01*
Y42541D01*
Y42424D01*
Y42308D01*
Y42191D01*
Y42075D01*
Y41958D01*
Y41842D01*
Y41725D01*
Y41609D01*
Y41492D01*
Y41376D01*
Y41259D01*
Y41143D01*
Y41026D01*
Y40909D01*
Y40793D01*
Y40677D01*
X144990D01*
Y40793D01*
Y40909D01*
Y41026D01*
X144873D01*
Y41143D01*
Y41259D01*
X144756D01*
Y41376D01*
Y41492D01*
Y41609D01*
X144640D01*
Y41725D01*
Y41842D01*
Y41958D01*
X144523D01*
Y42075D01*
Y42191D01*
X144407D01*
Y42308D01*
Y42424D01*
X144290D01*
Y42541D01*
Y42657D01*
Y42774D01*
X144174D01*
Y42890D01*
Y43007D01*
X144057D01*
Y43123D01*
Y43240D01*
X143941D01*
Y43356D01*
Y43473D01*
Y43589D01*
X143824D01*
Y43706D01*
Y43823D01*
X143708D01*
Y43939D01*
Y44056D01*
X143591D01*
Y44172D01*
Y44289D01*
Y44405D01*
X143475D01*
Y44522D01*
Y44638D01*
X143358D01*
Y44755D01*
Y44871D01*
X143242D01*
Y44988D01*
Y45104D01*
Y45221D01*
Y45337D01*
X143125D01*
Y45454D01*
X143009D01*
Y45570D01*
Y45687D01*
Y45803D01*
Y45920D01*
X142892D01*
Y46036D01*
X142776D01*
Y46153D01*
Y46270D01*
X142659D01*
Y46386D01*
Y46503D01*
Y46619D01*
Y46736D01*
X142543D01*
Y46852D01*
Y46969D01*
X142426D01*
Y47085D01*
Y47202D01*
X142309D01*
Y47318D01*
Y47435D01*
Y47551D01*
X142193D01*
Y47668D01*
X142077D01*
Y47784D01*
Y47901D01*
X141960D01*
Y48017D01*
Y48134D01*
Y48250D01*
X141843D01*
Y48367D01*
Y48483D01*
Y48600D01*
X141727D01*
Y48717D01*
Y48833D01*
X141610D01*
Y48950D01*
Y49066D01*
Y49183D01*
X141494D01*
Y49299D01*
Y49416D01*
X141377D01*
Y49532D01*
Y49649D01*
X141261D01*
Y49765D01*
Y49882D01*
Y49998D01*
X141144D01*
Y50115D01*
Y50231D01*
X141028D01*
Y50348D01*
Y50464D01*
X140911D01*
Y50581D01*
Y50697D01*
Y50814D01*
X140795D01*
Y50931D01*
Y51047D01*
X140678D01*
Y51164D01*
Y51280D01*
X140562D01*
Y51397D01*
Y51513D01*
Y51630D01*
X140445D01*
Y51746D01*
Y51863D01*
X136483D01*
Y51746D01*
X136367D01*
Y51630D01*
X136483D01*
Y51513D01*
X136367D01*
Y51397D01*
Y51280D01*
X136250D01*
Y51164D01*
X136134D01*
Y51047D01*
Y50931D01*
X136017D01*
Y50814D01*
Y50697D01*
Y50581D01*
X135901D01*
Y50464D01*
Y50348D01*
Y50231D01*
X135784D01*
Y50115D01*
Y49998D01*
Y49882D01*
X135668D01*
Y49765D01*
Y49649D01*
X135551D01*
Y49532D01*
Y49416D01*
X135435D01*
Y49299D01*
Y49183D01*
Y49066D01*
Y48950D01*
X135318D01*
Y48833D01*
Y48717D01*
X135202D01*
Y48600D01*
X135085D01*
Y48483D01*
Y48367D01*
Y48250D01*
X134969D01*
Y48134D01*
Y48017D01*
X134852D01*
Y47901D01*
Y47784D01*
X134736D01*
Y47668D01*
Y47551D01*
Y47435D01*
X134619D01*
Y47318D01*
Y47202D01*
X134502D01*
Y47085D01*
Y46969D01*
X134386D01*
Y46852D01*
Y46736D01*
Y46619D01*
X134269D01*
Y46503D01*
Y46386D01*
X134153D01*
Y46270D01*
Y46153D01*
X134036D01*
Y46036D01*
Y45920D01*
Y45803D01*
X133920D01*
Y45687D01*
Y45570D01*
X133803D01*
Y45454D01*
Y45337D01*
Y45221D01*
Y45104D01*
X133687D01*
Y44988D01*
Y44871D01*
X133570D01*
Y44755D01*
Y44638D01*
X133454D01*
Y44522D01*
X133337D01*
Y44405D01*
Y44289D01*
Y44172D01*
X133221D01*
Y44056D01*
Y43939D01*
X133104D01*
Y43823D01*
Y43706D01*
Y43589D01*
Y43473D01*
X132988D01*
Y43356D01*
X132871D01*
Y43240D01*
Y43123D01*
Y43007D01*
X132755D01*
Y42890D01*
Y42774D01*
Y42657D01*
X132638D01*
Y42541D01*
Y42424D01*
X132522D01*
Y42308D01*
Y42191D01*
Y42075D01*
X132405D01*
Y41958D01*
Y41842D01*
X132289D01*
Y41725D01*
Y41609D01*
X132172D01*
Y41492D01*
Y41376D01*
X132055D01*
Y41259D01*
X132172D01*
Y41143D01*
X132055D01*
Y41026D01*
X131939D01*
Y40909D01*
Y40793D01*
X131823D01*
Y40677D01*
X131706D01*
Y40793D01*
Y40909D01*
Y41026D01*
Y41143D01*
Y41259D01*
Y41376D01*
Y41492D01*
Y41609D01*
Y41725D01*
Y41842D01*
Y41958D01*
Y42075D01*
Y42191D01*
Y42308D01*
Y42424D01*
Y42541D01*
Y42657D01*
Y42774D01*
Y42890D01*
Y43007D01*
Y43123D01*
Y43240D01*
Y43356D01*
Y43473D01*
Y43589D01*
Y43706D01*
Y43823D01*
Y43939D01*
Y44056D01*
Y44172D01*
Y44289D01*
Y44405D01*
Y44522D01*
Y44638D01*
Y44755D01*
Y44871D01*
Y44988D01*
Y45104D01*
Y45221D01*
Y45337D01*
Y45454D01*
Y45570D01*
Y45687D01*
Y45803D01*
Y45920D01*
Y46036D01*
Y46153D01*
Y46270D01*
Y46386D01*
Y46503D01*
Y46619D01*
Y46736D01*
Y46852D01*
Y46969D01*
Y47085D01*
Y47202D01*
Y47318D01*
Y47435D01*
Y47551D01*
Y47668D01*
Y47784D01*
Y47901D01*
Y48017D01*
Y48134D01*
Y48250D01*
Y48367D01*
Y48483D01*
Y48600D01*
Y48717D01*
Y48833D01*
Y48950D01*
Y49066D01*
Y49183D01*
Y49299D01*
Y49416D01*
Y49532D01*
Y49649D01*
Y49765D01*
Y49882D01*
Y49998D01*
Y50115D01*
Y50231D01*
Y50348D01*
Y50464D01*
Y50581D01*
Y50697D01*
Y50814D01*
Y50931D01*
Y51047D01*
Y51164D01*
Y51280D01*
Y51397D01*
Y51513D01*
Y51630D01*
Y51746D01*
Y51863D01*
X127861D01*
Y51746D01*
Y51630D01*
Y51513D01*
Y51397D01*
Y51280D01*
Y51164D01*
Y51047D01*
Y50931D01*
Y50814D01*
Y50697D01*
Y50581D01*
Y50464D01*
Y50348D01*
Y50231D01*
Y50115D01*
Y49998D01*
Y49882D01*
Y49765D01*
Y49649D01*
Y49532D01*
Y49416D01*
Y49299D01*
Y49183D01*
Y49066D01*
Y48950D01*
Y48833D01*
Y48717D01*
Y48600D01*
Y48483D01*
Y48367D01*
Y48250D01*
Y48134D01*
Y48017D01*
Y47901D01*
X124365D01*
Y48017D01*
Y48134D01*
Y48250D01*
Y48367D01*
Y48483D01*
Y48600D01*
Y48717D01*
Y48833D01*
Y48950D01*
Y49066D01*
Y49183D01*
Y49299D01*
Y49416D01*
Y49532D01*
Y49649D01*
Y49765D01*
Y49882D01*
Y49998D01*
Y50115D01*
Y50231D01*
Y50348D01*
Y50464D01*
Y50581D01*
Y50697D01*
Y50814D01*
Y50931D01*
Y51047D01*
Y51164D01*
Y51280D01*
Y51397D01*
Y51513D01*
Y51630D01*
Y51746D01*
Y51863D01*
X120403D01*
Y51746D01*
D02*
G37*
G36*
X171673D02*
Y51630D01*
Y51513D01*
Y51397D01*
Y51280D01*
Y51164D01*
Y51047D01*
Y50931D01*
Y50814D01*
Y50697D01*
Y50581D01*
Y50464D01*
Y50348D01*
Y50231D01*
Y50115D01*
Y49998D01*
Y49882D01*
Y49765D01*
Y49649D01*
Y49532D01*
Y49416D01*
Y49299D01*
Y49183D01*
Y49066D01*
Y48950D01*
Y48833D01*
Y48717D01*
Y48600D01*
Y48483D01*
Y48367D01*
Y48250D01*
Y48134D01*
Y48017D01*
Y47901D01*
Y47784D01*
Y47668D01*
Y47551D01*
Y47435D01*
Y47318D01*
Y47202D01*
Y47085D01*
Y46969D01*
Y46852D01*
Y46736D01*
Y46619D01*
Y46503D01*
Y46386D01*
Y46270D01*
Y46153D01*
Y46036D01*
Y45920D01*
Y45803D01*
Y45687D01*
Y45570D01*
Y45454D01*
Y45337D01*
Y45221D01*
Y45104D01*
Y44988D01*
Y44871D01*
Y44755D01*
Y44638D01*
Y44522D01*
X171790D01*
Y44405D01*
Y44289D01*
Y44172D01*
Y44056D01*
Y43939D01*
Y43823D01*
Y43706D01*
X171906D01*
Y43589D01*
Y43473D01*
X172023D01*
Y43356D01*
Y43240D01*
Y43123D01*
X172139D01*
Y43007D01*
Y42890D01*
X172256D01*
Y42774D01*
Y42657D01*
X172372D01*
Y42541D01*
Y42424D01*
X172489D01*
Y42308D01*
Y42191D01*
X172605D01*
Y42075D01*
X172722D01*
Y41958D01*
X172838D01*
Y41842D01*
X172955D01*
Y41725D01*
X173072D01*
Y41609D01*
X173188D01*
Y41492D01*
X173304D01*
Y41376D01*
X173421D01*
Y41259D01*
X173654D01*
Y41143D01*
X173771D01*
Y41026D01*
X174004D01*
Y40909D01*
X174237D01*
Y40793D01*
X174470D01*
Y40677D01*
X174819D01*
Y40560D01*
X175169D01*
Y40443D01*
X175518D01*
Y40327D01*
X176800D01*
Y40210D01*
X177965D01*
Y40327D01*
X179131D01*
Y40443D01*
X179480D01*
Y40560D01*
X179830D01*
Y40677D01*
X180179D01*
Y40793D01*
X180412D01*
Y40909D01*
X180645D01*
Y41026D01*
X180878D01*
Y41143D01*
X180995D01*
Y41259D01*
X181228D01*
Y41376D01*
X181344D01*
Y41492D01*
X181461D01*
Y41609D01*
X181578D01*
Y41725D01*
X181694D01*
Y41842D01*
X181811D01*
Y41958D01*
X181927D01*
Y42075D01*
X182044D01*
Y42191D01*
Y42308D01*
X182160D01*
Y42424D01*
X182277D01*
Y42541D01*
X182393D01*
Y42657D01*
X182277D01*
Y42774D01*
X182393D01*
Y42890D01*
X182510D01*
Y43007D01*
X182626D01*
Y43123D01*
Y43240D01*
Y43356D01*
X182743D01*
Y43473D01*
Y43589D01*
Y43706D01*
Y43823D01*
Y43939D01*
X182859D01*
Y44056D01*
Y44172D01*
Y44289D01*
Y44405D01*
X182976D01*
Y44522D01*
Y44638D01*
Y44755D01*
Y44871D01*
Y44988D01*
Y45104D01*
Y45221D01*
Y45337D01*
Y45454D01*
Y45570D01*
Y45687D01*
Y45803D01*
Y45920D01*
Y46036D01*
Y46153D01*
Y46270D01*
Y46386D01*
Y46503D01*
Y46619D01*
Y46736D01*
Y46852D01*
Y46969D01*
Y47085D01*
Y47202D01*
Y47318D01*
Y47435D01*
Y47551D01*
Y47668D01*
Y47784D01*
Y47901D01*
Y48017D01*
Y48134D01*
Y48250D01*
Y48367D01*
Y48483D01*
Y48600D01*
Y48717D01*
Y48833D01*
Y48950D01*
Y49066D01*
Y49183D01*
Y49299D01*
Y49416D01*
Y49532D01*
Y49649D01*
Y49765D01*
Y49882D01*
Y49998D01*
Y50115D01*
Y50231D01*
Y50348D01*
Y50464D01*
Y50581D01*
Y50697D01*
Y50814D01*
Y50931D01*
Y51047D01*
Y51164D01*
Y51280D01*
Y51397D01*
Y51513D01*
Y51630D01*
Y51746D01*
Y51863D01*
X179131D01*
Y51746D01*
Y51630D01*
Y51513D01*
Y51397D01*
Y51280D01*
Y51164D01*
Y51047D01*
Y50931D01*
Y50814D01*
Y50697D01*
Y50581D01*
Y50464D01*
Y50348D01*
Y50231D01*
Y50115D01*
Y49998D01*
Y49882D01*
Y49765D01*
Y49649D01*
Y49532D01*
Y49416D01*
Y49299D01*
Y49183D01*
Y49066D01*
Y48950D01*
Y48833D01*
Y48717D01*
Y48600D01*
Y48483D01*
Y48367D01*
Y48250D01*
Y48134D01*
Y48017D01*
Y47901D01*
Y47784D01*
Y47668D01*
Y47551D01*
Y47435D01*
Y47318D01*
Y47202D01*
Y47085D01*
Y46969D01*
Y46852D01*
Y46736D01*
Y46619D01*
Y46503D01*
Y46386D01*
Y46270D01*
Y46153D01*
Y46036D01*
Y45920D01*
Y45803D01*
Y45687D01*
Y45570D01*
Y45454D01*
Y45337D01*
Y45221D01*
X179014D01*
Y45104D01*
Y44988D01*
Y44871D01*
Y44755D01*
X178898D01*
Y44638D01*
Y44522D01*
X178781D01*
Y44405D01*
Y44289D01*
X178665D01*
Y44172D01*
X178548D01*
Y44056D01*
X178431D01*
Y43939D01*
X178198D01*
Y43823D01*
X177965D01*
Y43706D01*
X177732D01*
Y43589D01*
X176800D01*
Y43706D01*
X176567D01*
Y43823D01*
X176334D01*
Y43939D01*
X176218D01*
Y44056D01*
X175985D01*
Y44172D01*
Y44289D01*
X175868D01*
Y44405D01*
X175751D01*
Y44522D01*
Y44638D01*
X175635D01*
Y44755D01*
Y44871D01*
Y44988D01*
Y45104D01*
Y45221D01*
X175518D01*
Y45337D01*
Y45454D01*
Y45570D01*
Y45687D01*
Y45803D01*
Y45920D01*
Y46036D01*
Y46153D01*
Y46270D01*
Y46386D01*
Y46503D01*
Y46619D01*
Y46736D01*
Y46852D01*
Y46969D01*
Y47085D01*
Y47202D01*
Y47318D01*
Y47435D01*
Y47551D01*
Y47668D01*
Y47784D01*
Y47901D01*
Y48017D01*
Y48134D01*
Y48250D01*
Y48367D01*
Y48483D01*
Y48600D01*
Y48717D01*
Y48833D01*
Y48950D01*
Y49066D01*
Y49183D01*
Y49299D01*
Y49416D01*
Y49532D01*
Y49649D01*
Y49765D01*
Y49882D01*
Y49998D01*
Y50115D01*
Y50231D01*
Y50348D01*
Y50464D01*
Y50581D01*
Y50697D01*
Y50814D01*
Y50931D01*
Y51047D01*
Y51164D01*
Y51280D01*
Y51397D01*
Y51513D01*
Y51630D01*
Y51746D01*
Y51863D01*
X171673D01*
Y51746D01*
D02*
G37*
G36*
X183908D02*
Y51630D01*
Y51513D01*
Y51397D01*
Y51280D01*
Y51164D01*
Y51047D01*
Y50931D01*
Y50814D01*
Y50697D01*
Y50581D01*
Y50464D01*
Y50348D01*
Y50231D01*
Y50115D01*
Y49998D01*
Y49882D01*
Y49765D01*
Y49649D01*
Y49532D01*
Y49416D01*
Y49299D01*
Y49183D01*
Y49066D01*
Y48950D01*
Y48833D01*
Y48717D01*
Y48600D01*
Y48483D01*
Y48367D01*
Y48250D01*
Y48134D01*
Y48017D01*
Y47901D01*
Y47784D01*
Y47668D01*
Y47551D01*
Y47435D01*
Y47318D01*
Y47202D01*
Y47085D01*
Y46969D01*
Y46852D01*
Y46736D01*
Y46619D01*
Y46503D01*
Y46386D01*
Y46270D01*
Y46153D01*
Y46036D01*
Y45920D01*
Y45803D01*
Y45687D01*
Y45570D01*
Y45454D01*
Y45337D01*
Y45221D01*
Y45104D01*
Y44988D01*
Y44871D01*
Y44755D01*
Y44638D01*
Y44522D01*
Y44405D01*
Y44289D01*
Y44172D01*
Y44056D01*
Y43939D01*
Y43823D01*
Y43706D01*
Y43589D01*
Y43473D01*
Y43356D01*
Y43240D01*
Y43123D01*
Y43007D01*
Y42890D01*
Y42774D01*
Y42657D01*
Y42541D01*
Y42424D01*
Y42308D01*
Y42191D01*
Y42075D01*
Y41958D01*
Y41842D01*
Y41725D01*
Y41609D01*
Y41492D01*
Y41376D01*
Y41259D01*
Y41143D01*
Y41026D01*
Y40909D01*
Y40793D01*
Y40677D01*
Y40560D01*
Y40443D01*
Y40327D01*
X187753D01*
Y40443D01*
Y40560D01*
Y40677D01*
Y40793D01*
Y40909D01*
Y41026D01*
Y41143D01*
Y41259D01*
Y41376D01*
Y41492D01*
Y41609D01*
Y41725D01*
Y41842D01*
Y41958D01*
Y42075D01*
Y42191D01*
Y42308D01*
Y42424D01*
Y42541D01*
Y42657D01*
Y42774D01*
Y42890D01*
Y43007D01*
Y43123D01*
Y43240D01*
Y43356D01*
Y43473D01*
Y43589D01*
Y43706D01*
Y43823D01*
Y43939D01*
Y44056D01*
Y44172D01*
Y44289D01*
Y44405D01*
Y44522D01*
X191366D01*
Y44405D01*
Y44289D01*
Y44172D01*
Y44056D01*
Y43939D01*
Y43823D01*
Y43706D01*
Y43589D01*
Y43473D01*
Y43356D01*
Y43240D01*
Y43123D01*
Y43007D01*
Y42890D01*
Y42774D01*
Y42657D01*
Y42541D01*
Y42424D01*
Y42308D01*
Y42191D01*
Y42075D01*
Y41958D01*
Y41842D01*
Y41725D01*
Y41609D01*
Y41492D01*
Y41376D01*
Y41259D01*
Y41143D01*
Y41026D01*
Y40909D01*
Y40793D01*
Y40677D01*
Y40560D01*
Y40443D01*
Y40327D01*
X195094D01*
Y40443D01*
Y40560D01*
Y40677D01*
Y40793D01*
Y40909D01*
Y41026D01*
Y41143D01*
Y41259D01*
Y41376D01*
Y41492D01*
Y41609D01*
Y41725D01*
Y41842D01*
Y41958D01*
Y42075D01*
Y42191D01*
Y42308D01*
Y42424D01*
Y42541D01*
Y42657D01*
Y42774D01*
Y42890D01*
Y43007D01*
Y43123D01*
Y43240D01*
Y43356D01*
Y43473D01*
Y43589D01*
Y43706D01*
Y43823D01*
Y43939D01*
Y44056D01*
Y44172D01*
Y44289D01*
Y44405D01*
Y44522D01*
Y44638D01*
Y44755D01*
Y44871D01*
Y44988D01*
Y45104D01*
Y45221D01*
Y45337D01*
Y45454D01*
Y45570D01*
Y45687D01*
Y45803D01*
Y45920D01*
Y46036D01*
Y46153D01*
Y46270D01*
Y46386D01*
Y46503D01*
Y46619D01*
Y46736D01*
Y46852D01*
Y46969D01*
Y47085D01*
Y47202D01*
Y47318D01*
Y47435D01*
Y47551D01*
Y47668D01*
Y47784D01*
Y47901D01*
Y48017D01*
Y48134D01*
Y48250D01*
Y48367D01*
Y48483D01*
Y48600D01*
Y48717D01*
Y48833D01*
Y48950D01*
Y49066D01*
Y49183D01*
Y49299D01*
Y49416D01*
Y49532D01*
Y49649D01*
Y49765D01*
Y49882D01*
Y49998D01*
Y50115D01*
Y50231D01*
Y50348D01*
Y50464D01*
Y50581D01*
Y50697D01*
Y50814D01*
Y50931D01*
Y51047D01*
Y51164D01*
Y51280D01*
Y51397D01*
Y51513D01*
Y51630D01*
Y51746D01*
Y51863D01*
X191366D01*
Y51746D01*
Y51630D01*
Y51513D01*
Y51397D01*
Y51280D01*
Y51164D01*
Y51047D01*
Y50931D01*
Y50814D01*
Y50697D01*
Y50581D01*
Y50464D01*
Y50348D01*
Y50231D01*
Y50115D01*
Y49998D01*
Y49882D01*
Y49765D01*
Y49649D01*
Y49532D01*
Y49416D01*
Y49299D01*
Y49183D01*
Y49066D01*
Y48950D01*
Y48833D01*
Y48717D01*
Y48600D01*
Y48483D01*
Y48367D01*
Y48250D01*
Y48134D01*
Y48017D01*
Y47901D01*
X187753D01*
Y48017D01*
Y48134D01*
Y48250D01*
Y48367D01*
Y48483D01*
Y48600D01*
Y48717D01*
Y48833D01*
Y48950D01*
Y49066D01*
Y49183D01*
Y49299D01*
Y49416D01*
Y49532D01*
Y49649D01*
Y49765D01*
Y49882D01*
Y49998D01*
Y50115D01*
Y50231D01*
Y50348D01*
Y50464D01*
Y50581D01*
Y50697D01*
Y50814D01*
Y50931D01*
Y51047D01*
Y51164D01*
Y51280D01*
Y51397D01*
Y51513D01*
Y51630D01*
Y51746D01*
Y51863D01*
X183908D01*
Y51746D01*
D02*
G37*
G36*
X189704Y75996D02*
X189760D01*
Y75967D01*
X189817D01*
Y75939D01*
X189874D01*
Y75911D01*
X189902D01*
Y75883D01*
X189930D01*
Y75854D01*
X189958D01*
Y75826D01*
X189987D01*
Y75798D01*
Y75770D01*
X190015D01*
Y75741D01*
Y75713D01*
X190043D01*
Y75685D01*
X190071D01*
Y75657D01*
Y75628D01*
Y75600D01*
X190100D01*
Y75572D01*
Y75544D01*
Y75515D01*
X190128D01*
Y75487D01*
Y75459D01*
Y75431D01*
Y75402D01*
X190184D01*
Y75374D01*
Y75346D01*
Y75318D01*
Y75289D01*
X190213D01*
Y75261D01*
Y75233D01*
Y75205D01*
Y75176D01*
X190241D01*
Y75148D01*
Y75120D01*
Y75092D01*
Y75063D01*
X190297D01*
Y75035D01*
Y75007D01*
Y74979D01*
Y74950D01*
X190326D01*
Y74922D01*
Y74894D01*
Y74866D01*
Y74837D01*
X190354D01*
Y74809D01*
Y74781D01*
Y74753D01*
Y74724D01*
X190382D01*
Y74696D01*
X190410D01*
Y74668D01*
Y74640D01*
Y74611D01*
Y74583D01*
X190439D01*
Y74555D01*
Y74527D01*
Y74498D01*
Y74470D01*
X190467D01*
Y74442D01*
Y74414D01*
Y74385D01*
X190495D01*
Y74357D01*
Y74329D01*
X190523D01*
Y74301D01*
Y74272D01*
Y74244D01*
Y74216D01*
X190552D01*
Y74188D01*
Y74159D01*
Y74131D01*
Y74103D01*
X190580D01*
Y74075D01*
X190608D01*
Y74046D01*
Y74018D01*
Y73990D01*
X190636D01*
Y73962D01*
Y73933D01*
Y73905D01*
Y73877D01*
X190665D01*
Y73849D01*
Y73820D01*
Y73792D01*
Y73764D01*
X190693D01*
Y73736D01*
X190721D01*
Y73707D01*
Y73679D01*
Y73651D01*
Y73623D01*
X190749D01*
Y73594D01*
Y73566D01*
Y73538D01*
X190778D01*
Y73510D01*
Y73481D01*
Y73453D01*
Y73425D01*
Y73397D01*
X190806D01*
Y73368D01*
X190834D01*
Y73340D01*
Y73312D01*
Y73284D01*
Y73255D01*
X190862D01*
Y73227D01*
Y73199D01*
Y73171D01*
Y73142D01*
X190891D01*
Y73114D01*
Y73086D01*
Y73058D01*
X190919D01*
Y73029D01*
X190947D01*
Y73001D01*
Y72973D01*
Y72945D01*
Y72916D01*
X190975D01*
Y72888D01*
Y72860D01*
Y72832D01*
Y72803D01*
X191004D01*
Y72775D01*
Y72747D01*
Y72719D01*
Y72690D01*
X191032D01*
Y72662D01*
X191060D01*
Y72634D01*
Y72606D01*
Y72577D01*
X191088D01*
Y72549D01*
Y72521D01*
Y72493D01*
Y72464D01*
X191117D01*
Y72436D01*
Y72408D01*
Y72380D01*
Y72351D01*
X191145D01*
Y72323D01*
X191173D01*
Y72295D01*
Y72267D01*
Y72238D01*
Y72210D01*
Y72182D01*
X191201D01*
Y72154D01*
Y72125D01*
Y72097D01*
Y72069D01*
Y72041D01*
X191230D01*
Y72012D01*
Y71984D01*
Y71956D01*
X191258D01*
Y71928D01*
Y71899D01*
Y71871D01*
Y71843D01*
Y71815D01*
Y71786D01*
X191286D01*
Y71758D01*
Y71730D01*
Y71702D01*
Y71673D01*
Y71645D01*
Y71617D01*
Y71588D01*
Y71560D01*
Y71532D01*
Y71504D01*
Y71475D01*
Y71447D01*
X191314D01*
Y71419D01*
Y71391D01*
Y71363D01*
Y71334D01*
Y71306D01*
Y71278D01*
Y71250D01*
Y71221D01*
Y71193D01*
Y71165D01*
Y71136D01*
Y71108D01*
Y71080D01*
Y71052D01*
Y71023D01*
Y70995D01*
Y70967D01*
Y70939D01*
X191286D01*
Y70911D01*
Y70882D01*
Y70854D01*
Y70826D01*
Y70797D01*
Y70769D01*
Y70741D01*
Y70713D01*
Y70684D01*
Y70656D01*
Y70628D01*
X191258D01*
Y70600D01*
Y70572D01*
Y70543D01*
Y70515D01*
Y70487D01*
Y70459D01*
X191230D01*
Y70430D01*
Y70402D01*
X191201D01*
Y70374D01*
Y70345D01*
Y70317D01*
Y70289D01*
X191173D01*
Y70261D01*
Y70232D01*
Y70204D01*
Y70176D01*
X191145D01*
Y70148D01*
Y70120D01*
X191117D01*
Y70091D01*
Y70063D01*
X191088D01*
Y70035D01*
Y70007D01*
Y69978D01*
X191060D01*
Y69950D01*
Y69922D01*
Y69893D01*
X191032D01*
Y69865D01*
Y69837D01*
X190975D01*
Y69809D01*
Y69780D01*
Y69752D01*
X190947D01*
Y69724D01*
Y69696D01*
X190919D01*
Y69668D01*
Y69639D01*
X190862D01*
Y69611D01*
Y69583D01*
X190834D01*
Y69555D01*
Y69526D01*
X190806D01*
Y69498D01*
X190778D01*
Y69470D01*
X190749D01*
Y69441D01*
Y69413D01*
X190721D01*
Y69385D01*
X190693D01*
Y69357D01*
X190665D01*
Y69328D01*
X190636D01*
Y69300D01*
Y69272D01*
X190608D01*
Y69244D01*
Y69216D01*
X190552D01*
Y69187D01*
X190523D01*
Y69159D01*
Y69131D01*
X190467D01*
Y69103D01*
Y69074D01*
X190495D01*
Y69046D01*
X190552D01*
Y69074D01*
X190580D01*
Y69103D01*
X190608D01*
Y69131D01*
X190665D01*
Y69159D01*
Y69187D01*
X190693D01*
Y69216D01*
X190749D01*
Y69244D01*
X190778D01*
Y69272D01*
X190806D01*
Y69300D01*
X190862D01*
Y69328D01*
X190891D01*
Y69357D01*
X190947D01*
Y69385D01*
X190975D01*
Y69413D01*
X191004D01*
Y69441D01*
X191060D01*
Y69470D01*
X191117D01*
Y69498D01*
Y69526D01*
X191173D01*
Y69555D01*
X191230D01*
Y69583D01*
X191314D01*
Y69611D01*
X191343D01*
Y69639D01*
X191399D01*
Y69668D01*
X191484D01*
Y69696D01*
X191569D01*
Y69724D01*
X191625D01*
Y69752D01*
X191710D01*
Y69780D01*
X191851D01*
Y69809D01*
X191964D01*
Y69837D01*
X192077D01*
Y69865D01*
X192388D01*
Y69893D01*
X192840D01*
Y69865D01*
X193207D01*
Y69837D01*
X193320D01*
Y69809D01*
X193461D01*
Y69780D01*
X193603D01*
Y69752D01*
X193744D01*
Y69724D01*
X193772D01*
Y69696D01*
X193885D01*
Y69668D01*
X193998D01*
Y69639D01*
X194111D01*
Y69611D01*
X194139D01*
Y69583D01*
X194252D01*
Y69555D01*
X194366D01*
Y69526D01*
X194450D01*
Y69498D01*
X194478D01*
Y69470D01*
X194591D01*
Y69441D01*
X194704D01*
Y69413D01*
X194817D01*
Y69385D01*
X194846D01*
Y69357D01*
X194959D01*
Y69328D01*
X195072D01*
Y69300D01*
X195157D01*
Y69272D01*
X195213D01*
Y69244D01*
X195326D01*
Y69216D01*
X195411D01*
Y69187D01*
X195467D01*
Y69159D01*
X195552D01*
Y69131D01*
X195693D01*
Y69103D01*
X195778D01*
Y69074D01*
X195806D01*
Y69046D01*
X195919D01*
Y69018D01*
X196032D01*
Y68989D01*
X196145D01*
Y68961D01*
X196174D01*
Y68933D01*
X196286D01*
Y68905D01*
X196399D01*
Y68876D01*
X196484D01*
Y68848D01*
X196512D01*
Y68820D01*
X196654D01*
Y68792D01*
X196739D01*
Y68763D01*
X196852D01*
Y68735D01*
X196880D01*
Y68707D01*
X196965D01*
Y68679D01*
X197078D01*
Y68650D01*
X197134D01*
Y68622D01*
X197162D01*
Y68594D01*
X197219D01*
Y68566D01*
X197275D01*
Y68537D01*
Y68509D01*
X197303D01*
Y68481D01*
X197332D01*
Y68453D01*
X197360D01*
Y68424D01*
X197388D01*
Y68396D01*
X197417D01*
Y68368D01*
Y68340D01*
X197445D01*
Y68311D01*
Y68283D01*
Y68255D01*
Y68227D01*
Y68198D01*
Y68170D01*
Y68142D01*
X197501D01*
Y68114D01*
Y68085D01*
Y68057D01*
Y68029D01*
Y68001D01*
Y67972D01*
Y67944D01*
X197445D01*
Y67916D01*
Y67888D01*
Y67859D01*
Y67831D01*
X197417D01*
Y67803D01*
Y67775D01*
X197388D01*
Y67746D01*
X197360D01*
Y67718D01*
Y67690D01*
X197332D01*
Y67662D01*
X197303D01*
Y67633D01*
X197275D01*
Y67605D01*
X197247D01*
Y67577D01*
X197219D01*
Y67549D01*
X197191D01*
Y67520D01*
X197162D01*
Y67492D01*
X197106D01*
Y67464D01*
X197078D01*
Y67436D01*
X197049D01*
Y67407D01*
X197021D01*
Y67379D01*
X196965D01*
Y67351D01*
X196908D01*
Y67323D01*
X196880D01*
Y67294D01*
X196852D01*
Y67266D01*
X196795D01*
Y67238D01*
X196767D01*
Y67210D01*
X196739D01*
Y67181D01*
X196682D01*
Y67153D01*
X196654D01*
Y67125D01*
X196597D01*
Y67097D01*
X196569D01*
Y67068D01*
X196541D01*
Y67040D01*
X196484D01*
Y67012D01*
X196428D01*
Y66984D01*
Y66955D01*
X196371D01*
Y66927D01*
X196315D01*
Y66899D01*
X196286D01*
Y66871D01*
X196258D01*
Y66842D01*
X196230D01*
Y66814D01*
X196174D01*
Y66786D01*
X196145D01*
Y66758D01*
X196117D01*
Y66729D01*
X196061D01*
Y66701D01*
X196004D01*
Y66673D01*
Y66645D01*
X195948D01*
Y66616D01*
X195891D01*
Y66588D01*
X195863D01*
Y66560D01*
X195835D01*
Y66532D01*
X195778D01*
Y66503D01*
X195750D01*
Y66475D01*
X195693D01*
Y66447D01*
X195665D01*
Y66419D01*
X195637D01*
Y66390D01*
X195580D01*
Y66362D01*
X195552D01*
Y66334D01*
X195524D01*
Y66306D01*
X195467D01*
Y66277D01*
X195439D01*
Y66249D01*
X195411D01*
Y66221D01*
X195354D01*
Y66193D01*
X195298D01*
Y66164D01*
X195270D01*
Y66136D01*
X195241D01*
Y66108D01*
X195185D01*
Y66080D01*
X195157D01*
Y66051D01*
X195100D01*
Y66023D01*
X195072D01*
Y65995D01*
X195044D01*
Y65967D01*
X194987D01*
Y65938D01*
X194959D01*
Y65910D01*
X194931D01*
Y65882D01*
X194874D01*
Y65854D01*
X194846D01*
Y65825D01*
X194789D01*
Y65797D01*
X194761D01*
Y65769D01*
X194733D01*
Y65741D01*
X194676D01*
Y65712D01*
X194648D01*
Y65684D01*
X194620D01*
Y65656D01*
X194563D01*
Y65628D01*
X194535D01*
Y65599D01*
X194507D01*
Y65571D01*
X194450D01*
Y65543D01*
X194422D01*
Y65515D01*
X194366D01*
Y65486D01*
X194337D01*
Y65458D01*
X194281D01*
Y65430D01*
X194224D01*
Y65402D01*
X194168D01*
Y65373D01*
X194139D01*
Y65345D01*
X194083D01*
Y65317D01*
X194026D01*
Y65289D01*
X193970D01*
Y65260D01*
X193942D01*
Y65232D01*
X193857D01*
Y65204D01*
X193800D01*
Y65176D01*
X193716D01*
Y65147D01*
X193687D01*
Y65119D01*
X193603D01*
Y65091D01*
X193518D01*
Y65063D01*
X193433D01*
Y65034D01*
X193377D01*
Y65006D01*
X193264D01*
Y64978D01*
X193122D01*
Y64950D01*
X193094D01*
Y64921D01*
X192925D01*
Y64893D01*
X192586D01*
Y64865D01*
X192303D01*
Y64893D01*
X191964D01*
Y64921D01*
X191823D01*
Y64950D01*
X191795D01*
Y64978D01*
X191653D01*
Y65006D01*
X191569D01*
Y65034D01*
X191512D01*
Y65063D01*
X191427D01*
Y65091D01*
X191314D01*
Y65119D01*
X191230D01*
Y65147D01*
Y65176D01*
X191117D01*
Y65147D01*
Y65119D01*
Y65091D01*
X191173D01*
Y65063D01*
X191201D01*
Y65034D01*
X191258D01*
Y65006D01*
X191314D01*
Y64978D01*
X191371D01*
Y64950D01*
Y64921D01*
X191427D01*
Y64893D01*
X191484D01*
Y64865D01*
X191512D01*
Y64837D01*
X191540D01*
Y64808D01*
X191597D01*
Y64780D01*
X191625D01*
Y64752D01*
X191653D01*
Y64724D01*
X191710D01*
Y64695D01*
X191738D01*
Y64667D01*
X191766D01*
Y64639D01*
X191795D01*
Y64611D01*
X191823D01*
Y64582D01*
X191851D01*
Y64554D01*
X191879D01*
Y64526D01*
X191908D01*
Y64498D01*
X191936D01*
Y64469D01*
X191964D01*
Y64441D01*
X191992D01*
Y64413D01*
X192021D01*
Y64385D01*
X192049D01*
Y64356D01*
Y64328D01*
X192077D01*
Y64300D01*
X192105D01*
Y64271D01*
X192134D01*
Y64243D01*
X192162D01*
Y64215D01*
Y64187D01*
Y64158D01*
X192218D01*
Y64130D01*
Y64102D01*
X192247D01*
Y64074D01*
Y64046D01*
X192275D01*
Y64017D01*
Y63989D01*
X192303D01*
Y63961D01*
X192331D01*
Y63933D01*
Y63904D01*
X192360D01*
Y63876D01*
Y63848D01*
X192388D01*
Y63819D01*
Y63791D01*
Y63763D01*
X192416D01*
Y63735D01*
X192444D01*
Y63706D01*
Y63678D01*
X192473D01*
Y63650D01*
Y63622D01*
Y63594D01*
X192501D01*
Y63565D01*
Y63537D01*
Y63509D01*
Y63481D01*
X192529D01*
Y63452D01*
X192557D01*
Y63424D01*
Y63396D01*
Y63367D01*
X192586D01*
Y63339D01*
Y63311D01*
Y63283D01*
Y63254D01*
X192614D01*
Y63226D01*
Y63198D01*
Y63170D01*
Y63142D01*
Y63113D01*
Y63085D01*
X192642D01*
Y63057D01*
X192670D01*
Y63029D01*
Y63000D01*
Y62972D01*
Y62944D01*
Y62915D01*
Y62887D01*
X192699D01*
Y62859D01*
Y62831D01*
Y62802D01*
Y62774D01*
Y62746D01*
Y62718D01*
Y62690D01*
X192727D01*
Y62661D01*
Y62633D01*
Y62605D01*
Y62577D01*
Y62548D01*
Y62520D01*
Y62492D01*
Y62463D01*
Y62435D01*
Y62407D01*
Y62379D01*
Y62350D01*
Y62322D01*
X192755D01*
Y62294D01*
Y62266D01*
Y62238D01*
Y62209D01*
Y62181D01*
Y62153D01*
Y62125D01*
Y62096D01*
Y62068D01*
Y62040D01*
Y62011D01*
Y61983D01*
Y61955D01*
Y61927D01*
Y61898D01*
Y61870D01*
Y61842D01*
Y61814D01*
Y61786D01*
Y61757D01*
Y61729D01*
Y61701D01*
Y61673D01*
Y61644D01*
Y61616D01*
Y61588D01*
Y61559D01*
Y61531D01*
Y61503D01*
Y61475D01*
Y61446D01*
Y61418D01*
Y61390D01*
Y61362D01*
Y61333D01*
Y61305D01*
X192783D01*
Y61277D01*
Y61249D01*
Y61220D01*
Y61192D01*
Y61164D01*
Y61136D01*
Y61107D01*
Y61079D01*
Y61051D01*
Y61023D01*
Y60994D01*
Y60966D01*
Y60938D01*
Y60910D01*
Y60881D01*
Y60853D01*
Y60825D01*
Y60797D01*
Y60768D01*
Y60740D01*
Y60712D01*
Y60684D01*
Y60655D01*
Y60627D01*
Y60599D01*
Y60571D01*
Y60542D01*
Y60514D01*
Y60486D01*
Y60458D01*
Y60429D01*
Y60401D01*
Y60373D01*
Y60345D01*
Y60316D01*
Y60288D01*
Y60260D01*
Y60232D01*
Y60203D01*
Y60175D01*
Y60147D01*
Y60119D01*
Y60090D01*
Y60062D01*
Y60034D01*
Y60006D01*
Y59977D01*
Y59949D01*
Y59921D01*
Y59893D01*
Y59864D01*
Y59836D01*
Y59808D01*
Y59780D01*
Y59751D01*
Y59723D01*
Y59695D01*
Y59667D01*
Y59638D01*
Y59610D01*
Y59582D01*
Y59554D01*
Y59525D01*
Y59497D01*
Y59469D01*
Y59441D01*
Y59412D01*
Y59384D01*
Y59356D01*
Y59328D01*
Y59299D01*
Y59271D01*
Y59243D01*
Y59215D01*
Y59186D01*
Y59158D01*
Y59130D01*
Y59102D01*
Y59073D01*
Y59045D01*
Y59017D01*
Y58989D01*
Y58960D01*
Y58932D01*
Y58904D01*
Y58876D01*
Y58847D01*
Y58819D01*
Y58791D01*
X192755D01*
Y58763D01*
Y58734D01*
Y58706D01*
X192727D01*
Y58678D01*
Y58650D01*
Y58621D01*
Y58593D01*
X192699D01*
Y58565D01*
Y58537D01*
Y58508D01*
Y58480D01*
X192670D01*
Y58452D01*
Y58424D01*
X192642D01*
Y58395D01*
X192614D01*
Y58367D01*
X192557D01*
Y58339D01*
Y58311D01*
X192501D01*
Y58282D01*
X192444D01*
Y58254D01*
X192388D01*
Y58226D01*
X192360D01*
Y58198D01*
X192190D01*
Y58169D01*
Y58141D01*
X192077D01*
Y58169D01*
Y58198D01*
X191908D01*
Y58226D01*
X191879D01*
Y58254D01*
X191823D01*
Y58282D01*
X191766D01*
Y58311D01*
X191710D01*
Y58339D01*
X191682D01*
Y58367D01*
X191653D01*
Y58395D01*
X191597D01*
Y58424D01*
X191540D01*
Y58452D01*
Y58480D01*
X191484D01*
Y58508D01*
X191427D01*
Y58537D01*
X191399D01*
Y58565D01*
X191371D01*
Y58593D01*
X191314D01*
Y58621D01*
X191286D01*
Y58650D01*
X191230D01*
Y58678D01*
Y58706D01*
X191173D01*
Y58734D01*
X191117D01*
Y58763D01*
X191088D01*
Y58791D01*
X191060D01*
Y58819D01*
X191004D01*
Y58847D01*
X190975D01*
Y58876D01*
X190947D01*
Y58904D01*
X190891D01*
Y58932D01*
X190862D01*
Y58960D01*
X190806D01*
Y58989D01*
Y59017D01*
X190749D01*
Y59045D01*
X190693D01*
Y59073D01*
X190665D01*
Y59102D01*
X190636D01*
Y59130D01*
X190608D01*
Y59158D01*
X190552D01*
Y59186D01*
X190495D01*
Y59215D01*
Y59243D01*
X190439D01*
Y59271D01*
X190382D01*
Y59299D01*
X190354D01*
Y59328D01*
X190326D01*
Y59356D01*
X190297D01*
Y59384D01*
X190241D01*
Y59412D01*
X190213D01*
Y59441D01*
X190184D01*
Y59469D01*
X190128D01*
Y59497D01*
X190100D01*
Y59525D01*
X190043D01*
Y59554D01*
X190015D01*
Y59582D01*
X189958D01*
Y59610D01*
X189930D01*
Y59638D01*
X189902D01*
Y59667D01*
X189874D01*
Y59695D01*
X189817D01*
Y59723D01*
X189760D01*
Y59751D01*
Y59780D01*
X189704D01*
Y59808D01*
X189676D01*
Y59836D01*
X189619D01*
Y59864D01*
X189591D01*
Y59893D01*
X189563D01*
Y59921D01*
X189506D01*
Y59949D01*
X189450D01*
Y59977D01*
Y60006D01*
X189393D01*
Y60034D01*
X189337D01*
Y60062D01*
X189309D01*
Y60090D01*
X189280D01*
Y60119D01*
X189252D01*
Y60147D01*
X189196D01*
Y60175D01*
X189167D01*
Y60203D01*
X189139D01*
Y60232D01*
X189083D01*
Y60260D01*
X189026D01*
Y60288D01*
Y60316D01*
X188970D01*
Y60345D01*
X188941D01*
Y60373D01*
X188885D01*
Y60401D01*
Y60429D01*
X188828D01*
Y60458D01*
X188800D01*
Y60486D01*
X188772D01*
Y60514D01*
X188743D01*
Y60542D01*
X188715D01*
Y60571D01*
X188687D01*
Y60599D01*
X188659D01*
Y60627D01*
X188630D01*
Y60655D01*
X188602D01*
Y60684D01*
X188574D01*
Y60712D01*
X188546D01*
Y60740D01*
X188517D01*
Y60768D01*
X188489D01*
Y60797D01*
X188461D01*
Y60825D01*
X188433D01*
Y60853D01*
X188405D01*
Y60881D01*
X188376D01*
Y60910D01*
X188348D01*
Y60938D01*
X188320D01*
Y60966D01*
X188292D01*
Y60994D01*
Y61023D01*
X188263D01*
Y61051D01*
X188235D01*
Y61079D01*
X188207D01*
Y61107D01*
X188179D01*
Y61136D01*
Y61164D01*
X188150D01*
Y61192D01*
Y61220D01*
X188122D01*
Y61249D01*
X188094D01*
Y61277D01*
X188066D01*
Y61305D01*
Y61333D01*
X188037D01*
Y61362D01*
X188009D01*
Y61390D01*
Y61418D01*
X187981D01*
Y61446D01*
X187952D01*
Y61475D01*
Y61503D01*
Y61531D01*
X187924D01*
Y61559D01*
Y61588D01*
X187896D01*
Y61616D01*
X187868D01*
Y61644D01*
Y61673D01*
X187839D01*
Y61701D01*
Y61729D01*
Y61757D01*
X187811D01*
Y61786D01*
Y61814D01*
Y61842D01*
X187783D01*
Y61870D01*
Y61898D01*
X187755D01*
Y61927D01*
Y61955D01*
X187726D01*
Y61983D01*
Y62011D01*
Y62040D01*
Y62068D01*
X187698D01*
Y62096D01*
Y62125D01*
Y62153D01*
Y62181D01*
X187670D01*
Y62209D01*
X187642D01*
Y62238D01*
Y62266D01*
Y62294D01*
Y62322D01*
Y62350D01*
Y62379D01*
Y62407D01*
X187613D01*
Y62435D01*
Y62463D01*
Y62492D01*
Y62520D01*
Y62548D01*
Y62577D01*
Y62605D01*
Y62633D01*
Y62661D01*
Y62690D01*
Y62718D01*
Y62746D01*
Y62774D01*
Y62802D01*
Y62831D01*
Y62859D01*
Y62887D01*
Y62915D01*
Y62944D01*
Y62972D01*
Y63000D01*
Y63029D01*
Y63057D01*
Y63085D01*
Y63113D01*
Y63142D01*
Y63170D01*
Y63198D01*
Y63226D01*
Y63254D01*
Y63283D01*
Y63311D01*
Y63339D01*
Y63367D01*
X187529D01*
Y63339D01*
Y63311D01*
Y63283D01*
Y63254D01*
Y63226D01*
Y63198D01*
X187501D01*
Y63170D01*
Y63142D01*
Y63113D01*
Y63085D01*
X187472D01*
Y63057D01*
Y63029D01*
Y63000D01*
X187444D01*
Y62972D01*
Y62944D01*
X187416D01*
Y62915D01*
Y62887D01*
Y62859D01*
Y62831D01*
X187387D01*
Y62802D01*
Y62774D01*
Y62746D01*
Y62718D01*
X187359D01*
Y62690D01*
X187331D01*
Y62661D01*
Y62633D01*
Y62605D01*
X187303D01*
Y62577D01*
Y62548D01*
Y62520D01*
X187275D01*
Y62492D01*
Y62463D01*
Y62435D01*
X187218D01*
Y62407D01*
Y62379D01*
X187190D01*
Y62350D01*
Y62322D01*
X187161D01*
Y62294D01*
Y62266D01*
X187133D01*
Y62238D01*
X187105D01*
Y62209D01*
Y62181D01*
X187077D01*
Y62153D01*
X187048D01*
Y62125D01*
Y62096D01*
X187020D01*
Y62068D01*
X186992D01*
Y62040D01*
Y62011D01*
X186964D01*
Y61983D01*
X186935D01*
Y61955D01*
X186907D01*
Y61927D01*
X186879D01*
Y61898D01*
X186851D01*
Y61870D01*
X186822D01*
Y61842D01*
Y61814D01*
X186794D01*
Y61786D01*
X186766D01*
Y61757D01*
X186738D01*
Y61729D01*
X186681D01*
Y61701D01*
X186653D01*
Y61673D01*
X186625D01*
Y61644D01*
X186596D01*
Y61616D01*
X186568D01*
Y61588D01*
X186540D01*
Y61559D01*
X186512D01*
Y61531D01*
X186455D01*
Y61503D01*
X186427D01*
Y61475D01*
X186399D01*
Y61446D01*
X186370D01*
Y61418D01*
X186314D01*
Y61390D01*
X186257D01*
Y61362D01*
X186229D01*
Y61333D01*
X186201D01*
Y61305D01*
X186144D01*
Y61277D01*
X186116D01*
Y61249D01*
X186060D01*
Y61220D01*
X186003D01*
Y61192D01*
X185947D01*
Y61164D01*
X185918D01*
Y61136D01*
X185862D01*
Y61107D01*
X185777D01*
Y61079D01*
X185721D01*
Y61051D01*
X185692D01*
Y61023D01*
X185608D01*
Y60994D01*
X185523D01*
Y60966D01*
X185466D01*
Y60938D01*
X185410D01*
Y60910D01*
X185325D01*
Y60881D01*
X185240D01*
Y60853D01*
X185127D01*
Y60825D01*
X185099D01*
Y60797D01*
X184986D01*
Y60768D01*
X184873D01*
Y60740D01*
X184788D01*
Y60712D01*
X184760D01*
Y60684D01*
X184647D01*
Y60655D01*
X184534D01*
Y60627D01*
X184506D01*
Y60599D01*
X184421D01*
Y60571D01*
X184280D01*
Y60542D01*
X184195D01*
Y60514D01*
X184139D01*
Y60486D01*
X184054D01*
Y60458D01*
X183941D01*
Y60429D01*
X183856D01*
Y60401D01*
X183800D01*
Y60373D01*
X183715D01*
Y60345D01*
X183602D01*
Y60316D01*
X183517D01*
Y60288D01*
X183461D01*
Y60260D01*
X183376D01*
Y60232D01*
X183263D01*
Y60203D01*
X183178D01*
Y60175D01*
X183122D01*
Y60147D01*
X183037D01*
Y60119D01*
X182924D01*
Y60090D01*
X182839D01*
Y60062D01*
X182782D01*
Y60034D01*
X182669D01*
Y60006D01*
X182556D01*
Y59977D01*
X182528D01*
Y59949D01*
X182443D01*
Y59921D01*
X182331D01*
Y59893D01*
X182218D01*
Y59864D01*
X182189D01*
Y59836D01*
X182048D01*
Y59808D01*
X181652D01*
Y59836D01*
X181596D01*
Y59864D01*
X181568D01*
Y59893D01*
X181511D01*
Y59921D01*
X181455D01*
Y59949D01*
X181427D01*
Y59977D01*
Y60006D01*
X181398D01*
Y60034D01*
X181370D01*
Y60062D01*
X181342D01*
Y60090D01*
Y60119D01*
X181314D01*
Y60147D01*
Y60175D01*
X181285D01*
Y60203D01*
X181257D01*
Y60232D01*
Y60260D01*
Y60288D01*
Y60316D01*
Y60345D01*
X181229D01*
Y60373D01*
Y60401D01*
Y60429D01*
Y60458D01*
X181257D01*
Y60486D01*
Y60514D01*
Y60542D01*
Y60571D01*
Y60599D01*
Y60627D01*
Y60655D01*
X181285D01*
Y60684D01*
X181314D01*
Y60712D01*
Y60740D01*
Y60768D01*
Y60797D01*
X181342D01*
Y60825D01*
Y60853D01*
Y60881D01*
Y60910D01*
X181370D01*
Y60938D01*
Y60966D01*
Y60994D01*
Y61023D01*
X181427D01*
Y61051D01*
Y61079D01*
Y61107D01*
Y61136D01*
X181455D01*
Y61164D01*
Y61192D01*
Y61220D01*
Y61249D01*
X181483D01*
Y61277D01*
Y61305D01*
Y61333D01*
Y61362D01*
X181511D01*
Y61390D01*
X181539D01*
Y61418D01*
Y61446D01*
Y61475D01*
Y61503D01*
X181568D01*
Y61531D01*
Y61559D01*
Y61588D01*
X181596D01*
Y61616D01*
Y61644D01*
X181624D01*
Y61673D01*
Y61701D01*
Y61729D01*
Y61757D01*
X181652D01*
Y61786D01*
Y61814D01*
Y61842D01*
Y61870D01*
X181681D01*
Y61898D01*
Y61927D01*
Y61955D01*
X181709D01*
Y61983D01*
X181737D01*
Y62011D01*
Y62040D01*
Y62068D01*
Y62096D01*
X181765D01*
Y62125D01*
Y62153D01*
Y62181D01*
Y62209D01*
X181794D01*
Y62238D01*
Y62266D01*
Y62294D01*
X181822D01*
Y62322D01*
X181850D01*
Y62350D01*
Y62379D01*
Y62407D01*
Y62435D01*
X181878D01*
Y62463D01*
Y62492D01*
Y62520D01*
Y62548D01*
X181907D01*
Y62577D01*
Y62605D01*
Y62633D01*
X181935D01*
Y62661D01*
Y62690D01*
X181963D01*
Y62718D01*
Y62746D01*
Y62774D01*
X181992D01*
Y62802D01*
Y62831D01*
Y62859D01*
Y62887D01*
X182020D01*
Y62915D01*
Y62944D01*
Y62972D01*
X182048D01*
Y63000D01*
Y63029D01*
X182076D01*
Y63057D01*
Y63085D01*
Y63113D01*
Y63142D01*
X182105D01*
Y63170D01*
Y63198D01*
Y63226D01*
Y63254D01*
X182133D01*
Y63283D01*
Y63311D01*
X182161D01*
Y63339D01*
Y63367D01*
X182189D01*
Y63396D01*
Y63424D01*
Y63452D01*
Y63481D01*
X182218D01*
Y63509D01*
Y63537D01*
Y63565D01*
Y63594D01*
X182246D01*
Y63622D01*
X182274D01*
Y63650D01*
Y63678D01*
Y63706D01*
X182302D01*
Y63735D01*
Y63763D01*
Y63791D01*
Y63819D01*
X182331D01*
Y63848D01*
Y63876D01*
Y63904D01*
Y63933D01*
X182359D01*
Y63961D01*
X182387D01*
Y63989D01*
Y64017D01*
Y64046D01*
X182415D01*
Y64074D01*
Y64102D01*
Y64130D01*
X182443D01*
Y64158D01*
Y64187D01*
Y64215D01*
X182500D01*
Y64243D01*
Y64271D01*
Y64300D01*
X182528D01*
Y64328D01*
Y64356D01*
Y64385D01*
X182556D01*
Y64413D01*
Y64441D01*
X182613D01*
Y64469D01*
Y64498D01*
X182641D01*
Y64526D01*
Y64554D01*
Y64582D01*
X182669D01*
Y64611D01*
Y64639D01*
X182698D01*
Y64667D01*
X182726D01*
Y64695D01*
X182754D01*
Y64724D01*
Y64752D01*
Y64780D01*
X182782D01*
Y64808D01*
X182811D01*
Y64837D01*
X182839D01*
Y64865D01*
Y64893D01*
X182867D01*
Y64921D01*
X182896D01*
Y64950D01*
X182924D01*
Y64978D01*
Y65006D01*
X182952D01*
Y65034D01*
X182980D01*
Y65063D01*
Y65091D01*
X183009D01*
Y65119D01*
X183037D01*
Y65147D01*
X183065D01*
Y65176D01*
X183093D01*
Y65204D01*
X183122D01*
Y65232D01*
X183150D01*
Y65260D01*
X183178D01*
Y65289D01*
X183206D01*
Y65317D01*
X183235D01*
Y65345D01*
X183263D01*
Y65373D01*
X183291D01*
Y65402D01*
X183319D01*
Y65430D01*
X183348D01*
Y65458D01*
X183376D01*
Y65486D01*
X183404D01*
Y65515D01*
X183432D01*
Y65543D01*
X183489D01*
Y65571D01*
X183517D01*
Y65599D01*
X183545D01*
Y65628D01*
X183602D01*
Y65656D01*
X183630D01*
Y65684D01*
X183687D01*
Y65712D01*
X183715D01*
Y65741D01*
X183771D01*
Y65769D01*
X183828D01*
Y65797D01*
X183913D01*
Y65825D01*
X183941D01*
Y65854D01*
X183997D01*
Y65882D01*
X184082D01*
Y65910D01*
X184167D01*
Y65938D01*
X184195D01*
Y65967D01*
X184308D01*
Y65995D01*
X184421D01*
Y66023D01*
X184534D01*
Y66051D01*
X184562D01*
Y66080D01*
X184732D01*
Y66108D01*
X184817D01*
Y66136D01*
Y66164D01*
Y66193D01*
X184591D01*
Y66164D01*
X183969D01*
Y66193D01*
X183715D01*
Y66221D01*
X183602D01*
Y66249D01*
X183545D01*
Y66277D01*
X183432D01*
Y66306D01*
X183319D01*
Y66334D01*
X183291D01*
Y66362D01*
X183206D01*
Y66390D01*
X183122D01*
Y66419D01*
X183065D01*
Y66447D01*
X183037D01*
Y66475D01*
X182980D01*
Y66503D01*
X182896D01*
Y66532D01*
X182867D01*
Y66560D01*
X182839D01*
Y66588D01*
X182782D01*
Y66616D01*
X182726D01*
Y66645D01*
X182669D01*
Y66673D01*
X182641D01*
Y66701D01*
X182613D01*
Y66729D01*
X182556D01*
Y66758D01*
X182528D01*
Y66786D01*
X182500D01*
Y66814D01*
X182443D01*
Y66842D01*
X182415D01*
Y66871D01*
X182387D01*
Y66899D01*
X182359D01*
Y66927D01*
X182302D01*
Y66955D01*
Y66984D01*
X182274D01*
Y67012D01*
X182218D01*
Y67040D01*
X182189D01*
Y67068D01*
X182161D01*
Y67097D01*
X182133D01*
Y67125D01*
X182105D01*
Y67153D01*
X182076D01*
Y67181D01*
X182048D01*
Y67210D01*
X182020D01*
Y67238D01*
X181992D01*
Y67266D01*
X181963D01*
Y67294D01*
Y67323D01*
X181935D01*
Y67351D01*
X181907D01*
Y67379D01*
X181878D01*
Y67407D01*
X181850D01*
Y67436D01*
X181822D01*
Y67464D01*
X181794D01*
Y67492D01*
X181765D01*
Y67520D01*
Y67549D01*
X181737D01*
Y67577D01*
X181709D01*
Y67605D01*
X181681D01*
Y67633D01*
Y67662D01*
X181652D01*
Y67690D01*
Y67718D01*
X181596D01*
Y67746D01*
Y67775D01*
X181568D01*
Y67803D01*
X181539D01*
Y67831D01*
Y67859D01*
X181511D01*
Y67888D01*
X181483D01*
Y67916D01*
X181455D01*
Y67944D01*
Y67972D01*
X181427D01*
Y68001D01*
Y68029D01*
X181370D01*
Y68057D01*
Y68085D01*
X181342D01*
Y68114D01*
X181314D01*
Y68142D01*
Y68170D01*
X181285D01*
Y68198D01*
X181257D01*
Y68227D01*
X181229D01*
Y68255D01*
Y68283D01*
X181201D01*
Y68311D01*
X181172D01*
Y68340D01*
X181144D01*
Y68368D01*
X181116D01*
Y68396D01*
Y68424D01*
X181088D01*
Y68453D01*
X181059D01*
Y68481D01*
X181031D01*
Y68509D01*
Y68537D01*
X181003D01*
Y68566D01*
Y68594D01*
X180974D01*
Y68622D01*
X180946D01*
Y68650D01*
X180918D01*
Y68679D01*
Y68707D01*
X180890D01*
Y68735D01*
X180861D01*
Y68763D01*
X180833D01*
Y68792D01*
Y68820D01*
X180805D01*
Y68848D01*
X180777D01*
Y68876D01*
Y68905D01*
X180720D01*
Y68933D01*
Y68961D01*
X180692D01*
Y68989D01*
Y69018D01*
X180664D01*
Y69046D01*
X180635D01*
Y69074D01*
X180607D01*
Y69103D01*
Y69131D01*
X180579D01*
Y69159D01*
X180551D01*
Y69187D01*
X180523D01*
Y69216D01*
X180494D01*
Y69244D01*
Y69272D01*
X180466D01*
Y69300D01*
Y69328D01*
X180410D01*
Y69357D01*
Y69385D01*
X180381D01*
Y69413D01*
Y69441D01*
X180353D01*
Y69470D01*
X180325D01*
Y69498D01*
X180297D01*
Y69526D01*
X180268D01*
Y69555D01*
Y69583D01*
X180240D01*
Y69611D01*
X180212D01*
Y69639D01*
X180183D01*
Y69668D01*
Y69696D01*
X180155D01*
Y69724D01*
Y69752D01*
X180127D01*
Y69780D01*
X180099D01*
Y69809D01*
X180070D01*
Y69837D01*
X180042D01*
Y69865D01*
Y69893D01*
X180014D01*
Y69922D01*
X179986D01*
Y69950D01*
X179957D01*
Y69978D01*
Y70007D01*
X179929D01*
Y70035D01*
Y70063D01*
X179901D01*
Y70091D01*
X179873D01*
Y70120D01*
X179844D01*
Y70148D01*
Y70176D01*
X179816D01*
Y70204D01*
X179788D01*
Y70232D01*
Y70261D01*
X179760D01*
Y70289D01*
X179731D01*
Y70317D01*
X179703D01*
Y70345D01*
Y70374D01*
Y70402D01*
X179675D01*
Y70430D01*
X179647D01*
Y70459D01*
Y70487D01*
X179618D01*
Y70515D01*
Y70543D01*
Y70572D01*
Y70600D01*
Y70628D01*
Y70656D01*
X179562D01*
Y70684D01*
Y70713D01*
X179618D01*
Y70741D01*
Y70769D01*
Y70797D01*
Y70826D01*
Y70854D01*
Y70882D01*
X179647D01*
Y70911D01*
Y70939D01*
X179675D01*
Y70967D01*
X179703D01*
Y70995D01*
Y71023D01*
Y71052D01*
X179731D01*
Y71080D01*
X179760D01*
Y71108D01*
X179788D01*
Y71136D01*
Y71165D01*
X179816D01*
Y71193D01*
X179873D01*
Y71221D01*
X179901D01*
Y71250D01*
X179957D01*
Y71278D01*
X180099D01*
Y71306D01*
X183913D01*
Y71278D01*
X184223D01*
Y71250D01*
X184393D01*
Y71221D01*
X184449D01*
Y71193D01*
X184591D01*
Y71165D01*
X184732D01*
Y71136D01*
X184817D01*
Y71108D01*
X184873D01*
Y71080D01*
X184958D01*
Y71052D01*
X185071D01*
Y71023D01*
X185099D01*
Y70995D01*
X185156D01*
Y70967D01*
X185240D01*
Y70939D01*
X185297D01*
Y70911D01*
X185325D01*
Y70882D01*
X185382D01*
Y70854D01*
X185466D01*
Y70826D01*
X185495D01*
Y70797D01*
X185523D01*
Y70769D01*
X185579D01*
Y70741D01*
X185636D01*
Y70713D01*
X185692D01*
Y70684D01*
Y70656D01*
X185749D01*
Y70628D01*
X185777D01*
Y70600D01*
X185805D01*
Y70572D01*
X185834D01*
Y70543D01*
X185890D01*
Y70515D01*
X185918D01*
Y70487D01*
X185947D01*
Y70459D01*
X185975D01*
Y70430D01*
X186003D01*
Y70402D01*
X186031D01*
Y70374D01*
X186060D01*
Y70345D01*
X186088D01*
Y70317D01*
X186116D01*
Y70289D01*
Y70261D01*
X186144D01*
Y70232D01*
X186173D01*
Y70204D01*
X186201D01*
Y70176D01*
X186229D01*
Y70148D01*
Y70120D01*
X186257D01*
Y70091D01*
X186286D01*
Y70063D01*
X186314D01*
Y70035D01*
Y70007D01*
X186342D01*
Y69978D01*
Y69950D01*
X186370D01*
Y69922D01*
X186399D01*
Y69893D01*
X186427D01*
Y69865D01*
Y69837D01*
X186455D01*
Y69809D01*
Y69780D01*
X186483D01*
Y69752D01*
X186512D01*
Y69724D01*
Y69696D01*
X186540D01*
Y69668D01*
X186625D01*
Y69696D01*
Y69724D01*
Y69752D01*
X186596D01*
Y69780D01*
Y69809D01*
Y69837D01*
X186540D01*
Y69865D01*
Y69893D01*
Y69922D01*
Y69950D01*
X186512D01*
Y69978D01*
Y70007D01*
X186483D01*
Y70035D01*
Y70063D01*
X186455D01*
Y70091D01*
Y70120D01*
Y70148D01*
X186427D01*
Y70176D01*
Y70204D01*
Y70232D01*
Y70261D01*
X186399D01*
Y70289D01*
Y70317D01*
Y70345D01*
Y70374D01*
Y70402D01*
X186370D01*
Y70430D01*
X186342D01*
Y70459D01*
Y70487D01*
Y70515D01*
Y70543D01*
Y70572D01*
Y70600D01*
X186314D01*
Y70628D01*
Y70656D01*
Y70684D01*
Y70713D01*
Y70741D01*
Y70769D01*
Y70797D01*
Y70826D01*
Y70854D01*
Y70882D01*
Y70911D01*
Y70939D01*
Y70967D01*
Y70995D01*
Y71023D01*
Y71052D01*
Y71080D01*
Y71108D01*
Y71136D01*
Y71165D01*
Y71193D01*
Y71221D01*
Y71250D01*
Y71278D01*
Y71306D01*
Y71334D01*
Y71363D01*
Y71391D01*
Y71419D01*
Y71447D01*
X186342D01*
Y71475D01*
Y71504D01*
Y71532D01*
Y71560D01*
Y71588D01*
Y71617D01*
X186370D01*
Y71645D01*
Y71673D01*
X186399D01*
Y71702D01*
Y71730D01*
Y71758D01*
Y71786D01*
Y71815D01*
X186427D01*
Y71843D01*
Y71871D01*
Y71899D01*
Y71928D01*
X186455D01*
Y71956D01*
Y71984D01*
X186483D01*
Y72012D01*
Y72041D01*
X186512D01*
Y72069D01*
Y72097D01*
Y72125D01*
Y72154D01*
X186540D01*
Y72182D01*
Y72210D01*
Y72238D01*
X186568D01*
Y72267D01*
Y72295D01*
X186596D01*
Y72323D01*
Y72351D01*
X186625D01*
Y72380D01*
Y72408D01*
Y72436D01*
X186653D01*
Y72464D01*
Y72493D01*
X186681D01*
Y72521D01*
X186709D01*
Y72549D01*
Y72577D01*
X186738D01*
Y72606D01*
Y72634D01*
Y72662D01*
X186766D01*
Y72690D01*
X186794D01*
Y72719D01*
Y72747D01*
X186822D01*
Y72775D01*
X186851D01*
Y72803D01*
Y72832D01*
Y72860D01*
X186879D01*
Y72888D01*
X186907D01*
Y72916D01*
Y72945D01*
X186935D01*
Y72973D01*
X186964D01*
Y73001D01*
Y73029D01*
X186992D01*
Y73058D01*
X187020D01*
Y73086D01*
X187048D01*
Y73114D01*
X187077D01*
Y73142D01*
Y73171D01*
X187105D01*
Y73199D01*
Y73227D01*
X187161D01*
Y73255D01*
Y73284D01*
X187190D01*
Y73312D01*
Y73340D01*
X187218D01*
Y73368D01*
X187246D01*
Y73397D01*
X187275D01*
Y73425D01*
Y73453D01*
X187303D01*
Y73481D01*
X187331D01*
Y73510D01*
Y73538D01*
X187359D01*
Y73566D01*
X187387D01*
Y73594D01*
Y73623D01*
X187416D01*
Y73651D01*
X187444D01*
Y73679D01*
X187472D01*
Y73707D01*
Y73736D01*
X187501D01*
Y73764D01*
X187529D01*
Y73792D01*
X187557D01*
Y73820D01*
Y73849D01*
X187585D01*
Y73877D01*
X187613D01*
Y73905D01*
X187642D01*
Y73933D01*
Y73962D01*
X187670D01*
Y73990D01*
X187698D01*
Y74018D01*
Y74046D01*
X187726D01*
Y74075D01*
X187755D01*
Y74103D01*
Y74131D01*
X187783D01*
Y74159D01*
X187811D01*
Y74188D01*
X187839D01*
Y74216D01*
Y74244D01*
X187868D01*
Y74272D01*
X187896D01*
Y74301D01*
X187924D01*
Y74329D01*
Y74357D01*
X187952D01*
Y74385D01*
X187981D01*
Y74414D01*
Y74442D01*
X188009D01*
Y74470D01*
X188037D01*
Y74498D01*
Y74527D01*
X188066D01*
Y74555D01*
X188094D01*
Y74583D01*
X188122D01*
Y74611D01*
X188150D01*
Y74640D01*
Y74668D01*
X188179D01*
Y74696D01*
Y74724D01*
X188207D01*
Y74753D01*
X188235D01*
Y74781D01*
X188263D01*
Y74809D01*
Y74837D01*
X188292D01*
Y74866D01*
X188320D01*
Y74894D01*
X188348D01*
Y74922D01*
Y74950D01*
X188376D01*
Y74979D01*
X188405D01*
Y75007D01*
X188433D01*
Y75035D01*
Y75063D01*
X188461D01*
Y75092D01*
X188489D01*
Y75120D01*
Y75148D01*
X188517D01*
Y75176D01*
X188546D01*
Y75205D01*
Y75233D01*
X188574D01*
Y75261D01*
X188602D01*
Y75289D01*
X188630D01*
Y75318D01*
X188659D01*
Y75346D01*
Y75374D01*
X188687D01*
Y75402D01*
X188715D01*
Y75431D01*
Y75459D01*
X188743D01*
Y75487D01*
X188772D01*
Y75515D01*
X188800D01*
Y75544D01*
Y75572D01*
X188828D01*
Y75600D01*
X188856D01*
Y75628D01*
Y75657D01*
X188885D01*
Y75685D01*
X188913D01*
Y75713D01*
X188941D01*
Y75741D01*
Y75770D01*
X188970D01*
Y75798D01*
X188998D01*
Y75826D01*
X189026D01*
Y75854D01*
X189054D01*
Y75883D01*
X189083D01*
Y75911D01*
X189111D01*
Y75939D01*
X189167D01*
Y75967D01*
X189224D01*
Y75996D01*
X189252D01*
Y76024D01*
X189704D01*
Y75996D01*
D02*
G37*
%LPC*%
G36*
X69181Y35044D02*
X67785D01*
Y34951D01*
Y34858D01*
Y34765D01*
Y34672D01*
Y34579D01*
Y34486D01*
Y34393D01*
Y34300D01*
Y34207D01*
Y34114D01*
Y34021D01*
Y33928D01*
Y33835D01*
Y33742D01*
Y33649D01*
Y33556D01*
Y33463D01*
Y33369D01*
Y33277D01*
Y33183D01*
Y33090D01*
Y32997D01*
Y32904D01*
Y32811D01*
Y32718D01*
Y32625D01*
Y32532D01*
Y32439D01*
Y32346D01*
Y32253D01*
Y32160D01*
Y32067D01*
Y31974D01*
Y31881D01*
Y31788D01*
Y31695D01*
Y31602D01*
Y31509D01*
Y31416D01*
Y31323D01*
Y31229D01*
Y31137D01*
Y31043D01*
X68064D01*
Y30950D01*
X68530D01*
Y30857D01*
X68809D01*
Y30764D01*
X69088D01*
Y30671D01*
X69367D01*
Y30578D01*
X69646D01*
Y30485D01*
X69925D01*
Y30392D01*
X70205D01*
Y30299D01*
X70949D01*
Y30206D01*
X71042D01*
Y30113D01*
X71414D01*
Y30020D01*
X71786D01*
Y29927D01*
X72438D01*
Y29834D01*
X73275D01*
Y29927D01*
X73647D01*
Y30020D01*
X73926D01*
Y30113D01*
X74019D01*
Y30206D01*
Y30299D01*
X74205D01*
Y30392D01*
X74298D01*
Y30485D01*
X74484D01*
Y30578D01*
Y30671D01*
Y30764D01*
Y30857D01*
X74577D01*
Y30950D01*
Y31043D01*
X74671D01*
Y31137D01*
Y31229D01*
Y31323D01*
Y31416D01*
Y31509D01*
Y31602D01*
Y31695D01*
Y31788D01*
Y31881D01*
Y31974D01*
Y32067D01*
Y32160D01*
Y32253D01*
Y32346D01*
Y32439D01*
Y32532D01*
Y32625D01*
Y32718D01*
Y32811D01*
Y32904D01*
Y32997D01*
Y33090D01*
Y33183D01*
Y33277D01*
Y33369D01*
Y33463D01*
Y33556D01*
X74577D01*
Y33649D01*
Y33742D01*
Y33835D01*
X74484D01*
Y33928D01*
Y34021D01*
Y34114D01*
X74298D01*
Y34207D01*
X74205D01*
Y34300D01*
X74112D01*
Y34393D01*
X74019D01*
Y34486D01*
X73833D01*
Y34579D01*
X73647D01*
Y34672D01*
X73182D01*
Y34765D01*
X71972D01*
Y34858D01*
X70577D01*
Y34951D01*
X69181D01*
Y35044D01*
D02*
G37*
G36*
X40523Y39603D02*
X37732D01*
Y39510D01*
X37267D01*
Y39417D01*
X36895D01*
Y39324D01*
X36709D01*
Y39231D01*
X36616D01*
Y39138D01*
X36523D01*
Y39045D01*
X36430D01*
Y38952D01*
X36244D01*
Y38859D01*
Y38766D01*
Y38673D01*
X36150D01*
Y38580D01*
Y38487D01*
X36057D01*
Y38394D01*
Y38301D01*
X35964D01*
Y38208D01*
Y38115D01*
Y38022D01*
Y37929D01*
X35871D01*
Y37836D01*
Y37743D01*
Y37650D01*
Y37556D01*
Y37463D01*
Y37370D01*
Y37277D01*
Y37184D01*
Y37091D01*
Y36998D01*
Y36905D01*
Y36812D01*
X35778D01*
Y36719D01*
Y36626D01*
Y36533D01*
X35871D01*
Y36440D01*
Y36347D01*
Y36254D01*
Y36161D01*
Y36068D01*
X35964D01*
Y35975D01*
Y35882D01*
Y35789D01*
X36150D01*
Y35696D01*
Y35603D01*
X36244D01*
Y35509D01*
X36430D01*
Y35416D01*
X36802D01*
Y35323D01*
X42850D01*
Y35416D01*
Y35509D01*
Y35603D01*
Y35696D01*
Y35789D01*
Y35882D01*
Y35975D01*
Y36068D01*
Y36161D01*
Y36254D01*
Y36347D01*
X42757D01*
Y36440D01*
Y36533D01*
Y36626D01*
Y36719D01*
Y36812D01*
Y36905D01*
Y36998D01*
Y37091D01*
Y37184D01*
Y37277D01*
X42663D01*
Y37370D01*
Y37463D01*
Y37556D01*
Y37650D01*
Y37743D01*
Y37836D01*
Y37929D01*
Y38022D01*
X42570D01*
Y38115D01*
Y38208D01*
Y38301D01*
X42477D01*
Y38394D01*
Y38487D01*
X42384D01*
Y38580D01*
X42291D01*
Y38673D01*
X42198D01*
Y38766D01*
X42105D01*
Y38859D01*
Y38952D01*
X41919D01*
Y39045D01*
X41826D01*
Y39138D01*
X41733D01*
Y39231D01*
X41547D01*
Y39324D01*
X41268D01*
Y39417D01*
X41082D01*
Y39510D01*
X40523D01*
Y39603D01*
D02*
G37*
G36*
X81184D02*
X83975D01*
Y39510D01*
X84440D01*
Y39417D01*
X84719D01*
Y39324D01*
X84905D01*
Y39231D01*
X85185D01*
Y39138D01*
Y39045D01*
X85278D01*
Y38952D01*
X85464D01*
Y38859D01*
X85557D01*
Y38766D01*
Y38673D01*
X85650D01*
Y38580D01*
X85743D01*
Y38487D01*
X85836D01*
Y38394D01*
Y38301D01*
X85929D01*
Y38208D01*
Y38115D01*
Y38022D01*
X86022D01*
Y37929D01*
Y37836D01*
Y37743D01*
Y37650D01*
X86115D01*
Y37556D01*
Y37463D01*
Y37370D01*
Y37277D01*
X86208D01*
Y37184D01*
Y37091D01*
Y36998D01*
Y36905D01*
Y36812D01*
Y36719D01*
Y36626D01*
Y36533D01*
Y36440D01*
Y36347D01*
X86301D01*
Y36254D01*
Y36161D01*
Y36068D01*
Y35975D01*
Y35882D01*
Y35789D01*
Y35696D01*
Y35603D01*
Y35509D01*
Y35416D01*
Y35323D01*
X80253D01*
Y35416D01*
X79788D01*
Y35509D01*
X79602D01*
Y35603D01*
X79509D01*
Y35696D01*
Y35789D01*
X79323D01*
Y35882D01*
Y35975D01*
Y36068D01*
X79230D01*
Y36161D01*
Y36254D01*
Y36347D01*
Y36440D01*
Y36533D01*
Y36626D01*
Y36719D01*
Y36812D01*
Y36905D01*
Y36998D01*
Y37091D01*
Y37184D01*
Y37277D01*
Y37370D01*
Y37463D01*
Y37556D01*
Y37650D01*
Y37743D01*
Y37836D01*
Y37929D01*
X79323D01*
Y38022D01*
Y38115D01*
Y38208D01*
Y38301D01*
X79416D01*
Y38394D01*
Y38487D01*
X79509D01*
Y38580D01*
Y38673D01*
X79602D01*
Y38766D01*
Y38859D01*
Y38952D01*
X79788D01*
Y39045D01*
X79881D01*
Y39138D01*
X80067D01*
Y39231D01*
X80160D01*
Y39324D01*
X80346D01*
Y39417D01*
X80625D01*
Y39510D01*
X81184D01*
Y39603D01*
D02*
G37*
G36*
X101527Y50697D02*
X108285D01*
Y50581D01*
Y50464D01*
Y50348D01*
Y50231D01*
Y50115D01*
Y49998D01*
Y49882D01*
Y49765D01*
Y49649D01*
Y49532D01*
Y49416D01*
Y49299D01*
Y49183D01*
Y49066D01*
Y48950D01*
Y48833D01*
X101876D01*
Y48717D01*
X101760D01*
Y48600D01*
Y48483D01*
Y48367D01*
X101876D01*
Y48250D01*
X101993D01*
Y48134D01*
X102109D01*
Y48017D01*
X102459D01*
Y47901D01*
X102692D01*
Y47784D01*
X103041D01*
Y47668D01*
X103275D01*
Y47551D01*
X103507D01*
Y47435D01*
X103857D01*
Y47318D01*
X104090D01*
Y47202D01*
X104323D01*
Y47085D01*
X104673D01*
Y46969D01*
X104906D01*
Y46852D01*
X105022D01*
Y46736D01*
X105372D01*
Y46619D01*
X105605D01*
Y46503D01*
X105955D01*
Y46386D01*
X106187D01*
Y46270D01*
X106421D01*
Y46153D01*
X106770D01*
Y46036D01*
X107003D01*
Y45920D01*
X107236D01*
Y45803D01*
X107469D01*
Y45687D01*
X107586D01*
Y45570D01*
X107819D01*
Y45454D01*
X107935D01*
Y45337D01*
X108052D01*
Y45221D01*
Y45104D01*
X108168D01*
Y44988D01*
X108285D01*
Y44871D01*
Y44755D01*
X108402D01*
Y44638D01*
Y44522D01*
X108518D01*
Y44405D01*
Y44289D01*
Y44172D01*
Y44056D01*
Y43939D01*
Y43823D01*
Y43706D01*
Y43589D01*
Y43473D01*
Y43356D01*
Y43240D01*
Y43123D01*
Y43007D01*
Y42890D01*
Y42774D01*
Y42657D01*
Y42541D01*
Y42424D01*
Y42308D01*
Y42191D01*
Y42075D01*
Y41958D01*
Y41842D01*
Y41725D01*
Y41609D01*
X100012D01*
Y41725D01*
Y41842D01*
Y41958D01*
Y42075D01*
Y42191D01*
Y42308D01*
Y42424D01*
Y42541D01*
Y42657D01*
Y42774D01*
Y42890D01*
Y43007D01*
Y43123D01*
Y43240D01*
Y43356D01*
Y43473D01*
X106770D01*
Y43589D01*
Y43706D01*
Y43823D01*
Y43939D01*
X106654D01*
Y44056D01*
X106537D01*
Y44172D01*
X106421D01*
Y44289D01*
X106187D01*
Y44405D01*
X105955D01*
Y44522D01*
X105605D01*
Y44638D01*
X105372D01*
Y44755D01*
X105139D01*
Y44871D01*
X104789D01*
Y44988D01*
X104556D01*
Y45104D01*
X104440D01*
Y45221D01*
X104090D01*
Y45337D01*
X103857D01*
Y45454D01*
X103624D01*
Y45570D01*
X103275D01*
Y45687D01*
X103041D01*
Y45803D01*
X102808D01*
Y45920D01*
X102459D01*
Y46036D01*
X102226D01*
Y46153D01*
X101876D01*
Y46270D01*
X101643D01*
Y46386D01*
X101527D01*
Y46503D01*
X101294D01*
Y46619D01*
X100944D01*
Y46736D01*
X100828D01*
Y46852D01*
X100594D01*
Y46969D01*
X100478D01*
Y47085D01*
Y47202D01*
X100245D01*
Y47318D01*
Y47435D01*
X100128D01*
Y47551D01*
Y47668D01*
Y47784D01*
Y47901D01*
X100012D01*
Y48017D01*
Y48134D01*
Y48250D01*
Y48367D01*
Y48483D01*
Y48600D01*
Y48717D01*
Y48833D01*
Y48950D01*
Y49066D01*
Y49183D01*
X100128D01*
Y49299D01*
Y49416D01*
Y49532D01*
Y49649D01*
X100245D01*
Y49765D01*
X100361D01*
Y49882D01*
Y49998D01*
X100478D01*
Y50115D01*
X100594D01*
Y50231D01*
X100828D01*
Y50348D01*
X101061D01*
Y50464D01*
X101294D01*
Y50581D01*
X101527D01*
Y50697D01*
D02*
G37*
G36*
X111082D02*
X117607D01*
Y50581D01*
Y50464D01*
Y50348D01*
Y50231D01*
Y50115D01*
Y49998D01*
Y49882D01*
Y49765D01*
Y49649D01*
Y49532D01*
Y49416D01*
Y49299D01*
Y49183D01*
Y49066D01*
Y48950D01*
Y48833D01*
X111431D01*
Y48717D01*
X111314D01*
Y48600D01*
Y48483D01*
X111082D01*
Y48367D01*
Y48250D01*
X110965D01*
Y48134D01*
Y48017D01*
Y47901D01*
Y47784D01*
Y47668D01*
X111082D01*
Y47551D01*
X111198D01*
Y47435D01*
X111314D01*
Y47318D01*
X111431D01*
Y47202D01*
X111664D01*
Y47085D01*
X116558D01*
Y46969D01*
Y46852D01*
Y46736D01*
Y46619D01*
Y46503D01*
Y46386D01*
Y46270D01*
Y46153D01*
Y46036D01*
Y45920D01*
Y45803D01*
Y45687D01*
Y45570D01*
Y45454D01*
Y45337D01*
X111664D01*
Y45221D01*
X111431D01*
Y45104D01*
X111314D01*
Y44988D01*
X111198D01*
Y44871D01*
X111082D01*
Y44755D01*
Y44638D01*
X110965D01*
Y44522D01*
Y44405D01*
Y44289D01*
Y44172D01*
Y44056D01*
X111082D01*
Y43939D01*
Y43823D01*
X111198D01*
Y43706D01*
X111314D01*
Y43589D01*
X111548D01*
Y43473D01*
X117607D01*
Y43356D01*
Y43240D01*
Y43123D01*
Y43007D01*
Y42890D01*
Y42774D01*
Y42657D01*
Y42541D01*
Y42424D01*
Y42308D01*
Y42191D01*
Y42075D01*
Y41958D01*
Y41842D01*
Y41725D01*
Y41609D01*
X111548D01*
Y41725D01*
X110965D01*
Y41842D01*
X110615D01*
Y41958D01*
X110382D01*
Y42075D01*
X110266D01*
Y42191D01*
X110149D01*
Y42308D01*
X109916D01*
Y42424D01*
X109800D01*
Y42541D01*
Y42657D01*
X109683D01*
Y42774D01*
X109567D01*
Y42890D01*
X109450D01*
Y43007D01*
Y43123D01*
Y43240D01*
X109334D01*
Y43356D01*
Y43473D01*
X109217D01*
Y43589D01*
Y43706D01*
Y43823D01*
Y43939D01*
Y44056D01*
Y44172D01*
Y44289D01*
Y44405D01*
Y44522D01*
Y44638D01*
Y44755D01*
Y44871D01*
Y44988D01*
Y45104D01*
Y45221D01*
X109334D01*
Y45337D01*
X109450D01*
Y45454D01*
Y45570D01*
Y45687D01*
X109567D01*
Y45803D01*
X109683D01*
Y45920D01*
X109800D01*
Y46036D01*
Y46153D01*
X110033D01*
Y46270D01*
X109916D01*
Y46386D01*
X109800D01*
Y46503D01*
X109683D01*
Y46619D01*
X109567D01*
Y46736D01*
X109450D01*
Y46852D01*
Y46969D01*
Y47085D01*
X109334D01*
Y47202D01*
X109217D01*
Y47318D01*
Y47435D01*
Y47551D01*
Y47668D01*
Y47784D01*
Y47901D01*
Y48017D01*
Y48134D01*
Y48250D01*
Y48367D01*
Y48483D01*
Y48600D01*
Y48717D01*
Y48833D01*
Y48950D01*
X109334D01*
Y49066D01*
Y49183D01*
Y49299D01*
X109450D01*
Y49416D01*
X109567D01*
Y49532D01*
Y49649D01*
X109683D01*
Y49765D01*
X109800D01*
Y49882D01*
Y49998D01*
X110033D01*
Y50115D01*
X110149D01*
Y50231D01*
X110266D01*
Y50348D01*
X110499D01*
Y50464D01*
X110732D01*
Y50581D01*
X111082D01*
Y50697D01*
D02*
G37*
G36*
X138464Y47435D02*
X138581D01*
Y47318D01*
X138697D01*
Y47202D01*
Y47085D01*
X138814D01*
Y46969D01*
Y46852D01*
Y46736D01*
X138930D01*
Y46619D01*
Y46503D01*
Y46386D01*
X139047D01*
Y46270D01*
Y46153D01*
Y46036D01*
X139163D01*
Y45920D01*
Y45803D01*
Y45687D01*
X139280D01*
Y45570D01*
X139397D01*
Y45454D01*
Y45337D01*
X139513D01*
Y45221D01*
Y45104D01*
Y44988D01*
Y44871D01*
X139629D01*
Y44755D01*
Y44638D01*
Y44522D01*
X137416D01*
Y44638D01*
Y44755D01*
Y44871D01*
Y44988D01*
X137532D01*
Y45104D01*
Y45221D01*
Y45337D01*
Y45454D01*
X137649D01*
Y45570D01*
Y45687D01*
X137765D01*
Y45803D01*
X137882D01*
Y45920D01*
Y46036D01*
Y46153D01*
Y46270D01*
Y46386D01*
X137998D01*
Y46503D01*
Y46619D01*
X138115D01*
Y46736D01*
X138231D01*
Y46852D01*
Y46969D01*
Y47085D01*
X138348D01*
Y47202D01*
Y47318D01*
X138464D01*
Y47435D01*
D02*
G37*
G36*
X188715Y70430D02*
X188546D01*
Y70402D01*
X188461D01*
Y70374D01*
X188405D01*
Y70345D01*
X188376D01*
Y70317D01*
X188348D01*
Y70289D01*
X188320D01*
Y70261D01*
X188263D01*
Y70232D01*
Y70204D01*
X188235D01*
Y70176D01*
X188207D01*
Y70148D01*
Y70120D01*
X188179D01*
Y70091D01*
X188150D01*
Y70063D01*
Y70035D01*
X188122D01*
Y70007D01*
Y69978D01*
X188066D01*
Y69950D01*
Y69922D01*
Y69893D01*
X188037D01*
Y69865D01*
Y69837D01*
X188009D01*
Y69809D01*
Y69780D01*
X187981D01*
Y69752D01*
Y69724D01*
X187952D01*
Y69696D01*
Y69668D01*
Y69639D01*
X187924D01*
Y69611D01*
Y69583D01*
Y69555D01*
Y69526D01*
X187896D01*
Y69498D01*
X187868D01*
Y69470D01*
Y69441D01*
Y69413D01*
Y69385D01*
Y69357D01*
X187839D01*
Y69328D01*
Y69300D01*
Y69272D01*
Y69244D01*
X187811D01*
Y69216D01*
Y69187D01*
Y69159D01*
Y69131D01*
Y69103D01*
Y69074D01*
X187783D01*
Y69046D01*
Y69018D01*
Y68989D01*
X187755D01*
Y68961D01*
Y68933D01*
Y68905D01*
Y68876D01*
Y68848D01*
Y68820D01*
Y68792D01*
Y68763D01*
X187726D01*
Y68735D01*
Y68707D01*
Y68679D01*
Y68650D01*
Y68622D01*
Y68594D01*
Y68566D01*
Y68537D01*
Y68509D01*
Y68481D01*
Y68453D01*
Y68424D01*
Y68396D01*
Y68368D01*
Y68340D01*
Y68311D01*
Y68283D01*
Y68255D01*
Y68227D01*
Y68198D01*
Y68170D01*
Y68142D01*
Y68114D01*
X187755D01*
Y68085D01*
Y68057D01*
Y68029D01*
Y68001D01*
Y67972D01*
Y67944D01*
Y67916D01*
X187783D01*
Y67888D01*
X187811D01*
Y67859D01*
Y67831D01*
Y67803D01*
Y67775D01*
Y67746D01*
X187839D01*
Y67718D01*
Y67690D01*
Y67662D01*
Y67633D01*
X187868D01*
Y67605D01*
Y67577D01*
X187924D01*
Y67549D01*
Y67520D01*
Y67492D01*
X187952D01*
Y67464D01*
X187981D01*
Y67436D01*
X188009D01*
Y67407D01*
X188037D01*
Y67379D01*
X188094D01*
Y67351D01*
X188150D01*
Y67323D01*
X188320D01*
Y67351D01*
X188376D01*
Y67379D01*
X188433D01*
Y67407D01*
X188489D01*
Y67436D01*
Y67464D01*
X188546D01*
Y67492D01*
X188574D01*
Y67520D01*
X188602D01*
Y67549D01*
Y67577D01*
X188630D01*
Y67605D01*
X188659D01*
Y67633D01*
X188687D01*
Y67662D01*
Y67690D01*
X188715D01*
Y67718D01*
Y67746D01*
X188743D01*
Y67775D01*
X188772D01*
Y67803D01*
Y67831D01*
X188800D01*
Y67859D01*
Y67888D01*
X188828D01*
Y67916D01*
Y67944D01*
Y67972D01*
X188856D01*
Y68001D01*
X188885D01*
Y68029D01*
Y68057D01*
X188913D01*
Y68085D01*
Y68114D01*
Y68142D01*
Y68170D01*
X188941D01*
Y68198D01*
Y68227D01*
Y68255D01*
X188970D01*
Y68283D01*
Y68311D01*
X188998D01*
Y68340D01*
Y68368D01*
Y68396D01*
Y68424D01*
X189026D01*
Y68453D01*
Y68481D01*
Y68509D01*
Y68537D01*
Y68566D01*
Y68594D01*
X189054D01*
Y68622D01*
Y68650D01*
X189083D01*
Y68679D01*
Y68707D01*
Y68735D01*
Y68763D01*
Y68792D01*
Y68820D01*
Y68848D01*
X189111D01*
Y68876D01*
Y68905D01*
Y68933D01*
Y68961D01*
Y68989D01*
Y69018D01*
Y69046D01*
Y69074D01*
Y69103D01*
Y69131D01*
Y69159D01*
Y69187D01*
Y69216D01*
X189139D01*
Y69244D01*
Y69272D01*
Y69300D01*
Y69328D01*
Y69357D01*
Y69385D01*
Y69413D01*
Y69441D01*
X189111D01*
Y69470D01*
Y69498D01*
Y69526D01*
Y69555D01*
Y69583D01*
Y69611D01*
Y69639D01*
Y69668D01*
Y69696D01*
Y69724D01*
Y69752D01*
Y69780D01*
X189083D01*
Y69809D01*
Y69837D01*
Y69865D01*
Y69893D01*
Y69922D01*
Y69950D01*
X189054D01*
Y69978D01*
X189026D01*
Y70007D01*
Y70035D01*
Y70063D01*
Y70091D01*
X188998D01*
Y70120D01*
Y70148D01*
Y70176D01*
X188970D01*
Y70204D01*
X188941D01*
Y70232D01*
X188913D01*
Y70261D01*
Y70289D01*
X188885D01*
Y70317D01*
X188856D01*
Y70345D01*
X188828D01*
Y70374D01*
X188772D01*
Y70402D01*
X188715D01*
Y70430D01*
D02*
G37*
G36*
X185297Y68594D02*
X185099D01*
Y68566D01*
X184901D01*
Y68537D01*
X184845D01*
Y68509D01*
X184817D01*
Y68481D01*
X184760D01*
Y68453D01*
X184732D01*
Y68424D01*
X184704D01*
Y68396D01*
Y68368D01*
X184675D01*
Y68340D01*
Y68311D01*
Y68283D01*
X184647D01*
Y68255D01*
X184619D01*
Y68227D01*
Y68198D01*
X184647D01*
Y68170D01*
X184675D01*
Y68142D01*
Y68114D01*
Y68085D01*
Y68057D01*
Y68029D01*
X184704D01*
Y68001D01*
Y67972D01*
Y67944D01*
X184760D01*
Y67916D01*
Y67888D01*
X184788D01*
Y67859D01*
Y67831D01*
X184817D01*
Y67803D01*
X184845D01*
Y67775D01*
X184873D01*
Y67746D01*
X184901D01*
Y67718D01*
Y67690D01*
X184930D01*
Y67662D01*
X184958D01*
Y67633D01*
X184986D01*
Y67605D01*
X185014D01*
Y67577D01*
X185071D01*
Y67549D01*
X185099D01*
Y67520D01*
X185127D01*
Y67492D01*
X185156D01*
Y67464D01*
X185212D01*
Y67436D01*
Y67407D01*
X185269D01*
Y67379D01*
X185325D01*
Y67351D01*
X185353D01*
Y67323D01*
X185382D01*
Y67294D01*
X185438D01*
Y67266D01*
X185466D01*
Y67238D01*
X185495D01*
Y67210D01*
X185551D01*
Y67181D01*
X185608D01*
Y67153D01*
X185664D01*
Y67125D01*
X185692D01*
Y67097D01*
X185749D01*
Y67068D01*
X185834D01*
Y67040D01*
X185890D01*
Y67012D01*
X185918D01*
Y66984D01*
X186003D01*
Y66955D01*
X186088D01*
Y66927D01*
X186173D01*
Y66899D01*
X186201D01*
Y66871D01*
X186286D01*
Y66842D01*
X186399D01*
Y66814D01*
X186540D01*
Y66786D01*
X186568D01*
Y66758D01*
X186794D01*
Y66729D01*
X187133D01*
Y66758D01*
X187246D01*
Y66786D01*
X187303D01*
Y66814D01*
X187359D01*
Y66842D01*
X187416D01*
Y66871D01*
X187444D01*
Y66899D01*
X187472D01*
Y66927D01*
Y66955D01*
X187501D01*
Y66984D01*
Y67012D01*
Y67040D01*
Y67068D01*
Y67097D01*
Y67125D01*
Y67153D01*
Y67181D01*
Y67210D01*
Y67238D01*
X187472D01*
Y67266D01*
Y67294D01*
Y67323D01*
Y67351D01*
X187416D01*
Y67379D01*
Y67407D01*
X187387D01*
Y67436D01*
Y67464D01*
X187359D01*
Y67492D01*
X187331D01*
Y67520D01*
X187303D01*
Y67549D01*
Y67577D01*
X187275D01*
Y67605D01*
X187246D01*
Y67633D01*
X187218D01*
Y67662D01*
X187190D01*
Y67690D01*
X187161D01*
Y67718D01*
X187133D01*
Y67746D01*
X187105D01*
Y67775D01*
X187077D01*
Y67803D01*
X187020D01*
Y67831D01*
X186992D01*
Y67859D01*
X186964D01*
Y67888D01*
X186935D01*
Y67916D01*
X186879D01*
Y67944D01*
X186851D01*
Y67972D01*
X186822D01*
Y68001D01*
X186766D01*
Y68029D01*
X186709D01*
Y68057D01*
X186681D01*
Y68085D01*
X186653D01*
Y68114D01*
X186596D01*
Y68142D01*
X186540D01*
Y68170D01*
X186512D01*
Y68198D01*
X186455D01*
Y68227D01*
X186399D01*
Y68255D01*
X186314D01*
Y68283D01*
X186286D01*
Y68311D01*
X186229D01*
Y68340D01*
X186144D01*
Y68368D01*
X186060D01*
Y68396D01*
X186031D01*
Y68424D01*
X185947D01*
Y68453D01*
X185834D01*
Y68481D01*
X185721D01*
Y68509D01*
X185692D01*
Y68537D01*
X185551D01*
Y68566D01*
X185297D01*
Y68594D01*
D02*
G37*
G36*
X191117Y67690D02*
X190495D01*
Y67662D01*
X190241D01*
Y67633D01*
X190184D01*
Y67605D01*
X190015D01*
Y67577D01*
X189874D01*
Y67549D01*
X189760D01*
Y67520D01*
X189732D01*
Y67492D01*
X189619D01*
Y67464D01*
X189506D01*
Y67436D01*
X189478D01*
Y67407D01*
X189421D01*
Y67379D01*
X189337D01*
Y67351D01*
X189280D01*
Y67323D01*
X189252D01*
Y67294D01*
X189196D01*
Y67266D01*
X189139D01*
Y67238D01*
X189083D01*
Y67210D01*
Y67181D01*
X189026D01*
Y67153D01*
X188998D01*
Y67125D01*
X188970D01*
Y67097D01*
X188941D01*
Y67068D01*
X188913D01*
Y67040D01*
X188885D01*
Y67012D01*
Y66984D01*
X188856D01*
Y66955D01*
X188828D01*
Y66927D01*
Y66899D01*
X188800D01*
Y66871D01*
Y66842D01*
Y66814D01*
Y66786D01*
Y66758D01*
Y66729D01*
Y66701D01*
X188828D01*
Y66673D01*
Y66645D01*
Y66616D01*
X188885D01*
Y66588D01*
Y66560D01*
X188913D01*
Y66532D01*
X188941D01*
Y66503D01*
X188998D01*
Y66475D01*
X189026D01*
Y66447D01*
X189083D01*
Y66419D01*
X189167D01*
Y66390D01*
X189252D01*
Y66362D01*
X189280D01*
Y66334D01*
X189450D01*
Y66306D01*
X189817D01*
Y66277D01*
X189987D01*
Y66306D01*
X190382D01*
Y66334D01*
X190608D01*
Y66362D01*
X190636D01*
Y66390D01*
X190778D01*
Y66419D01*
X190919D01*
Y66447D01*
X191032D01*
Y66475D01*
Y66503D01*
X191145D01*
Y66532D01*
X191230D01*
Y66560D01*
X191286D01*
Y66588D01*
X191314D01*
Y66616D01*
X191399D01*
Y66645D01*
X191456D01*
Y66673D01*
X191512D01*
Y66701D01*
X191540D01*
Y66729D01*
X191597D01*
Y66758D01*
X191625D01*
Y66786D01*
X191653D01*
Y66814D01*
X191682D01*
Y66842D01*
X191738D01*
Y66871D01*
X191766D01*
Y66899D01*
X191795D01*
Y66927D01*
Y66955D01*
X191823D01*
Y66984D01*
X191851D01*
Y67012D01*
Y67040D01*
X191879D01*
Y67068D01*
X191908D01*
Y67097D01*
Y67125D01*
Y67153D01*
Y67181D01*
Y67210D01*
Y67238D01*
Y67266D01*
Y67294D01*
X191851D01*
Y67323D01*
Y67351D01*
Y67379D01*
X191823D01*
Y67407D01*
X191795D01*
Y67436D01*
X191766D01*
Y67464D01*
X191710D01*
Y67492D01*
X191653D01*
Y67520D01*
X191625D01*
Y67549D01*
X191569D01*
Y67577D01*
X191484D01*
Y67605D01*
X191343D01*
Y67633D01*
X191314D01*
Y67662D01*
X191117D01*
Y67690D01*
D02*
G37*
G36*
X187472Y66221D02*
X187190D01*
Y66193D01*
X187048D01*
Y66164D01*
X186964D01*
Y66136D01*
X186935D01*
Y66108D01*
X186851D01*
Y66080D01*
X186794D01*
Y66051D01*
X186738D01*
Y66023D01*
X186709D01*
Y65995D01*
X186653D01*
Y65967D01*
X186596D01*
Y65938D01*
X186540D01*
Y65910D01*
X186512D01*
Y65882D01*
X186483D01*
Y65854D01*
X186427D01*
Y65825D01*
X186399D01*
Y65797D01*
X186370D01*
Y65769D01*
X186314D01*
Y65741D01*
X186286D01*
Y65712D01*
X186257D01*
Y65684D01*
X186229D01*
Y65656D01*
X186201D01*
Y65628D01*
X186144D01*
Y65599D01*
Y65571D01*
X186116D01*
Y65543D01*
X186088D01*
Y65515D01*
X186031D01*
Y65486D01*
Y65458D01*
X186003D01*
Y65430D01*
X185975D01*
Y65402D01*
X185918D01*
Y65373D01*
Y65345D01*
X185890D01*
Y65317D01*
X185862D01*
Y65289D01*
X185834D01*
Y65260D01*
X185805D01*
Y65232D01*
X185777D01*
Y65204D01*
X185749D01*
Y65176D01*
Y65147D01*
X185721D01*
Y65119D01*
X185692D01*
Y65091D01*
X185664D01*
Y65063D01*
Y65034D01*
X185636D01*
Y65006D01*
X185608D01*
Y64978D01*
X185579D01*
Y64950D01*
Y64921D01*
X185551D01*
Y64893D01*
Y64865D01*
X185523D01*
Y64837D01*
X185495D01*
Y64808D01*
Y64780D01*
X185466D01*
Y64752D01*
Y64724D01*
X185438D01*
Y64695D01*
Y64667D01*
X185410D01*
Y64639D01*
Y64611D01*
X185382D01*
Y64582D01*
Y64554D01*
X185353D01*
Y64526D01*
Y64498D01*
Y64469D01*
Y64441D01*
X185325D01*
Y64413D01*
Y64385D01*
Y64356D01*
Y64328D01*
X185297D01*
Y64300D01*
Y64271D01*
Y64243D01*
Y64215D01*
Y64187D01*
Y64158D01*
Y64130D01*
Y64102D01*
Y64074D01*
X185325D01*
Y64046D01*
Y64017D01*
Y63989D01*
Y63961D01*
X185353D01*
Y63933D01*
X185382D01*
Y63904D01*
X185438D01*
Y63876D01*
Y63848D01*
X185523D01*
Y63819D01*
X185834D01*
Y63848D01*
X185947D01*
Y63876D01*
X185975D01*
Y63904D01*
X186060D01*
Y63933D01*
X186144D01*
Y63961D01*
X186201D01*
Y63989D01*
X186229D01*
Y64017D01*
X186286D01*
Y64046D01*
X186342D01*
Y64074D01*
X186399D01*
Y64102D01*
X186427D01*
Y64130D01*
X186455D01*
Y64158D01*
X186512D01*
Y64187D01*
X186540D01*
Y64215D01*
X186568D01*
Y64243D01*
X186625D01*
Y64271D01*
X186653D01*
Y64300D01*
X186681D01*
Y64328D01*
X186709D01*
Y64356D01*
X186766D01*
Y64385D01*
X186794D01*
Y64413D01*
X186822D01*
Y64441D01*
X186851D01*
Y64469D01*
X186879D01*
Y64498D01*
X186935D01*
Y64526D01*
Y64554D01*
X186964D01*
Y64582D01*
X186992D01*
Y64611D01*
X187020D01*
Y64639D01*
X187048D01*
Y64667D01*
X187077D01*
Y64695D01*
X187105D01*
Y64724D01*
X187133D01*
Y64752D01*
X187161D01*
Y64780D01*
X187190D01*
Y64808D01*
X187218D01*
Y64837D01*
Y64865D01*
X187246D01*
Y64893D01*
X187275D01*
Y64921D01*
X187303D01*
Y64950D01*
Y64978D01*
X187331D01*
Y65006D01*
X187359D01*
Y65034D01*
X187387D01*
Y65063D01*
Y65091D01*
X187416D01*
Y65119D01*
Y65147D01*
X187444D01*
Y65176D01*
X187472D01*
Y65204D01*
X187501D01*
Y65232D01*
Y65260D01*
X187529D01*
Y65289D01*
Y65317D01*
Y65345D01*
X187585D01*
Y65373D01*
Y65402D01*
Y65430D01*
X187613D01*
Y65458D01*
Y65486D01*
Y65515D01*
X187642D01*
Y65543D01*
Y65571D01*
Y65599D01*
X187670D01*
Y65628D01*
Y65656D01*
X187698D01*
Y65684D01*
Y65712D01*
Y65741D01*
Y65769D01*
Y65797D01*
Y65825D01*
Y65854D01*
Y65882D01*
Y65910D01*
Y65938D01*
Y65967D01*
Y65995D01*
Y66023D01*
Y66051D01*
X187642D01*
Y66080D01*
Y66108D01*
X187613D01*
Y66136D01*
X187585D01*
Y66164D01*
X187529D01*
Y66193D01*
X187472D01*
Y66221D01*
D02*
G37*
G36*
X188659Y66051D02*
X188489D01*
Y66023D01*
X188461D01*
Y65995D01*
X188405D01*
Y65967D01*
X188348D01*
Y65938D01*
X188320D01*
Y65910D01*
X188292D01*
Y65882D01*
Y65854D01*
X188263D01*
Y65825D01*
Y65797D01*
Y65769D01*
X188235D01*
Y65741D01*
Y65712D01*
Y65684D01*
Y65656D01*
Y65628D01*
Y65599D01*
Y65571D01*
Y65543D01*
Y65515D01*
Y65486D01*
Y65458D01*
Y65430D01*
Y65402D01*
Y65373D01*
Y65345D01*
Y65317D01*
Y65289D01*
Y65260D01*
Y65232D01*
Y65204D01*
Y65176D01*
Y65147D01*
Y65119D01*
X188263D01*
Y65091D01*
Y65063D01*
Y65034D01*
Y65006D01*
Y64978D01*
X188292D01*
Y64950D01*
Y64921D01*
Y64893D01*
Y64865D01*
X188320D01*
Y64837D01*
Y64808D01*
X188348D01*
Y64780D01*
Y64752D01*
Y64724D01*
X188376D01*
Y64695D01*
Y64667D01*
Y64639D01*
X188405D01*
Y64611D01*
Y64582D01*
Y64554D01*
X188433D01*
Y64526D01*
X188461D01*
Y64498D01*
Y64469D01*
Y64441D01*
X188489D01*
Y64413D01*
Y64385D01*
X188517D01*
Y64356D01*
Y64328D01*
X188546D01*
Y64300D01*
Y64271D01*
X188574D01*
Y64243D01*
Y64215D01*
X188602D01*
Y64187D01*
Y64158D01*
X188630D01*
Y64130D01*
X188659D01*
Y64102D01*
Y64074D01*
X188687D01*
Y64046D01*
Y64017D01*
X188715D01*
Y63989D01*
X188743D01*
Y63961D01*
X188772D01*
Y63933D01*
Y63904D01*
X188800D01*
Y63876D01*
Y63848D01*
X188828D01*
Y63819D01*
X188856D01*
Y63791D01*
X188885D01*
Y63763D01*
Y63735D01*
X188913D01*
Y63706D01*
X188941D01*
Y63678D01*
X188970D01*
Y63650D01*
X188998D01*
Y63622D01*
X189026D01*
Y63594D01*
Y63565D01*
X189054D01*
Y63537D01*
X189083D01*
Y63509D01*
X189111D01*
Y63481D01*
X189139D01*
Y63452D01*
X189167D01*
Y63424D01*
X189224D01*
Y63396D01*
X189252D01*
Y63367D01*
X189280D01*
Y63339D01*
X189309D01*
Y63311D01*
X189365D01*
Y63283D01*
X189421D01*
Y63254D01*
X189478D01*
Y63226D01*
X189506D01*
Y63198D01*
X189591D01*
Y63170D01*
X189789D01*
Y63198D01*
X189874D01*
Y63226D01*
Y63254D01*
X189930D01*
Y63283D01*
X189958D01*
Y63311D01*
X189987D01*
Y63339D01*
Y63367D01*
Y63396D01*
X190015D01*
Y63424D01*
Y63452D01*
Y63481D01*
X190043D01*
Y63509D01*
Y63537D01*
X190071D01*
Y63565D01*
Y63594D01*
Y63622D01*
Y63650D01*
Y63678D01*
Y63706D01*
Y63735D01*
Y63763D01*
Y63791D01*
Y63819D01*
Y63848D01*
Y63876D01*
Y63904D01*
X190043D01*
Y63933D01*
Y63961D01*
Y63989D01*
X190015D01*
Y64017D01*
Y64046D01*
Y64074D01*
Y64102D01*
Y64130D01*
Y64158D01*
X189987D01*
Y64187D01*
Y64215D01*
Y64243D01*
Y64271D01*
X189958D01*
Y64300D01*
Y64328D01*
Y64356D01*
Y64385D01*
Y64413D01*
X189930D01*
Y64441D01*
X189902D01*
Y64469D01*
Y64498D01*
Y64526D01*
X189874D01*
Y64554D01*
Y64582D01*
Y64611D01*
X189845D01*
Y64639D01*
Y64667D01*
Y64695D01*
X189817D01*
Y64724D01*
X189789D01*
Y64752D01*
Y64780D01*
Y64808D01*
X189760D01*
Y64837D01*
Y64865D01*
X189732D01*
Y64893D01*
Y64921D01*
X189704D01*
Y64950D01*
Y64978D01*
X189676D01*
Y65006D01*
X189647D01*
Y65034D01*
Y65063D01*
Y65091D01*
X189591D01*
Y65119D01*
Y65147D01*
Y65176D01*
X189563D01*
Y65204D01*
X189534D01*
Y65232D01*
Y65260D01*
X189506D01*
Y65289D01*
X189478D01*
Y65317D01*
X189450D01*
Y65345D01*
Y65373D01*
Y65402D01*
X189393D01*
Y65430D01*
X189365D01*
Y65458D01*
Y65486D01*
X189337D01*
Y65515D01*
X189309D01*
Y65543D01*
Y65571D01*
X189252D01*
Y65599D01*
Y65628D01*
X189224D01*
Y65656D01*
X189196D01*
Y65684D01*
X189167D01*
Y65712D01*
X189139D01*
Y65741D01*
X189111D01*
Y65769D01*
X189054D01*
Y65797D01*
Y65825D01*
X188998D01*
Y65854D01*
X188970D01*
Y65882D01*
X188913D01*
Y65910D01*
X188885D01*
Y65938D01*
X188856D01*
Y65967D01*
X188772D01*
Y65995D01*
X188687D01*
Y66023D01*
X188659D01*
Y66051D01*
D02*
G37*
%LPD*%
D76*
X52855Y87541D02*
X52288Y88107D01*
X51155D01*
X50589Y87541D01*
Y86975D01*
X51155Y86408D01*
X51722D01*
X51155D01*
X50589Y85842D01*
Y85275D01*
X51155Y84709D01*
X52288D01*
X52855Y85275D01*
X49456Y84709D02*
Y85275D01*
X48889D01*
Y84709D01*
X49456D01*
X46623Y88107D02*
X44357D01*
Y87541D01*
X46623Y85275D01*
Y84709D01*
X43224D02*
X40958Y86975D01*
X38126Y84709D02*
Y88107D01*
X39825Y86408D01*
X37560D01*
X36427Y84709D02*
Y85275D01*
X35860D01*
Y84709D01*
X36427D01*
X31328D02*
X33594D01*
X31328Y86975D01*
Y87541D01*
X31895Y88107D01*
X33028D01*
X33594Y87541D01*
X30195Y88107D02*
Y85842D01*
X29062Y84709D01*
X27929Y85842D01*
Y88107D01*
X57103Y82107D02*
Y78709D01*
X54837D01*
X53704D02*
X52571D01*
X53138D01*
Y80975D01*
X53704D01*
X50872Y78709D02*
Y82107D01*
X49172D01*
X48606Y81541D01*
Y80408D01*
X49172Y79842D01*
X50872D01*
X46907Y78709D02*
X45774D01*
X45207Y79275D01*
Y80408D01*
X45774Y80975D01*
X46907D01*
X47473Y80408D01*
Y79275D01*
X46907Y78709D01*
X44074D02*
X42941D01*
X43508D01*
Y82107D01*
X44074D01*
X41242Y80975D02*
Y79275D01*
X40675Y78709D01*
X38976D01*
Y78142D01*
X39542Y77576D01*
X40109D01*
X38976Y78709D02*
Y80975D01*
X34444Y82107D02*
Y78709D01*
X32745D01*
X32178Y79275D01*
Y79842D01*
X32745Y80408D01*
X34444D01*
X32745D01*
X32178Y80975D01*
Y81541D01*
X32745Y82107D01*
X34444D01*
X30479Y80975D02*
X29346D01*
X28779Y80408D01*
Y78709D01*
X30479D01*
X31045Y79275D01*
X30479Y79842D01*
X28779D01*
X27080Y81541D02*
Y80975D01*
X27646D01*
X26513D01*
X27080D01*
Y79275D01*
X26513Y78709D01*
X24247Y81541D02*
Y80975D01*
X24814D01*
X23681D01*
X24247D01*
Y79275D01*
X23681Y78709D01*
X59086Y74408D02*
X57953D01*
Y72142D01*
X56820Y74408D02*
X57953D01*
X56820D02*
X55687D01*
X56820Y73842D02*
X55687D01*
Y76107D02*
Y72142D01*
X54554Y76107D02*
Y73275D01*
X53988Y72709D01*
X52855D01*
X52288Y73275D01*
Y76107D01*
X48889Y75541D02*
X49456Y76107D01*
X50589D01*
X51155Y75541D01*
Y74975D01*
X50589Y74408D01*
X49456D01*
X48889Y73842D01*
Y73275D01*
X49456Y72709D01*
X50589D01*
X51155Y73275D01*
X47756Y76107D02*
Y72709D01*
X46057D01*
X45490Y73275D01*
Y73842D01*
X46057Y74408D01*
X47756D01*
X46057D01*
X45490Y74975D01*
Y75541D01*
X46057Y76107D01*
X47756D01*
X38693Y74975D02*
X40392D01*
X40958Y74408D01*
Y73275D01*
X40392Y72709D01*
X38693D01*
X37560Y76107D02*
Y72709D01*
Y74408D01*
X36993Y74975D01*
X35860D01*
X35294Y74408D01*
Y72709D01*
X33594Y74975D02*
X32461D01*
X31895Y74408D01*
Y72709D01*
X33594D01*
X34161Y73275D01*
X33594Y73842D01*
X31895D01*
X30762Y74975D02*
Y72709D01*
Y73842D01*
X30195Y74408D01*
X29629Y74975D01*
X29062D01*
X26230Y71576D02*
X25663D01*
X25097Y72142D01*
Y74975D01*
X26796D01*
X27363Y74408D01*
Y73275D01*
X26796Y72709D01*
X25097D01*
X22264D02*
X23397D01*
X23964Y73275D01*
Y74408D01*
X23397Y74975D01*
X22264D01*
X21698Y74408D01*
Y73842D01*
X23964D01*
D77*
X83659Y78790D02*
X86491D01*
X87057Y78223D01*
Y77090D01*
X86491Y76524D01*
X83659D01*
X84225Y73125D02*
X83659Y73691D01*
Y74825D01*
X84225Y75391D01*
X84791D01*
X85358Y74825D01*
Y73691D01*
X85925Y73125D01*
X86491D01*
X87057Y73691D01*
Y74825D01*
X86491Y75391D01*
X83659Y71992D02*
X87057D01*
Y70293D01*
X86491Y69726D01*
X85925D01*
X85358Y70293D01*
Y71992D01*
Y70293D01*
X84791Y69726D01*
X84225D01*
X83659Y70293D01*
Y71992D01*
X96557Y77822D02*
Y76689D01*
Y77255D01*
X93159D01*
X93725Y77822D01*
Y74989D02*
X93159Y74423D01*
Y73290D01*
X93725Y72723D01*
X94292D01*
X94858Y73290D01*
Y73856D01*
Y73290D01*
X95424Y72723D01*
X95991D01*
X96557Y73290D01*
Y74423D01*
X95991Y74989D01*
X96557Y71590D02*
X94292Y69324D01*
X96557Y68191D02*
X94292D01*
X93159Y67058D01*
X94292Y65926D01*
X96557D01*
X94858D01*
Y68191D01*
X96557Y64793D02*
Y63660D01*
Y64226D01*
X93159D01*
X93725Y64793D01*
X96557Y59694D02*
Y61960D01*
X94292Y59694D01*
X93725D01*
X93159Y60261D01*
Y61394D01*
X93725Y61960D01*
X164225Y76122D02*
X163658Y76689D01*
Y77822D01*
X164225Y78388D01*
X164792D01*
X165358Y77822D01*
Y76689D01*
X165925Y76122D01*
X166491D01*
X167057Y76689D01*
Y77822D01*
X166491Y78388D01*
X164225Y72723D02*
X163658Y73290D01*
Y74423D01*
X164225Y74989D01*
X166491D01*
X167057Y74423D01*
Y73290D01*
X166491Y72723D01*
X163658Y71590D02*
X167057D01*
Y69324D01*
Y68191D02*
X164792Y65926D01*
X167057Y62527D02*
Y64793D01*
X164792Y62527D01*
X164225D01*
X163658Y63093D01*
Y64226D01*
X164225Y64793D01*
X167057Y59128D02*
Y61394D01*
X164792Y59128D01*
X164225D01*
X163658Y59694D01*
Y60827D01*
X164225Y61394D01*
X173725Y76122D02*
X173159Y76689D01*
Y77822D01*
X173725Y78388D01*
X174292D01*
X174858Y77822D01*
Y76689D01*
X175425Y76122D01*
X175991D01*
X176557Y76689D01*
Y77822D01*
X175991Y78388D01*
X173159Y74989D02*
X176557D01*
Y73290D01*
X175991Y72723D01*
X173725D01*
X173159Y73290D01*
Y74989D01*
X176557Y71590D02*
X174292D01*
X173159Y70457D01*
X174292Y69324D01*
X176557D01*
X174858D01*
Y71590D01*
X176557Y68191D02*
X174292Y65926D01*
X176557Y62527D02*
Y64793D01*
X174292Y62527D01*
X173725D01*
X173159Y63093D01*
Y64226D01*
X173725Y64793D01*
Y61394D02*
X173159Y60827D01*
Y59694D01*
X173725Y59128D01*
X174292D01*
X174858Y59694D01*
Y60261D01*
Y59694D01*
X175425Y59128D01*
X175991D01*
X176557Y59694D01*
Y60827D01*
X175991Y61394D01*
X63159Y78790D02*
X66557D01*
Y77090D01*
X65991Y76524D01*
X65425D01*
X64858Y77090D01*
Y78790D01*
Y77090D01*
X64292Y76524D01*
X63725D01*
X63159Y77090D01*
Y78790D01*
X66557Y75391D02*
X64292D01*
X63159Y74258D01*
X64292Y73125D01*
X66557D01*
X64858D01*
Y75391D01*
X63159Y71992D02*
Y69726D01*
Y70859D01*
X66557D01*
X73159Y76324D02*
Y78590D01*
X76557D01*
Y76324D01*
X74858Y78590D02*
Y77457D01*
X76557Y75191D02*
X74291D01*
Y73492D01*
X74858Y72926D01*
X76557D01*
X27057Y20290D02*
X23659D01*
Y18590D01*
X24225Y18024D01*
X25358D01*
X25925Y18590D01*
Y20290D01*
Y19157D02*
X27057Y18024D01*
X24225Y14625D02*
X23659Y15191D01*
Y16325D01*
X24225Y16891D01*
X24791D01*
X25358Y16325D01*
Y15191D01*
X25925Y14625D01*
X26491D01*
X27057Y15191D01*
Y16325D01*
X26491Y16891D01*
X23659Y13492D02*
Y11226D01*
Y12359D01*
X27057D01*
X46558Y17090D02*
X43159D01*
X46558Y14825D01*
X43159D01*
X43725Y11426D02*
X43159Y11992D01*
Y13125D01*
X43725Y13691D01*
X45991D01*
X46558Y13125D01*
Y11992D01*
X45991Y11426D01*
X34225Y17090D02*
X33659Y16524D01*
Y15391D01*
X34225Y14825D01*
X34791D01*
X35358Y15391D01*
Y15957D01*
Y15391D01*
X35925Y14825D01*
X36491D01*
X37058Y15391D01*
Y16524D01*
X36491Y17090D01*
X33659Y13691D02*
X35925D01*
X37058Y12559D01*
X35925Y11426D01*
X33659D01*
X63557Y20590D02*
X61291D01*
X60159Y19457D01*
X61291Y18325D01*
X63557D01*
X61858D01*
Y20590D01*
X60725Y17191D02*
X60159Y16625D01*
Y15492D01*
X60725Y14926D01*
X62991D01*
X63557Y15492D01*
Y16625D01*
X62991Y17191D01*
X60725D01*
X66159Y23989D02*
X69557D01*
Y22290D01*
X68991Y21723D01*
X66725D01*
X66159Y22290D01*
Y23989D01*
X69557Y20590D02*
X67291D01*
X66159Y19457D01*
X67291Y18325D01*
X69557D01*
X67858D01*
Y20590D01*
X66725Y14926D02*
X66159Y15492D01*
Y16625D01*
X66725Y17191D01*
X68991D01*
X69557Y16625D01*
Y15492D01*
X68991Y14926D01*
X69557Y11527D02*
Y13793D01*
X67291Y11527D01*
X66725D01*
X66159Y12093D01*
Y13226D01*
X66725Y13793D01*
X147057Y33521D02*
X143658D01*
X144791Y32388D01*
X143658Y31255D01*
X147057D01*
X143658Y30122D02*
Y28989D01*
Y29556D01*
X147057D01*
Y30122D01*
Y28989D01*
X144225Y25024D02*
X143658Y25590D01*
Y26723D01*
X144225Y27290D01*
X144791D01*
X145358Y26723D01*
Y25590D01*
X145924Y25024D01*
X146491D01*
X147057Y25590D01*
Y26723D01*
X146491Y27290D01*
X143658Y22192D02*
Y23325D01*
X144225Y23891D01*
X146491D01*
X147057Y23325D01*
Y22192D01*
X146491Y21625D01*
X144225D01*
X143658Y22192D01*
X147057Y20492D02*
X144791Y18226D01*
X147057Y17093D02*
Y15960D01*
Y16527D01*
X143658D01*
X144225Y17093D01*
X146491Y14261D02*
X147057Y13694D01*
Y12561D01*
X146491Y11995D01*
X144225D01*
X143658Y12561D01*
Y13694D01*
X144225Y14261D01*
X144791D01*
X145358Y13694D01*
Y11995D01*
X156557Y27406D02*
X153158D01*
Y25706D01*
X153725Y25140D01*
X154858D01*
X155424Y25706D01*
Y27406D01*
Y26273D02*
X156557Y25140D01*
X153158Y24007D02*
X156557Y21741D01*
X153158D02*
X156557Y24007D01*
Y20608D02*
X154291Y18342D01*
X156557Y17209D02*
Y16076D01*
Y16642D01*
X153158D01*
X153725Y17209D01*
X153158Y12111D02*
X153725Y13243D01*
X154858Y14376D01*
X155991D01*
X156557Y13810D01*
Y12677D01*
X155991Y12111D01*
X155424D01*
X154858Y12677D01*
Y14376D01*
X163658Y27406D02*
Y25140D01*
Y26273D01*
X167057D01*
X163658Y24007D02*
X167057Y21741D01*
X163658D02*
X167057Y24007D01*
Y20608D02*
X164792Y18342D01*
X167057Y17209D02*
Y16076D01*
Y16642D01*
X163658D01*
X164225Y17209D01*
X163658Y14376D02*
Y12111D01*
X164225D01*
X166491Y14376D01*
X167057D01*
X53725Y18024D02*
X53159Y18590D01*
Y19723D01*
X53725Y20290D01*
X55991D01*
X56557Y19723D01*
Y18590D01*
X55991Y18024D01*
X54858D01*
Y19157D01*
X56557Y16891D02*
X53159D01*
X56557Y14625D01*
X53159D01*
Y13492D02*
X56557D01*
Y11793D01*
X55991Y11226D01*
X53725D01*
X53159Y11793D01*
Y13492D01*
X176557Y14258D02*
Y16524D01*
X174292Y14258D01*
X173725D01*
X173159Y14825D01*
Y15958D01*
X173725Y16524D01*
X176557Y13125D02*
Y11992D01*
Y12559D01*
X173159D01*
X173725Y13125D01*
X74057Y20524D02*
X71791D01*
X70659Y19391D01*
X71791Y18258D01*
X74057D01*
X72358D01*
Y20524D01*
X74057Y17125D02*
Y15992D01*
Y16558D01*
X70659D01*
X71225Y17125D01*
X76659Y23923D02*
X80057D01*
Y22223D01*
X79491Y21657D01*
X77225D01*
X76659Y22223D01*
Y23923D01*
X80057Y20524D02*
X77792D01*
X76659Y19391D01*
X77792Y18258D01*
X80057D01*
X78358D01*
Y20524D01*
X77225Y14859D02*
X76659Y15426D01*
Y16558D01*
X77225Y17125D01*
X79491D01*
X80057Y16558D01*
Y15426D01*
X79491Y14859D01*
X80057Y13726D02*
Y12593D01*
Y13160D01*
X76659D01*
X77225Y13726D01*
X86557Y27189D02*
X84291D01*
X83159Y26056D01*
X84291Y24923D01*
X86557D01*
X84858D01*
Y27189D01*
X86557Y21524D02*
Y23790D01*
X84291Y21524D01*
X83725D01*
X83159Y22090D01*
Y23223D01*
X83725Y23790D01*
X86557Y20391D02*
X84291Y18125D01*
X83725Y16992D02*
X83159Y16426D01*
Y15293D01*
X83725Y14726D01*
X84291D01*
X84858Y15293D01*
Y15859D01*
Y15293D01*
X85425Y14726D01*
X85991D01*
X86557Y15293D01*
Y16426D01*
X85991Y16992D01*
X86557Y11894D02*
X83159D01*
X84858Y13593D01*
Y11327D01*
X96557Y27189D02*
X94292D01*
X93159Y26056D01*
X94292Y24923D01*
X96557D01*
X94858D01*
Y27189D01*
X93725Y23790D02*
X93159Y23223D01*
Y22090D01*
X93725Y21524D01*
X94292D01*
X94858Y22090D01*
Y22657D01*
Y22090D01*
X95424Y21524D01*
X95991D01*
X96557Y22090D01*
Y23223D01*
X95991Y23790D01*
X96557Y20391D02*
X94292Y18125D01*
X93725Y16992D02*
X93159Y16426D01*
Y15293D01*
X93725Y14726D01*
X94292D01*
X94858Y15293D01*
Y15859D01*
Y15293D01*
X95424Y14726D01*
X95991D01*
X96557Y15293D01*
Y16426D01*
X95991Y16992D01*
Y13593D02*
X96557Y13027D01*
Y11894D01*
X95991Y11327D01*
X93725D01*
X93159Y11894D01*
Y13027D01*
X93725Y13593D01*
X94292D01*
X94858Y13027D01*
Y11327D01*
X107057Y27189D02*
X104791D01*
X103658Y26056D01*
X104791Y24923D01*
X107057D01*
X105358D01*
Y27189D01*
X107057Y22090D02*
X103658D01*
X105358Y23790D01*
Y21524D01*
X107057Y20391D02*
X104791Y18125D01*
X104225Y16992D02*
X103658Y16426D01*
Y15293D01*
X104225Y14726D01*
X104791D01*
X105358Y15293D01*
Y15859D01*
Y15293D01*
X105924Y14726D01*
X106491D01*
X107057Y15293D01*
Y16426D01*
X106491Y16992D01*
X103658Y11327D02*
X104225Y12460D01*
X105358Y13593D01*
X106491D01*
X107057Y13027D01*
Y11894D01*
X106491Y11327D01*
X105924D01*
X105358Y11894D01*
Y13593D01*
X116557Y23989D02*
X114292D01*
X113159Y22856D01*
X114292Y21723D01*
X116557D01*
X114858D01*
Y23989D01*
X113159Y18325D02*
Y20590D01*
X114858D01*
X114292Y19457D01*
Y18891D01*
X114858Y18325D01*
X115991D01*
X116557Y18891D01*
Y20024D01*
X115991Y20590D01*
X116557Y17191D02*
X114292Y14926D01*
X116557Y12093D02*
X113159D01*
X114858Y13793D01*
Y11527D01*
X123725Y24923D02*
X123159Y25489D01*
Y26622D01*
X123725Y27189D01*
X124292D01*
X124858Y26622D01*
Y25489D01*
X125425Y24923D01*
X125991D01*
X126557Y25489D01*
Y26622D01*
X125991Y27189D01*
X123725Y21524D02*
X123159Y22090D01*
Y23223D01*
X123725Y23790D01*
X125991D01*
X126557Y23223D01*
Y22090D01*
X125991Y21524D01*
X123159Y20391D02*
X126557D01*
X125425D01*
X123159Y18125D01*
X124858Y19825D01*
X126557Y18125D01*
Y16992D02*
X124292Y14726D01*
X123159Y11327D02*
Y13593D01*
X124858D01*
X124292Y12460D01*
Y11894D01*
X124858Y11327D01*
X125991D01*
X126557Y11894D01*
Y13027D01*
X125991Y13593D01*
X137057Y33521D02*
X133659D01*
X134792Y32388D01*
X133659Y31255D01*
X137057D01*
X133659Y28423D02*
Y29556D01*
X134225Y30122D01*
X136491D01*
X137057Y29556D01*
Y28423D01*
X136491Y27856D01*
X134225D01*
X133659Y28423D01*
X134225Y24457D02*
X133659Y25024D01*
Y26157D01*
X134225Y26723D01*
X134792D01*
X135358Y26157D01*
Y25024D01*
X135924Y24457D01*
X136491D01*
X137057Y25024D01*
Y26157D01*
X136491Y26723D01*
X133659Y23325D02*
Y22192D01*
Y22758D01*
X137057D01*
Y23325D01*
Y22192D01*
Y20492D02*
X134792Y18226D01*
X137057Y17093D02*
Y15960D01*
Y16527D01*
X133659D01*
X134225Y17093D01*
Y14261D02*
X133659Y13694D01*
Y12561D01*
X134225Y11995D01*
X134792D01*
X135358Y12561D01*
X135924Y11995D01*
X136491D01*
X137057Y12561D01*
Y13694D01*
X136491Y14261D01*
X135924D01*
X135358Y13694D01*
X134792Y14261D01*
X134225D01*
X135358Y13694D02*
Y12561D01*
X106557Y77255D02*
Y76122D01*
Y76689D01*
X103158D01*
X103725Y77255D01*
X106557Y72157D02*
Y74423D01*
X104291Y72157D01*
X103725D01*
X103158Y72723D01*
Y73856D01*
X103725Y74423D01*
X106557Y71024D02*
X104291Y68758D01*
X106557Y67625D02*
X104291D01*
X103158Y66492D01*
X104291Y65359D01*
X106557D01*
X104858D01*
Y67625D01*
X106557Y64226D02*
Y63093D01*
Y63660D01*
X103158D01*
X103725Y64226D01*
X106557Y61394D02*
Y60261D01*
Y60827D01*
X103158D01*
X103725Y61394D01*
X116557Y75839D02*
Y78105D01*
X114292Y75839D01*
X113725D01*
X113159Y76406D01*
Y77539D01*
X113725Y78105D01*
X113159Y74706D02*
Y72440D01*
X113725D01*
X115991Y74706D01*
X116557D01*
Y71307D02*
X114292Y69041D01*
X116557Y67908D02*
X114292D01*
X113159Y66775D01*
X114292Y65642D01*
X116557D01*
X114858D01*
Y67908D01*
X116557Y64509D02*
Y63376D01*
Y63943D01*
X113159D01*
X113725Y64509D01*
Y61677D02*
X113159Y61111D01*
Y59978D01*
X113725Y59411D01*
X115991D01*
X116557Y59978D01*
Y61111D01*
X115991Y61677D01*
X113725D01*
X124225Y78689D02*
X123659Y78122D01*
Y76989D01*
X124225Y76423D01*
X124792D01*
X125358Y76989D01*
Y77556D01*
Y76989D01*
X125925Y76423D01*
X126491D01*
X127057Y76989D01*
Y78122D01*
X126491Y78689D01*
X124225Y75290D02*
X123659Y74723D01*
Y73590D01*
X124225Y73024D01*
X124792D01*
X125358Y73590D01*
Y74157D01*
Y73590D01*
X125925Y73024D01*
X126491D01*
X127057Y73590D01*
Y74723D01*
X126491Y75290D01*
X127057Y71891D02*
X124792Y69625D01*
X127057Y68492D02*
X124792D01*
X123659Y67359D01*
X124792Y66226D01*
X127057D01*
X125358D01*
Y68492D01*
X126491Y65093D02*
X127057Y64527D01*
Y63394D01*
X126491Y62827D01*
X124225D01*
X123659Y63394D01*
Y64527D01*
X124225Y65093D01*
X124792D01*
X125358Y64527D01*
Y62827D01*
X136557Y78405D02*
Y77273D01*
Y77839D01*
X133159D01*
X133725Y78405D01*
X133159Y73307D02*
Y75573D01*
X134858D01*
X134292Y74440D01*
Y73874D01*
X134858Y73307D01*
X135991D01*
X136557Y73874D01*
Y75007D01*
X135991Y75573D01*
X136557Y72174D02*
X134292Y69908D01*
X136557Y68775D02*
X134292D01*
X133159Y67642D01*
X134292Y66509D01*
X136557D01*
X134858D01*
Y68775D01*
X133725Y65376D02*
X133159Y64810D01*
Y63677D01*
X133725Y63111D01*
X134292D01*
X134858Y63677D01*
X135424Y63111D01*
X135991D01*
X136557Y63677D01*
Y64810D01*
X135991Y65376D01*
X135424D01*
X134858Y64810D01*
X134292Y65376D01*
X133725D01*
X134858Y64810D02*
Y63677D01*
X143725Y78689D02*
X143158Y78122D01*
Y76989D01*
X143725Y76423D01*
X144291D01*
X144858Y76989D01*
Y77556D01*
Y76989D01*
X145424Y76423D01*
X145991D01*
X146557Y76989D01*
Y78122D01*
X145991Y78689D01*
X146557Y73024D02*
Y75290D01*
X144291Y73024D01*
X143725D01*
X143158Y73590D01*
Y74723D01*
X143725Y75290D01*
X146557Y71891D02*
X144291Y69625D01*
X146557Y68492D02*
X144291D01*
X143158Y67359D01*
X144291Y66226D01*
X146557D01*
X144858D01*
Y68492D01*
X143158Y65093D02*
Y62827D01*
X143725D01*
X145991Y65093D01*
X146557D01*
X156557Y78405D02*
Y77273D01*
Y77839D01*
X153158D01*
X153725Y78405D01*
X156557Y73874D02*
X153158D01*
X154858Y75573D01*
Y73307D01*
X156557Y72174D02*
X154291Y69908D01*
X156557Y68775D02*
X154291D01*
X153158Y67642D01*
X154291Y66509D01*
X156557D01*
X154858D01*
Y68775D01*
X153158Y63111D02*
X153725Y64243D01*
X154858Y65376D01*
X155991D01*
X156557Y64810D01*
Y63677D01*
X155991Y63111D01*
X155424D01*
X154858Y63677D01*
Y65376D01*
D78*
X83368Y66849D02*
X86200D01*
Y62600D01*
X83368D01*
X86200Y64724D02*
X84784D01*
X79119Y66141D02*
X79827Y66849D01*
X81243D01*
X81951Y66141D01*
Y65432D01*
X81243Y64724D01*
X79827D01*
X79119Y64016D01*
Y63308D01*
X79827Y62600D01*
X81243D01*
X81951Y63308D01*
X77703Y62600D02*
Y66849D01*
X75578D01*
X74870Y66141D01*
Y64724D01*
X75578Y64016D01*
X77703D01*
X73454Y66141D02*
X72746Y66849D01*
X71330D01*
X70622Y66141D01*
Y65432D01*
X71330Y64724D01*
X72038D01*
X71330D01*
X70622Y64016D01*
Y63308D01*
X71330Y62600D01*
X72746D01*
X73454Y63308D01*
X66373Y62600D02*
X69205D01*
X66373Y65432D01*
Y66141D01*
X67081Y66849D01*
X68497D01*
X69205Y66141D01*
X57876Y66849D02*
X60708D01*
Y64724D01*
X59292D01*
X60708D01*
Y62600D01*
X54335D02*
X55752D01*
X56460Y63308D01*
Y64724D01*
X55752Y65432D01*
X54335D01*
X53627Y64724D01*
Y64016D01*
X56460D01*
X51503Y65432D02*
X50087D01*
X49378Y64724D01*
Y62600D01*
X51503D01*
X52211Y63308D01*
X51503Y64016D01*
X49378D01*
X47254Y66141D02*
Y65432D01*
X47962D01*
X46546D01*
X47254D01*
Y63308D01*
X46546Y62600D01*
X44422Y66849D02*
Y62600D01*
Y64724D01*
X43714Y65432D01*
X42298D01*
X41589Y64724D01*
Y62600D01*
X38049D02*
X39465D01*
X40173Y63308D01*
Y64724D01*
X39465Y65432D01*
X38049D01*
X37341Y64724D01*
Y64016D01*
X40173D01*
X35925Y65432D02*
Y62600D01*
Y64016D01*
X35216Y64724D01*
X34508Y65432D01*
X33800D01*
X86200Y58640D02*
X85492Y59349D01*
X84076D01*
X83368Y58640D01*
Y57932D01*
X84076Y57224D01*
X83368Y56516D01*
Y55808D01*
X84076Y55100D01*
X85492D01*
X86200Y55808D01*
Y56516D01*
X85492Y57224D01*
X86200Y57932D01*
Y58640D01*
X85492Y57224D02*
X84076D01*
X81951Y55100D02*
Y59349D01*
X80535Y57932D01*
X79119Y59349D01*
Y55100D01*
X77703Y59349D02*
Y55100D01*
X75578D01*
X74870Y55808D01*
Y56516D01*
X75578Y57224D01*
X77703D01*
X75578D01*
X74870Y57932D01*
Y58640D01*
X75578Y59349D01*
X77703D01*
X66373D02*
X69205D01*
Y57224D01*
X67789D01*
X69205D01*
Y55100D01*
X64957D02*
X63541D01*
X64249D01*
Y59349D01*
X64957D01*
X60708Y57932D02*
X59292D01*
X58584Y57224D01*
Y55100D01*
X60708D01*
X61416Y55808D01*
X60708Y56516D01*
X58584D01*
X57168Y55100D02*
X55043D01*
X54335Y55808D01*
X55043Y56516D01*
X56460D01*
X57168Y57224D01*
X56460Y57932D01*
X54335D01*
X52919Y59349D02*
Y55100D01*
Y57224D01*
X52211Y57932D01*
X50795D01*
X50087Y57224D01*
Y55100D01*
X86200Y51849D02*
Y47600D01*
X84784Y49016D01*
X83368Y47600D01*
Y51849D01*
X81951Y47600D02*
X80535D01*
X81243D01*
Y50432D01*
X81951D01*
X75578Y51849D02*
X78411D01*
Y49724D01*
X76995D01*
X78411D01*
Y47600D01*
X74162Y51849D02*
X72746D01*
X73454D01*
Y47600D01*
X74162D01*
X72746D01*
X70622Y49724D02*
X67789D01*
X69205Y51140D02*
Y48308D01*
X66373Y51849D02*
Y47600D01*
X64249D01*
X63541Y48308D01*
Y49016D01*
X64249Y49724D01*
X66373D01*
X64249D01*
X63541Y50432D01*
Y51140D01*
X64249Y51849D01*
X66373D01*
X62124D02*
X59292D01*
X60708D01*
Y47600D01*
M02*
