G04*
G04 #@! TF.GenerationSoftware,Altium Limited,Altium Designer,20.2.6 (244)*
G04*
G04 Layer_Physical_Order=2*
G04 Layer_Color=16711680*
%FSLAX25Y25*%
%MOIN*%
G70*
G04*
G04 #@! TF.SameCoordinates,35E5D78F-83E5-4AAB-BCDB-BF6E4E5D2065*
G04*
G04*
G04 #@! TF.FilePolarity,Positive*
G04*
G01*
G75*
%ADD14C,0.00787*%
%ADD65C,0.09000*%
%ADD66C,0.13800*%
%ADD70C,0.01181*%
%ADD74C,0.06693*%
%ADD75C,0.02362*%
G36*
X92591Y88500D02*
X92257Y88243D01*
X91640Y87440D01*
X91253Y86504D01*
X91120Y85500D01*
X91253Y84496D01*
X91640Y83560D01*
X92257Y82757D01*
X93060Y82140D01*
X93996Y81753D01*
X95000Y81620D01*
X96004Y81753D01*
X96176Y81824D01*
X105000Y73000D01*
Y58982D01*
X104886Y58408D01*
X105000Y57835D01*
X105000Y40041D01*
X96500Y40041D01*
X96117Y39883D01*
X95959Y39500D01*
X95959Y31000D01*
X74612D01*
X73556Y32056D01*
X73612Y32112D01*
X73612Y43388D01*
X70300Y46700D01*
X61900Y46700D01*
X56400Y52200D01*
X53800Y52200D01*
X51600Y50000D01*
X44750Y50000D01*
X43500Y48750D01*
X43500Y47500D01*
X47100Y43900D01*
X51100D01*
X54000Y41000D01*
X54000Y29541D01*
X39500D01*
X39117Y29383D01*
X38959Y29000D01*
Y24000D01*
X39117Y23617D01*
X39500Y23459D01*
X44041D01*
X52250Y15250D01*
X52485D01*
X53323Y14411D01*
X53116Y13911D01*
X25192D01*
X25084Y14456D01*
X24712Y15012D01*
X24156Y15384D01*
X23500Y15514D01*
X22844Y15384D01*
X22288Y15012D01*
X21916Y14456D01*
X21786Y13800D01*
X21916Y13144D01*
X22288Y12588D01*
X22844Y12216D01*
X23500Y12086D01*
X24156Y12216D01*
X24170Y12226D01*
X24271Y12158D01*
X24620Y12089D01*
X68400D01*
Y7209D01*
X67900Y7039D01*
X67743Y7243D01*
X66940Y7860D01*
X66004Y8247D01*
X65000Y8380D01*
X63996Y8247D01*
X63060Y7860D01*
X62257Y7243D01*
X61640Y6440D01*
X61253Y5504D01*
X61120Y4500D01*
X61253Y3496D01*
X61640Y2560D01*
X62257Y1757D01*
X63060Y1140D01*
X63384Y1006D01*
X63284Y506D01*
X46716D01*
X46616Y1006D01*
X46940Y1140D01*
X47743Y1757D01*
X48360Y2560D01*
X48747Y3496D01*
X48880Y4500D01*
X48747Y5504D01*
X48360Y6440D01*
X47743Y7243D01*
X46940Y7860D01*
X46004Y8247D01*
X45000Y8380D01*
X43996Y8247D01*
X43060Y7860D01*
X42257Y7243D01*
X41640Y6440D01*
X41253Y5504D01*
X41120Y4500D01*
X41253Y3496D01*
X41640Y2560D01*
X42257Y1757D01*
X43060Y1140D01*
X43384Y1006D01*
X43284Y506D01*
X36715D01*
X36616Y1006D01*
X36940Y1140D01*
X37743Y1757D01*
X38360Y2560D01*
X38747Y3496D01*
X38880Y4500D01*
X38747Y5504D01*
X38360Y6440D01*
X37743Y7243D01*
X37163Y7689D01*
X37332Y8189D01*
X38687D01*
X38888Y7888D01*
X39444Y7516D01*
X40100Y7386D01*
X40756Y7516D01*
X41312Y7888D01*
X41684Y8444D01*
X41814Y9100D01*
X41684Y9756D01*
X41312Y10312D01*
X40756Y10684D01*
X40100Y10814D01*
X39444Y10684D01*
X38888Y10312D01*
X38687Y10011D01*
X29600D01*
X29251Y9942D01*
X28956Y9744D01*
X27014Y7803D01*
X26940Y7860D01*
X26004Y8247D01*
X25000Y8380D01*
X23996Y8247D01*
X23060Y7860D01*
X22257Y7243D01*
X21640Y6440D01*
X21253Y5504D01*
X21120Y4500D01*
X21253Y3496D01*
X21640Y2560D01*
X22257Y1757D01*
X23060Y1140D01*
X23384Y1006D01*
X23284Y506D01*
X10553D01*
X10523Y500D01*
X10509D01*
X10504Y501D01*
X10500Y501D01*
X10497D01*
X10482Y503D01*
X10464Y501D01*
X9845D01*
X8545Y672D01*
X7279Y1012D01*
X6068Y1513D01*
X4933Y2169D01*
X3893Y2966D01*
X2966Y3893D01*
X2169Y4933D01*
X1513Y6068D01*
X1012Y7279D01*
X1000Y7322D01*
X1000Y77496D01*
Y82732D01*
X1025Y82832D01*
X1823Y84558D01*
X2932Y86103D01*
X4312Y87411D01*
X5915Y88436D01*
X7329Y89000D01*
X62422Y89000D01*
X62591Y88500D01*
X62257Y88243D01*
X61640Y87440D01*
X61253Y86504D01*
X61120Y85500D01*
X61253Y84496D01*
X61640Y83560D01*
X62257Y82757D01*
X63060Y82140D01*
X63996Y81753D01*
X65000Y81620D01*
X66004Y81753D01*
X66940Y82140D01*
X67743Y82757D01*
X68360Y83560D01*
X68747Y84496D01*
X68880Y85500D01*
X68747Y86504D01*
X68360Y87440D01*
X67743Y88243D01*
X67409Y88500D01*
X67579Y89000D01*
X72421Y89000D01*
X72591Y88500D01*
X72257Y88243D01*
X71640Y87440D01*
X71253Y86504D01*
X71120Y85500D01*
X71253Y84496D01*
X71640Y83560D01*
X72257Y82757D01*
X73060Y82140D01*
X73996Y81753D01*
X75000Y81620D01*
X76004Y81753D01*
X76940Y82140D01*
X77014Y82197D01*
X79250Y79961D01*
X79140Y79415D01*
X79111Y79393D01*
X78500Y79514D01*
X77844Y79384D01*
X77288Y79012D01*
X76941Y78493D01*
X76869Y78445D01*
X75564Y77140D01*
X28528D01*
X28180Y77070D01*
X27884Y76873D01*
X24455Y73443D01*
X24100Y73514D01*
X23444Y73384D01*
X22888Y73012D01*
X22516Y72456D01*
X22386Y71800D01*
X22516Y71144D01*
X22888Y70588D01*
X23444Y70216D01*
X24100Y70086D01*
X24756Y70216D01*
X25312Y70588D01*
X25684Y71144D01*
X25814Y71800D01*
X25743Y72155D01*
X28906Y75317D01*
X75941D01*
X76290Y75387D01*
X76585Y75584D01*
X77469Y76468D01*
X77844Y76217D01*
X78500Y76086D01*
X79156Y76217D01*
X79712Y76588D01*
X80084Y77144D01*
X80214Y77800D01*
X80092Y78412D01*
X80115Y78440D01*
X80661Y78551D01*
X87589Y71623D01*
Y51413D01*
X87288Y51212D01*
X86916Y50656D01*
X86786Y50000D01*
X86916Y49344D01*
X87288Y48788D01*
X87844Y48416D01*
X88500Y48286D01*
X89156Y48416D01*
X89712Y48788D01*
X90084Y49344D01*
X90214Y50000D01*
X90084Y50656D01*
X89712Y51212D01*
X89411Y51413D01*
Y72000D01*
X89342Y72349D01*
X89144Y72644D01*
X78303Y83486D01*
X78360Y83560D01*
X78747Y84496D01*
X78880Y85500D01*
X78747Y86504D01*
X78360Y87440D01*
X77743Y88243D01*
X77409Y88500D01*
X77579Y89000D01*
X82421D01*
X82591Y88500D01*
X82257Y88243D01*
X81640Y87440D01*
X81253Y86504D01*
X81120Y85500D01*
X81253Y84496D01*
X81640Y83560D01*
X82257Y82757D01*
X83060Y82140D01*
X83996Y81753D01*
X85000Y81620D01*
X86004Y81753D01*
X86940Y82140D01*
X87743Y82757D01*
X88360Y83560D01*
X88747Y84496D01*
X88880Y85500D01*
X88747Y86504D01*
X88360Y87440D01*
X87743Y88243D01*
X87409Y88500D01*
X87578Y89000D01*
X92422D01*
X92591Y88500D01*
D02*
G37*
G36*
X173393Y88998D02*
X173060Y88860D01*
X172257Y88243D01*
X171640Y87440D01*
X171253Y86504D01*
X171120Y85500D01*
X171253Y84496D01*
X171640Y83560D01*
X172257Y82757D01*
X173060Y82140D01*
X173996Y81753D01*
X175000Y81620D01*
X175624Y81703D01*
X176000Y81373D01*
X176000Y8627D01*
X175624Y8298D01*
X175000Y8380D01*
X173996Y8247D01*
X173060Y7860D01*
X172257Y7243D01*
X171881Y6754D01*
X171231Y6697D01*
X163439Y14488D01*
X163401D01*
X162211Y15677D01*
X161916Y15875D01*
X161567Y15944D01*
X147546D01*
X147484Y16256D01*
X147112Y16812D01*
X146556Y17184D01*
X145900Y17314D01*
X145244Y17184D01*
X144688Y16812D01*
X144316Y16256D01*
X144186Y15600D01*
X144308Y14988D01*
X144291Y14863D01*
X144091Y14488D01*
X125512D01*
X120900Y19100D01*
X120900Y20400D01*
X125700Y25200D01*
X125735Y59300D01*
X131235Y64800D01*
X136700D01*
X154100Y64800D01*
X160500Y71200D01*
Y73719D01*
X160584Y73844D01*
X160714Y74500D01*
X160584Y75156D01*
X160500Y75281D01*
Y89498D01*
X163293Y89498D01*
X163392Y88998D01*
X163060Y88860D01*
X162257Y88243D01*
X161640Y87440D01*
X161253Y86504D01*
X161120Y85500D01*
X161253Y84496D01*
X161640Y83560D01*
X162257Y82757D01*
X163060Y82140D01*
X163996Y81753D01*
X165000Y81620D01*
X166004Y81753D01*
X166940Y82140D01*
X167014Y82197D01*
X171189Y78023D01*
Y70113D01*
X170888Y69912D01*
X170516Y69356D01*
X170386Y68700D01*
X170516Y68044D01*
X170888Y67488D01*
X171444Y67116D01*
X172100Y66986D01*
X172756Y67116D01*
X173312Y67488D01*
X173684Y68044D01*
X173814Y68700D01*
X173684Y69356D01*
X173312Y69912D01*
X173011Y70113D01*
Y78400D01*
X172942Y78749D01*
X172744Y79044D01*
X168303Y83486D01*
X168360Y83560D01*
X168747Y84496D01*
X168880Y85500D01*
X168747Y86504D01*
X168360Y87440D01*
X167743Y88243D01*
X166940Y88860D01*
X166607Y88998D01*
X166707Y89498D01*
X173294Y89498D01*
X173393Y88998D01*
D02*
G37*
G36*
X68500Y28911D02*
X65513D01*
X65312Y29212D01*
X64756Y29584D01*
X64100Y29714D01*
X63444Y29584D01*
X62888Y29212D01*
X62516Y28656D01*
X62386Y28000D01*
X62516Y27344D01*
X62888Y26788D01*
X63444Y26416D01*
X64100Y26286D01*
X64756Y26416D01*
X65312Y26788D01*
X65513Y27089D01*
X68500D01*
Y27000D01*
X72000Y23500D01*
X72211D01*
X72256Y23456D01*
X72551Y23258D01*
X72900Y23189D01*
X84653D01*
X84988Y22688D01*
X85544Y22316D01*
X86200Y22186D01*
X86856Y22316D01*
X87412Y22688D01*
X87784Y23244D01*
X87835Y23500D01*
X89213D01*
X89288Y23388D01*
X89844Y23016D01*
X90500Y22886D01*
X91156Y23016D01*
X91712Y23388D01*
X91787Y23500D01*
X94000Y23500D01*
X96500Y26000D01*
X96500Y39500D01*
X105000Y39500D01*
Y29500D01*
X90000Y14500D01*
X54000D01*
X44500Y24000D01*
X39500D01*
Y29000D01*
X55211D01*
X62030Y22182D01*
X62325Y21984D01*
X62674Y21915D01*
X64847D01*
X65048Y21614D01*
X65604Y21242D01*
X66260Y21112D01*
X66916Y21242D01*
X67472Y21614D01*
X67843Y22170D01*
X67974Y22826D01*
X67843Y23482D01*
X67472Y24038D01*
X66916Y24409D01*
X66260Y24540D01*
X65604Y24409D01*
X65048Y24038D01*
X64847Y23737D01*
X63051D01*
X58251Y28538D01*
X58442Y29000D01*
X58500D01*
Y30915D01*
X59336D01*
X59688Y30388D01*
X60244Y30016D01*
X60900Y29886D01*
X61556Y30016D01*
X62112Y30388D01*
X62484Y30944D01*
X62614Y31600D01*
X62484Y32256D01*
X62112Y32812D01*
X61556Y33184D01*
X60900Y33314D01*
X60244Y33184D01*
X59688Y32812D01*
X59638Y32737D01*
X58937D01*
X58500Y33174D01*
X58500Y41000D01*
X59500Y42000D01*
X68500D01*
Y28911D01*
D02*
G37*
%LPC*%
G36*
X10000Y87436D02*
X8549Y87293D01*
X7154Y86870D01*
X5869Y86183D01*
X4742Y85258D01*
X3817Y84131D01*
X3130Y82846D01*
X2707Y81451D01*
X2564Y80000D01*
X2707Y78549D01*
X3130Y77154D01*
X3817Y75869D01*
X4742Y74742D01*
X5869Y73817D01*
X7154Y73130D01*
X8549Y72707D01*
X10000Y72564D01*
X11451Y72707D01*
X12846Y73130D01*
X14131Y73817D01*
X15258Y74742D01*
X16183Y75869D01*
X16870Y77154D01*
X17293Y78549D01*
X17436Y80000D01*
X17293Y81451D01*
X16870Y82846D01*
X16183Y84131D01*
X15258Y85258D01*
X14131Y86183D01*
X12846Y86870D01*
X11451Y87293D01*
X10000Y87436D01*
D02*
G37*
G36*
X11336Y61685D02*
X11323Y61680D01*
X11310Y61685D01*
X11196Y61682D01*
X11182Y61676D01*
X11168Y61681D01*
X11055Y61672D01*
X11041Y61665D01*
X11026Y61669D01*
X10914Y61654D01*
X10901Y61646D01*
X10886Y61649D01*
X10774Y61629D01*
X10762Y61620D01*
X10747Y61623D01*
X10636Y61596D01*
X10624Y61587D01*
X10609Y61589D01*
X10500Y61557D01*
X10488Y61547D01*
X10473Y61548D01*
X10366Y61510D01*
X10355Y61500D01*
X10340D01*
X10235Y61457D01*
X10224Y61446D01*
X10209Y61445D01*
X10107Y61396D01*
X10096Y61385D01*
X10081Y61383D01*
X9982Y61329D01*
X9972Y61317D01*
X9957Y61315D01*
X9860Y61256D01*
X9851Y61243D01*
X9837Y61240D01*
X9743Y61176D01*
X9735Y61163D01*
X9720Y61159D01*
X9630Y61090D01*
X9623Y61077D01*
X9608Y61072D01*
X9522Y60999D01*
X9515Y60985D01*
X9501Y60980D01*
X9418Y60902D01*
X9412Y60888D01*
X9398Y60882D01*
X9320Y60799D01*
X9315Y60785D01*
X9301Y60778D01*
X9228Y60692D01*
X9223Y60677D01*
X9210Y60670D01*
X9141Y60580D01*
X9137Y60565D01*
X9124Y60557D01*
X9060Y60463D01*
X9057Y60449D01*
X9044Y60440D01*
X8985Y60343D01*
X8983Y60328D01*
X8971Y60318D01*
X8917Y60219D01*
X8915Y60204D01*
X8904Y60194D01*
X8855Y60091D01*
X8854Y60076D01*
X8843Y60065D01*
X8800Y59960D01*
Y59945D01*
X8790Y59934D01*
X8752Y59827D01*
X8753Y59812D01*
X8743Y59800D01*
X8711Y59691D01*
X8713Y59676D01*
X8704Y59664D01*
X8677Y59553D01*
X8680Y59538D01*
X8671Y59526D01*
X8651Y59414D01*
X8654Y59399D01*
X8646Y59386D01*
X8631Y59274D01*
X8636Y59258D01*
X8628Y59244D01*
X8619Y59115D01*
X8628Y59088D01*
X8617Y59061D01*
X8620Y58952D01*
X8626Y58939D01*
X8622Y58924D01*
X8630Y58816D01*
X8637Y58803D01*
X8633Y58788D01*
X8647Y58681D01*
X8655Y58668D01*
X8652Y58653D01*
X8671Y58546D01*
X8680Y58534D01*
X8677Y58519D01*
X8703Y58413D01*
X8711Y58401D01*
X8710Y58386D01*
X8741Y58282D01*
X8750Y58271D01*
X8749Y58255D01*
X8785Y58153D01*
X8796Y58142D01*
Y58127D01*
X8837Y58027D01*
X8848Y58016D01*
X8849Y58001D01*
X8895Y57903D01*
X8906Y57893D01*
X8908Y57878D01*
X8960Y57783D01*
X8971Y57774D01*
X8974Y57759D01*
X9030Y57666D01*
X9043Y57657D01*
X9046Y57643D01*
X9107Y57553D01*
X9120Y57545D01*
X9124Y57530D01*
X9189Y57445D01*
X9203Y57437D01*
X9207Y57423D01*
X9278Y57340D01*
X9291Y57333D01*
X9297Y57319D01*
X9371Y57241D01*
X9385Y57235D01*
X9391Y57221D01*
X9470Y57146D01*
X9484Y57141D01*
X9491Y57127D01*
X9573Y57057D01*
X9587Y57052D01*
X9595Y57039D01*
X9681Y56973D01*
X9696Y56969D01*
X9704Y56957D01*
X9793Y56895D01*
X9808Y56892D01*
X9817Y56880D01*
X9909Y56823D01*
X9924Y56821D01*
X9933Y56809D01*
X10029Y56757D01*
X10044Y56756D01*
X10054Y56745D01*
X10152Y56698D01*
X10167Y56697D01*
X10177Y56687D01*
X10277Y56645D01*
X10293D01*
X10304Y56635D01*
X10406Y56599D01*
X10421Y56600D01*
X10433Y56590D01*
X10537Y56559D01*
X10552Y56561D01*
X10564Y56552D01*
X10669Y56527D01*
X10684Y56529D01*
X10697Y56521D01*
X10803Y56501D01*
X10818Y56504D01*
X10831Y56497D01*
X10938Y56483D01*
X10953Y56486D01*
X10967Y56480D01*
X11075Y56471D01*
X11089Y56476D01*
X11103Y56470D01*
X11211Y56467D01*
X11218Y56470D01*
X11225Y56467D01*
X14172D01*
X14264Y56465D01*
X14277Y56470D01*
X14290Y56465D01*
X14404Y56468D01*
X14418Y56474D01*
X14432Y56469D01*
X14545Y56478D01*
X14559Y56485D01*
X14574Y56481D01*
X14686Y56496D01*
X14699Y56503D01*
X14714Y56500D01*
X14826Y56521D01*
X14838Y56529D01*
X14853Y56527D01*
X14964Y56553D01*
X14976Y56562D01*
X14991Y56561D01*
X15100Y56593D01*
X15112Y56602D01*
X15127Y56602D01*
X15234Y56639D01*
X15245Y56650D01*
X15260D01*
X15365Y56693D01*
X15376Y56704D01*
X15391Y56705D01*
X15493Y56753D01*
X15504Y56765D01*
X15519Y56766D01*
X15618Y56820D01*
X15628Y56832D01*
X15643Y56835D01*
X15740Y56894D01*
X15749Y56906D01*
X15764Y56909D01*
X15857Y56974D01*
X15865Y56986D01*
X15880Y56990D01*
X15970Y57059D01*
X15978Y57073D01*
X15992Y57077D01*
X16078Y57151D01*
X16085Y57164D01*
X16099Y57170D01*
X16182Y57248D01*
X16188Y57262D01*
X16202Y57268D01*
X16280Y57350D01*
X16285Y57364D01*
X16299Y57371D01*
X16372Y57458D01*
X16377Y57472D01*
X16390Y57480D01*
X16459Y57570D01*
X16463Y57584D01*
X16476Y57593D01*
X16540Y57686D01*
X16544Y57701D01*
X16556Y57710D01*
X16615Y57807D01*
X16617Y57822D01*
X16629Y57831D01*
X16683Y57931D01*
X16685Y57946D01*
X16696Y57956D01*
X16745Y58059D01*
X16746Y58074D01*
X16757Y58084D01*
X16800Y58189D01*
Y58205D01*
X16810Y58216D01*
X16848Y58323D01*
X16847Y58338D01*
X16857Y58350D01*
X16889Y58459D01*
X16887Y58474D01*
X16896Y58486D01*
X16923Y58596D01*
X16920Y58611D01*
X16929Y58624D01*
X16949Y58736D01*
X16946Y58750D01*
X16954Y58763D01*
X16969Y58876D01*
X16964Y58892D01*
X16972Y58906D01*
X16981Y59034D01*
X16972Y59062D01*
X16983Y59089D01*
X16980Y59197D01*
X16974Y59211D01*
X16978Y59225D01*
X16970Y59333D01*
X16963Y59347D01*
X16967Y59361D01*
X16953Y59469D01*
X16945Y59482D01*
X16948Y59497D01*
X16929Y59603D01*
X16920Y59616D01*
X16923Y59631D01*
X16898Y59736D01*
X16889Y59748D01*
X16890Y59763D01*
X16860Y59867D01*
X16850Y59879D01*
X16851Y59894D01*
X16815Y59996D01*
X16804Y60007D01*
Y60023D01*
X16763Y60123D01*
X16752Y60133D01*
X16751Y60149D01*
X16705Y60246D01*
X16694Y60256D01*
X16692Y60271D01*
X16641Y60366D01*
X16629Y60376D01*
X16626Y60391D01*
X16570Y60483D01*
X16557Y60492D01*
X16554Y60507D01*
X16493Y60596D01*
X16480Y60605D01*
X16476Y60619D01*
X16410Y60705D01*
X16397Y60713D01*
X16393Y60727D01*
X16322Y60809D01*
X16309Y60816D01*
X16303Y60830D01*
X16229Y60909D01*
X16215Y60915D01*
X16209Y60929D01*
X16130Y61003D01*
X16116Y61009D01*
X16109Y61022D01*
X16027Y61093D01*
X16013Y61097D01*
X16005Y61111D01*
X15919Y61176D01*
X15904Y61180D01*
X15896Y61193D01*
X15807Y61254D01*
X15792Y61257D01*
X15783Y61270D01*
X15691Y61326D01*
X15676Y61329D01*
X15666Y61340D01*
X15571Y61392D01*
X15556Y61394D01*
X15546Y61405D01*
X15449Y61452D01*
X15433Y61452D01*
X15423Y61463D01*
X15323Y61505D01*
X15307D01*
X15296Y61515D01*
X15194Y61551D01*
X15179Y61550D01*
X15167Y61559D01*
X15064Y61590D01*
X15048Y61589D01*
X15036Y61598D01*
X14931Y61623D01*
X14916Y61620D01*
X14903Y61629D01*
X14797Y61648D01*
X14782Y61645D01*
X14769Y61653D01*
X14661Y61667D01*
X14647Y61663D01*
X14633Y61670D01*
X14525Y61678D01*
X14511Y61674D01*
X14497Y61680D01*
X14389Y61683D01*
X14382Y61680D01*
X14375Y61683D01*
X11428D01*
X11336Y61685D01*
D02*
G37*
G36*
X37900Y46814D02*
X37244Y46684D01*
X36688Y46312D01*
X36420Y45911D01*
X20713D01*
X20512Y46212D01*
X19956Y46584D01*
X19300Y46714D01*
X18644Y46584D01*
X18088Y46212D01*
X17716Y45656D01*
X17586Y45000D01*
X17716Y44344D01*
X18088Y43788D01*
X18644Y43416D01*
X19300Y43286D01*
X19956Y43416D01*
X20512Y43788D01*
X20713Y44089D01*
X36554D01*
X36688Y43888D01*
X37244Y43516D01*
X37900Y43386D01*
X38556Y43516D01*
X39112Y43888D01*
X39484Y44444D01*
X39614Y45100D01*
X39484Y45756D01*
X39112Y46312D01*
X38556Y46684D01*
X37900Y46814D01*
D02*
G37*
G36*
X11336Y33535D02*
X11323Y33530D01*
X11310Y33535D01*
X11196Y33532D01*
X11182Y33526D01*
X11168Y33531D01*
X11055Y33522D01*
X11041Y33515D01*
X11026Y33519D01*
X10914Y33504D01*
X10901Y33497D01*
X10886Y33500D01*
X10774Y33479D01*
X10762Y33471D01*
X10747Y33473D01*
X10636Y33447D01*
X10624Y33438D01*
X10609Y33439D01*
X10500Y33407D01*
X10488Y33398D01*
X10473Y33398D01*
X10366Y33361D01*
X10355Y33350D01*
X10340D01*
X10235Y33307D01*
X10224Y33296D01*
X10209Y33295D01*
X10107Y33247D01*
X10096Y33235D01*
X10081Y33234D01*
X9982Y33180D01*
X9972Y33168D01*
X9957Y33165D01*
X9860Y33106D01*
X9851Y33094D01*
X9837Y33091D01*
X9743Y33026D01*
X9735Y33014D01*
X9720Y33010D01*
X9630Y32941D01*
X9623Y32928D01*
X9608Y32923D01*
X9522Y32849D01*
X9515Y32836D01*
X9501Y32830D01*
X9418Y32752D01*
X9412Y32738D01*
X9398Y32732D01*
X9320Y32650D01*
X9315Y32636D01*
X9301Y32629D01*
X9228Y32542D01*
X9223Y32528D01*
X9210Y32520D01*
X9141Y32430D01*
X9137Y32416D01*
X9124Y32407D01*
X9060Y32314D01*
X9057Y32299D01*
X9044Y32290D01*
X8985Y32193D01*
X8983Y32178D01*
X8971Y32169D01*
X8917Y32069D01*
X8915Y32054D01*
X8904Y32044D01*
X8855Y31941D01*
X8854Y31926D01*
X8843Y31916D01*
X8800Y31811D01*
Y31795D01*
X8790Y31784D01*
X8752Y31677D01*
X8753Y31662D01*
X8743Y31650D01*
X8711Y31541D01*
X8713Y31526D01*
X8704Y31514D01*
X8677Y31404D01*
X8680Y31389D01*
X8671Y31376D01*
X8651Y31264D01*
X8654Y31250D01*
X8646Y31236D01*
X8631Y31124D01*
X8636Y31108D01*
X8628Y31094D01*
X8619Y30966D01*
X8628Y30938D01*
X8617Y30911D01*
X8620Y30803D01*
X8626Y30789D01*
X8622Y30775D01*
X8630Y30667D01*
X8637Y30653D01*
X8633Y30639D01*
X8647Y30531D01*
X8655Y30518D01*
X8652Y30503D01*
X8671Y30397D01*
X8680Y30384D01*
X8677Y30369D01*
X8703Y30264D01*
X8711Y30252D01*
X8710Y30237D01*
X8741Y30133D01*
X8750Y30121D01*
X8749Y30106D01*
X8785Y30004D01*
X8795Y29992D01*
Y29977D01*
X8837Y29877D01*
X8848Y29867D01*
X8849Y29851D01*
X8895Y29754D01*
X8906Y29744D01*
X8908Y29729D01*
X8960Y29634D01*
X8971Y29624D01*
X8974Y29609D01*
X9030Y29517D01*
X9043Y29508D01*
X9046Y29493D01*
X9107Y29404D01*
X9120Y29395D01*
X9124Y29381D01*
X9189Y29295D01*
X9203Y29287D01*
X9207Y29273D01*
X9278Y29191D01*
X9291Y29184D01*
X9297Y29170D01*
X9371Y29091D01*
X9385Y29085D01*
X9391Y29071D01*
X9470Y28997D01*
X9484Y28991D01*
X9491Y28978D01*
X9573Y28907D01*
X9587Y28903D01*
X9595Y28890D01*
X9681Y28824D01*
X9696Y28820D01*
X9704Y28807D01*
X9793Y28746D01*
X9808Y28743D01*
X9817Y28730D01*
X9909Y28674D01*
X9924Y28671D01*
X9933Y28660D01*
X10029Y28608D01*
X10044Y28606D01*
X10054Y28595D01*
X10152Y28548D01*
X10167Y28548D01*
X10177Y28537D01*
X10277Y28495D01*
X10293D01*
X10304Y28485D01*
X10406Y28449D01*
X10421Y28450D01*
X10433Y28440D01*
X10537Y28410D01*
X10552Y28411D01*
X10564Y28402D01*
X10669Y28377D01*
X10684Y28380D01*
X10697Y28371D01*
X10803Y28352D01*
X10818Y28355D01*
X10831Y28347D01*
X10938Y28333D01*
X10953Y28337D01*
X10967Y28330D01*
X11075Y28322D01*
X11089Y28326D01*
X11103Y28320D01*
X11211Y28317D01*
X11218Y28320D01*
X11225Y28317D01*
X14172D01*
X14264Y28315D01*
X14277Y28320D01*
X14290Y28315D01*
X14404Y28318D01*
X14418Y28324D01*
X14432Y28319D01*
X14545Y28328D01*
X14559Y28335D01*
X14574Y28331D01*
X14686Y28346D01*
X14699Y28354D01*
X14714Y28351D01*
X14826Y28371D01*
X14838Y28379D01*
X14853Y28377D01*
X14964Y28404D01*
X14976Y28413D01*
X14991Y28411D01*
X15100Y28443D01*
X15112Y28453D01*
X15127Y28452D01*
X15234Y28490D01*
X15245Y28500D01*
X15260D01*
X15365Y28543D01*
X15376Y28554D01*
X15391Y28555D01*
X15494Y28604D01*
X15504Y28615D01*
X15519Y28617D01*
X15618Y28671D01*
X15628Y28683D01*
X15643Y28685D01*
X15740Y28744D01*
X15749Y28756D01*
X15763Y28760D01*
X15857Y28824D01*
X15865Y28837D01*
X15880Y28841D01*
X15970Y28910D01*
X15978Y28923D01*
X15992Y28928D01*
X16078Y29001D01*
X16085Y29015D01*
X16099Y29020D01*
X16182Y29098D01*
X16188Y29112D01*
X16202Y29118D01*
X16280Y29201D01*
X16285Y29215D01*
X16299Y29222D01*
X16372Y29308D01*
X16377Y29322D01*
X16390Y29330D01*
X16459Y29420D01*
X16463Y29435D01*
X16476Y29443D01*
X16540Y29537D01*
X16544Y29551D01*
X16556Y29560D01*
X16615Y29657D01*
X16617Y29672D01*
X16629Y29682D01*
X16683Y29781D01*
X16685Y29796D01*
X16696Y29807D01*
X16745Y29909D01*
X16746Y29924D01*
X16757Y29935D01*
X16800Y30040D01*
Y30055D01*
X16810Y30066D01*
X16848Y30173D01*
X16847Y30188D01*
X16857Y30200D01*
X16889Y30309D01*
X16887Y30324D01*
X16896Y30336D01*
X16923Y30447D01*
X16920Y30462D01*
X16929Y30474D01*
X16949Y30586D01*
X16946Y30601D01*
X16954Y30614D01*
X16969Y30726D01*
X16964Y30742D01*
X16972Y30757D01*
X16981Y30885D01*
X16972Y30912D01*
X16983Y30939D01*
X16980Y31047D01*
X16974Y31061D01*
X16978Y31076D01*
X16970Y31184D01*
X16963Y31197D01*
X16967Y31212D01*
X16953Y31319D01*
X16945Y31332D01*
X16948Y31347D01*
X16929Y31454D01*
X16920Y31466D01*
X16923Y31481D01*
X16898Y31587D01*
X16889Y31599D01*
X16890Y31614D01*
X16860Y31718D01*
X16850Y31729D01*
X16851Y31745D01*
X16815Y31847D01*
X16804Y31858D01*
Y31873D01*
X16763Y31973D01*
X16752Y31984D01*
X16751Y31999D01*
X16705Y32097D01*
X16694Y32107D01*
X16692Y32122D01*
X16641Y32217D01*
X16629Y32226D01*
X16626Y32241D01*
X16570Y32334D01*
X16557Y32343D01*
X16554Y32357D01*
X16493Y32447D01*
X16480Y32455D01*
X16476Y32469D01*
X16410Y32555D01*
X16397Y32563D01*
X16393Y32577D01*
X16322Y32660D01*
X16309Y32667D01*
X16303Y32681D01*
X16229Y32759D01*
X16215Y32765D01*
X16209Y32779D01*
X16130Y32854D01*
X16116Y32859D01*
X16109Y32873D01*
X16027Y32943D01*
X16013Y32948D01*
X16005Y32961D01*
X15919Y33027D01*
X15904Y33031D01*
X15896Y33043D01*
X15807Y33105D01*
X15792Y33108D01*
X15783Y33120D01*
X15691Y33177D01*
X15676Y33179D01*
X15666Y33191D01*
X15571Y33242D01*
X15556Y33244D01*
X15546Y33255D01*
X15449Y33302D01*
X15433Y33303D01*
X15423Y33313D01*
X15323Y33355D01*
X15307D01*
X15296Y33365D01*
X15194Y33401D01*
X15179Y33400D01*
X15167Y33410D01*
X15064Y33441D01*
X15048Y33439D01*
X15036Y33448D01*
X14931Y33473D01*
X14916Y33471D01*
X14903Y33479D01*
X14797Y33499D01*
X14782Y33496D01*
X14769Y33503D01*
X14661Y33517D01*
X14647Y33514D01*
X14633Y33520D01*
X14525Y33529D01*
X14511Y33524D01*
X14497Y33530D01*
X14389Y33533D01*
X14382Y33530D01*
X14375Y33533D01*
X11428D01*
X11336Y33535D01*
D02*
G37*
G36*
X10000Y17436D02*
X8549Y17293D01*
X7154Y16870D01*
X5869Y16183D01*
X4742Y15258D01*
X3817Y14131D01*
X3130Y12846D01*
X2707Y11451D01*
X2564Y10000D01*
X2707Y8549D01*
X3130Y7154D01*
X3817Y5869D01*
X4742Y4742D01*
X5869Y3817D01*
X7154Y3130D01*
X8549Y2707D01*
X10000Y2564D01*
X11451Y2707D01*
X12846Y3130D01*
X14131Y3817D01*
X15258Y4742D01*
X16183Y5869D01*
X16870Y7154D01*
X17293Y8549D01*
X17436Y10000D01*
X17293Y11451D01*
X16870Y12846D01*
X16183Y14131D01*
X15258Y15258D01*
X14131Y16183D01*
X12846Y16870D01*
X11451Y17293D01*
X10000Y17436D01*
D02*
G37*
%LPD*%
G36*
X11422Y61142D02*
X14375D01*
X14483Y61139D01*
X14591Y61130D01*
X14698Y61116D01*
X14805Y61097D01*
X14910Y61071D01*
X15013Y61041D01*
X15115Y61004D01*
X15215Y60963D01*
X15313Y60916D01*
X15408Y60865D01*
X15500Y60808D01*
X15590Y60747D01*
X15676Y60681D01*
X15758Y60611D01*
X15836Y60536D01*
X15911Y60458D01*
X15981Y60376D01*
X16047Y60290D01*
X16108Y60201D01*
X16165Y60108D01*
X16217Y60013D01*
X16263Y59916D01*
X16304Y59816D01*
X16341Y59714D01*
X16371Y59610D01*
X16397Y59504D01*
X16416Y59398D01*
X16430Y59291D01*
X16439Y59183D01*
X16442Y59075D01*
X16432Y58947D01*
X16417Y58834D01*
X16397Y58723D01*
X16370Y58612D01*
X16338Y58503D01*
X16300Y58396D01*
X16257Y58292D01*
X16208Y58189D01*
X16154Y58089D01*
X16094Y57993D01*
X16030Y57899D01*
X15961Y57809D01*
X15887Y57723D01*
X15809Y57640D01*
X15727Y57562D01*
X15641Y57489D01*
X15551Y57420D01*
X15457Y57355D01*
X15360Y57296D01*
X15260Y57242D01*
X15158Y57193D01*
X15053Y57150D01*
X14946Y57112D01*
X14837Y57079D01*
X14727Y57053D01*
X14615Y57032D01*
X14503Y57017D01*
X14390Y57009D01*
X14276Y57006D01*
X14178Y57008D01*
X11225D01*
X11117Y57011D01*
X11009Y57019D01*
X10902Y57033D01*
X10796Y57053D01*
X10690Y57078D01*
X10587Y57109D01*
X10485Y57145D01*
X10385Y57187D01*
X10287Y57233D01*
X10192Y57285D01*
X10099Y57341D01*
X10010Y57403D01*
X9924Y57468D01*
X9842Y57539D01*
X9764Y57613D01*
X9689Y57692D01*
X9619Y57774D01*
X9553Y57860D01*
X9492Y57949D01*
X9435Y58041D01*
X9384Y58136D01*
X9337Y58234D01*
X9296Y58334D01*
X9259Y58436D01*
X9229Y58540D01*
X9203Y58645D01*
X9184Y58751D01*
X9170Y58859D01*
X9161Y58967D01*
X9158Y59075D01*
X9168Y59203D01*
X9183Y59316D01*
X9203Y59427D01*
X9230Y59537D01*
X9262Y59646D01*
X9300Y59753D01*
X9343Y59858D01*
X9392Y59960D01*
X9446Y60060D01*
X9506Y60157D01*
X9570Y60251D01*
X9639Y60340D01*
X9713Y60427D01*
X9791Y60509D01*
X9873Y60587D01*
X9960Y60661D01*
X10050Y60730D01*
X10143Y60794D01*
X10240Y60854D01*
X10340Y60908D01*
X10442Y60957D01*
X10547Y61000D01*
X10654Y61038D01*
X10763Y61070D01*
X10873Y61097D01*
X10984Y61117D01*
X11097Y61132D01*
X11210Y61141D01*
X11324Y61144D01*
X11422Y61142D01*
D02*
G37*
%LPC*%
G36*
X14375Y59961D02*
X11225D01*
X11179Y59959D01*
X11133Y59956D01*
X11087Y59950D01*
X11041Y59941D01*
X10996Y59930D01*
X10951Y59917D01*
X10908Y59902D01*
X10865Y59884D01*
X10823Y59864D01*
X10782Y59842D01*
X10743Y59818D01*
X10705Y59791D01*
X10668Y59763D01*
X10633Y59733D01*
X10599Y59701D01*
X10567Y59667D01*
X10537Y59632D01*
X10509Y59596D01*
X10482Y59557D01*
X10458Y59518D01*
X10436Y59477D01*
X10416Y59435D01*
X10398Y59392D01*
X10383Y59348D01*
X10369Y59304D01*
X10359Y59259D01*
X10350Y59213D01*
X10344Y59167D01*
X10341Y59121D01*
X10339Y59075D01*
X10341Y59028D01*
X10344Y58982D01*
X10350Y58936D01*
X10359Y58891D01*
X10369Y58846D01*
X10383Y58801D01*
X10398Y58757D01*
X10416Y58714D01*
X10436Y58673D01*
X10458Y58632D01*
X10482Y58592D01*
X10509Y58554D01*
X10537Y58517D01*
X10567Y58482D01*
X10599Y58448D01*
X10633Y58416D01*
X10668Y58386D01*
X10705Y58358D01*
X10743Y58332D01*
X10782Y58308D01*
X10823Y58285D01*
X10865Y58266D01*
X10908Y58248D01*
X10951Y58232D01*
X10996Y58219D01*
X11041Y58208D01*
X11087Y58200D01*
X11133Y58194D01*
X11179Y58190D01*
X11225Y58189D01*
X14375D01*
X14421Y58190D01*
X14467Y58194D01*
X14513Y58200D01*
X14559Y58208D01*
X14604Y58219D01*
X14649Y58232D01*
X14692Y58248D01*
X14735Y58266D01*
X14777Y58285D01*
X14818Y58308D01*
X14857Y58332D01*
X14896Y58358D01*
X14932Y58386D01*
X14967Y58416D01*
X15001Y58448D01*
X15033Y58482D01*
X15063Y58517D01*
X15091Y58554D01*
X15118Y58592D01*
X15142Y58632D01*
X15164Y58673D01*
X15184Y58714D01*
X15202Y58757D01*
X15217Y58801D01*
X15230Y58846D01*
X15241Y58891D01*
X15250Y58936D01*
X15256Y58982D01*
X15259Y59028D01*
X15261Y59075D01*
X15259Y59121D01*
X15256Y59167D01*
X15250Y59213D01*
X15241Y59259D01*
X15230Y59304D01*
X15217Y59348D01*
X15202Y59392D01*
X15184Y59435D01*
X15164Y59477D01*
X15142Y59518D01*
X15118Y59557D01*
X15091Y59596D01*
X15063Y59632D01*
X15033Y59667D01*
X15001Y59701D01*
X14967Y59733D01*
X14932Y59763D01*
X14896Y59791D01*
X14857Y59818D01*
X14818Y59842D01*
X14777Y59864D01*
X14735Y59884D01*
X14692Y59902D01*
X14649Y59917D01*
X14604Y59930D01*
X14559Y59941D01*
X14513Y59950D01*
X14467Y59956D01*
X14421Y59959D01*
X14375Y59961D01*
D02*
G37*
%LPD*%
G36*
X11422Y32992D02*
X14375D01*
X14483Y32989D01*
X14591Y32981D01*
X14698Y32967D01*
X14805Y32947D01*
X14910Y32922D01*
X15013Y32891D01*
X15115Y32855D01*
X15215Y32813D01*
X15313Y32767D01*
X15408Y32715D01*
X15500Y32659D01*
X15590Y32597D01*
X15676Y32531D01*
X15758Y32461D01*
X15836Y32387D01*
X15911Y32308D01*
X15981Y32226D01*
X16047Y32140D01*
X16108Y32051D01*
X16165Y31959D01*
X16217Y31864D01*
X16263Y31766D01*
X16304Y31666D01*
X16341Y31564D01*
X16371Y31460D01*
X16397Y31355D01*
X16416Y31249D01*
X16430Y31141D01*
X16439Y31033D01*
X16442Y30925D01*
X16432Y30797D01*
X16417Y30685D01*
X16397Y30573D01*
X16370Y30463D01*
X16338Y30354D01*
X16300Y30247D01*
X16257Y30142D01*
X16208Y30040D01*
X16154Y29940D01*
X16094Y29843D01*
X16030Y29750D01*
X15961Y29660D01*
X15887Y29573D01*
X15809Y29491D01*
X15727Y29413D01*
X15641Y29339D01*
X15551Y29270D01*
X15457Y29206D01*
X15360Y29146D01*
X15260Y29092D01*
X15158Y29043D01*
X15053Y29000D01*
X14946Y28962D01*
X14837Y28930D01*
X14727Y28903D01*
X14615Y28883D01*
X14503Y28868D01*
X14390Y28859D01*
X14276Y28856D01*
X14178Y28858D01*
X11225D01*
X11117Y28861D01*
X11009Y28870D01*
X10902Y28884D01*
X10796Y28903D01*
X10690Y28929D01*
X10587Y28959D01*
X10485Y28995D01*
X10385Y29037D01*
X10287Y29084D01*
X10192Y29135D01*
X10099Y29192D01*
X10010Y29253D01*
X9924Y29319D01*
X9842Y29389D01*
X9764Y29464D01*
X9689Y29542D01*
X9619Y29624D01*
X9553Y29710D01*
X9492Y29800D01*
X9435Y29892D01*
X9384Y29987D01*
X9337Y30084D01*
X9296Y30185D01*
X9259Y30286D01*
X9229Y30390D01*
X9203Y30496D01*
X9184Y30602D01*
X9170Y30709D01*
X9161Y30817D01*
X9158Y30925D01*
X9168Y31053D01*
X9183Y31166D01*
X9203Y31277D01*
X9230Y31388D01*
X9262Y31497D01*
X9300Y31604D01*
X9343Y31708D01*
X9392Y31811D01*
X9446Y31911D01*
X9506Y32007D01*
X9570Y32101D01*
X9639Y32191D01*
X9713Y32277D01*
X9791Y32359D01*
X9873Y32438D01*
X9960Y32511D01*
X10050Y32580D01*
X10143Y32645D01*
X10240Y32704D01*
X10340Y32758D01*
X10442Y32807D01*
X10547Y32850D01*
X10654Y32888D01*
X10763Y32921D01*
X10873Y32947D01*
X10984Y32968D01*
X11097Y32983D01*
X11210Y32991D01*
X11324Y32994D01*
X11422Y32992D01*
D02*
G37*
%LPC*%
G36*
X14375Y31811D02*
X11225D01*
X11179Y31810D01*
X11133Y31806D01*
X11087Y31800D01*
X11041Y31792D01*
X10996Y31781D01*
X10951Y31768D01*
X10908Y31752D01*
X10865Y31734D01*
X10823Y31714D01*
X10782Y31692D01*
X10743Y31668D01*
X10705Y31642D01*
X10668Y31614D01*
X10633Y31583D01*
X10599Y31552D01*
X10567Y31518D01*
X10537Y31483D01*
X10509Y31446D01*
X10482Y31408D01*
X10458Y31368D01*
X10436Y31327D01*
X10416Y31286D01*
X10398Y31243D01*
X10383Y31199D01*
X10369Y31155D01*
X10359Y31109D01*
X10350Y31064D01*
X10344Y31018D01*
X10341Y30972D01*
X10339Y30925D01*
X10341Y30879D01*
X10344Y30833D01*
X10350Y30787D01*
X10359Y30741D01*
X10369Y30696D01*
X10383Y30652D01*
X10398Y30608D01*
X10416Y30565D01*
X10436Y30523D01*
X10458Y30482D01*
X10482Y30443D01*
X10509Y30404D01*
X10537Y30368D01*
X10567Y30332D01*
X10599Y30299D01*
X10633Y30267D01*
X10668Y30237D01*
X10705Y30209D01*
X10743Y30182D01*
X10782Y30158D01*
X10823Y30136D01*
X10865Y30116D01*
X10908Y30098D01*
X10951Y30083D01*
X10996Y30070D01*
X11041Y30059D01*
X11087Y30050D01*
X11133Y30044D01*
X11179Y30041D01*
X11225Y30039D01*
X14375D01*
X14421Y30041D01*
X14467Y30044D01*
X14513Y30050D01*
X14559Y30059D01*
X14604Y30070D01*
X14649Y30083D01*
X14692Y30098D01*
X14735Y30116D01*
X14777Y30136D01*
X14818Y30158D01*
X14857Y30182D01*
X14896Y30209D01*
X14932Y30237D01*
X14967Y30267D01*
X15001Y30299D01*
X15033Y30332D01*
X15063Y30368D01*
X15091Y30404D01*
X15118Y30443D01*
X15142Y30482D01*
X15164Y30523D01*
X15184Y30565D01*
X15202Y30608D01*
X15217Y30652D01*
X15230Y30696D01*
X15241Y30741D01*
X15250Y30787D01*
X15256Y30833D01*
X15259Y30879D01*
X15261Y30925D01*
X15259Y30972D01*
X15256Y31018D01*
X15250Y31064D01*
X15241Y31109D01*
X15230Y31155D01*
X15217Y31199D01*
X15202Y31243D01*
X15184Y31286D01*
X15164Y31327D01*
X15142Y31368D01*
X15118Y31408D01*
X15091Y31446D01*
X15063Y31483D01*
X15033Y31518D01*
X15001Y31552D01*
X14967Y31583D01*
X14932Y31614D01*
X14896Y31642D01*
X14857Y31668D01*
X14818Y31692D01*
X14777Y31714D01*
X14735Y31734D01*
X14692Y31752D01*
X14649Y31768D01*
X14604Y31781D01*
X14559Y31792D01*
X14513Y31800D01*
X14467Y31806D01*
X14421Y31810D01*
X14375Y31811D01*
D02*
G37*
%LPD*%
D14*
X109400Y76900D02*
X112900Y80400D01*
X19300Y45000D02*
X37800D01*
X37900Y45100D01*
X165000Y85500D02*
X172100Y78400D01*
Y68700D02*
Y78400D01*
X93239Y24826D02*
X94972Y26559D01*
X93641Y29772D02*
X94972Y28441D01*
Y26559D02*
Y28441D01*
X90726Y24826D02*
X93239D01*
X90500Y24600D02*
X90726Y24826D01*
X25000Y4500D02*
X29600Y9100D01*
X40100D01*
X88500Y50000D02*
Y72000D01*
X75000Y85500D02*
X88500Y72000D01*
X62674Y22826D02*
X66260D01*
X146220Y15600D02*
X146786Y15033D01*
X145900Y15600D02*
X146220D01*
X149441Y9500D02*
X154441Y4500D01*
X155000D01*
X126800Y12000D02*
X157500D01*
X165000Y4500D01*
X24100Y71800D02*
X28528Y76228D01*
X75941D01*
X77513Y77800D02*
X78500D01*
X75941Y76228D02*
X77513Y77800D01*
X51800Y45200D02*
X55500Y41500D01*
Y30000D02*
Y41500D01*
Y30000D02*
X62674Y22826D01*
X70000Y31000D02*
X73500Y27500D01*
X95000Y85500D02*
X106600Y73900D01*
X147000Y77500D02*
X155000Y85500D01*
X112900Y80400D02*
X129900D01*
X69000Y28000D02*
X72900Y24100D01*
X64100Y28000D02*
X69000D01*
X23500Y13800D02*
X23820D01*
X24620Y13000D01*
X65000Y4500D02*
X66055Y5555D01*
X68464D01*
X73909Y11000D01*
X79374Y8874D02*
X79437D01*
X75000Y4500D02*
X79374Y8874D01*
X79437D02*
X79500Y8937D01*
X72900Y24100D02*
X86200D01*
X129900Y80400D02*
X135000Y85500D01*
X121574Y74000D02*
X122000D01*
X126570Y74536D02*
X147114D01*
X116900Y64900D02*
X121038Y69038D01*
X119400Y63600D02*
X127200Y71400D01*
X124000Y60083D02*
X130417Y66500D01*
X128623Y68800D02*
X149500D01*
X121600Y61777D02*
X123397Y63573D01*
X123397D01*
X106600Y58408D02*
Y73900D01*
X116900Y27400D02*
Y64900D01*
X119400Y27133D02*
Y63600D01*
X114500Y67200D02*
X120767Y73467D01*
X121600Y26600D02*
Y61777D01*
X111274Y28274D02*
X112200Y29200D01*
X115498Y23231D02*
X119400Y27133D01*
X112593Y26593D02*
X114500Y28500D01*
X114412Y24912D02*
X116900Y27400D01*
X105000Y4500D02*
Y10000D01*
X124000Y25300D02*
Y60083D01*
X114113Y15413D02*
X124000Y25300D01*
X127200Y71400D02*
X148100D01*
X121038Y69038D02*
X121072D01*
X126570Y74536D01*
X79500Y8937D02*
X90785D01*
X73909Y11000D02*
X90470D01*
X106600Y29100D02*
Y58408D01*
X90500Y13000D02*
X106600Y29100D01*
X24620Y13000D02*
X90500D01*
X95299Y12299D02*
X111274Y28274D01*
X91777Y12299D02*
X95299D01*
X114412Y24912D02*
X114412D01*
X112593Y26593D02*
X112593D01*
X85000Y4500D02*
X86492D01*
X89247Y7256D01*
X92473Y10618D02*
X96618D01*
X91481Y7256D02*
X92182Y7957D01*
X98437Y8937D02*
X114412Y24912D01*
X93169Y8937D02*
X98437D01*
X98128Y6030D02*
X98298D01*
X96598Y4500D02*
X98128Y6030D01*
X98298D02*
X115498Y23231D01*
X105000Y10000D02*
X121600Y26600D01*
X45500Y48000D02*
X48300Y45200D01*
X51800D01*
X57500Y32600D02*
Y42800D01*
Y32600D02*
X58274Y31826D01*
X60674D01*
X60900Y31600D01*
X55400Y44900D02*
X57500Y42800D01*
X55400Y44900D02*
Y45200D01*
X57672Y46128D02*
Y46141D01*
X49000Y48000D02*
X55813D01*
X57672Y46141D01*
X55326Y50174D02*
X56626D01*
X55100Y50400D02*
X55326Y50174D01*
X57672Y46128D02*
X60600Y43200D01*
X70000Y31000D02*
Y42508D01*
X69308Y43200D02*
X70000Y42508D01*
X60600Y43200D02*
X69308D01*
X61700Y45100D02*
X69900D01*
X56626Y50174D02*
X61700Y45100D01*
X69900D02*
X71900Y43100D01*
Y31863D02*
X73991Y29772D01*
X71900Y31863D02*
Y43100D01*
X73991Y29772D02*
X93641D01*
X155000Y74300D02*
Y74500D01*
X118000Y15500D02*
X124000Y9500D01*
X96618Y10618D02*
X112593Y26593D01*
X124000Y9500D02*
X149441D01*
X89247Y7256D02*
X91481D01*
X90785Y8937D02*
X91486Y9638D01*
X111274Y28274D02*
X111274D01*
X122000Y15500D02*
X125500Y12000D01*
X126800D01*
X130417Y66500D02*
X151600D01*
X149500Y68800D02*
X155000Y74300D01*
X123397Y63573D02*
X128623Y68800D01*
X90470Y11000D02*
X90789Y11319D01*
X161567Y15033D02*
X171112Y5488D01*
X174012D01*
X175000Y4500D01*
X146786Y15033D02*
X161567D01*
X120767Y73467D02*
X121041D01*
X148100Y71400D02*
X151215Y74515D01*
X92189Y7957D02*
X93169Y8937D01*
X92182Y7957D02*
X92189D01*
X91493Y9638D02*
X92473Y10618D01*
X91486Y9638D02*
X91493D01*
X151600Y66500D02*
X158409Y73309D01*
X90796Y11319D02*
X91777Y12299D01*
X90789Y11319D02*
X90796D01*
X73500Y27500D02*
X91100D01*
X114500Y28500D02*
Y67200D01*
X121041Y73467D02*
X121574Y74000D01*
X109400Y30600D02*
Y76900D01*
X95000Y4500D02*
X96598D01*
X115498Y23231D02*
X115498D01*
X112200Y69200D02*
X117000Y74000D01*
X114500Y77500D02*
X147000D01*
X112000Y75000D02*
X114500Y77500D01*
X112200Y29200D02*
Y69200D01*
D65*
X190000Y7500D02*
D03*
Y82500D02*
D03*
D66*
X10000Y10000D02*
D03*
Y80000D02*
D03*
D70*
X66609Y25689D02*
X70670Y21628D01*
X87141D01*
X87694Y22181D01*
X61828Y27059D02*
X63198Y25689D01*
X66609D01*
X68275Y21628D02*
X70670D01*
X61828Y27059D02*
Y29316D01*
X64200Y31687D01*
Y37376D01*
X94181Y22181D02*
X98587Y26587D01*
X87694Y22181D02*
X94181D01*
X98587Y26587D02*
Y35160D01*
X67201Y20554D02*
X68275Y21628D01*
X50179Y20554D02*
X67201D01*
X42769Y27707D02*
X43026D01*
X50179Y20554D01*
D74*
X175000Y85500D02*
D03*
X165000D02*
D03*
X155000D02*
D03*
X145000D02*
D03*
X135000D02*
D03*
X125000D02*
D03*
X115000D02*
D03*
X105000D02*
D03*
X95000D02*
D03*
X85000D02*
D03*
X75000D02*
D03*
X65000D02*
D03*
X25000Y4500D02*
D03*
X35000D02*
D03*
X45000D02*
D03*
X55000D02*
D03*
X65000D02*
D03*
X75000D02*
D03*
X85000D02*
D03*
X95000D02*
D03*
X105000D02*
D03*
X115000D02*
D03*
X125000D02*
D03*
X135000D02*
D03*
X145000D02*
D03*
X155000D02*
D03*
X165000D02*
D03*
X175000D02*
D03*
D75*
X30345Y65748D02*
D03*
X30371Y72993D02*
D03*
X37590Y65750D02*
D03*
X26755Y62026D02*
D03*
X26753Y69271D02*
D03*
X34000Y62000D02*
D03*
X33997Y69245D02*
D03*
X37616Y72995D02*
D03*
X40100Y9100D02*
D03*
X118000Y15500D02*
D03*
X145900Y15600D02*
D03*
X122000Y15500D02*
D03*
X24100Y71800D02*
D03*
X23500Y13800D02*
D03*
X90500Y24600D02*
D03*
X19300Y45000D02*
D03*
X37900Y45100D02*
D03*
X66260Y22826D02*
D03*
X75000Y78500D02*
D03*
X171600Y12600D02*
D03*
X172100Y68700D02*
D03*
X25700Y36700D02*
D03*
X36900Y32000D02*
D03*
X44300Y33500D02*
D03*
X94500Y32600D02*
D03*
X94300Y43600D02*
D03*
X85400Y61600D02*
D03*
X98587Y35160D02*
D03*
X60900Y31600D02*
D03*
X64200Y37376D02*
D03*
X88500Y50000D02*
D03*
X49000Y48000D02*
D03*
X45500D02*
D03*
X78500Y77800D02*
D03*
X106600Y58408D02*
D03*
X102500Y67700D02*
D03*
X109400Y30600D02*
D03*
X86200Y23900D02*
D03*
X64100Y28000D02*
D03*
X112000Y75000D02*
D03*
X114000Y15500D02*
D03*
X147000Y74500D02*
D03*
X55400Y45200D02*
D03*
X55100Y50400D02*
D03*
X169213Y71587D02*
D03*
X65000Y70802D02*
D03*
X159000Y74500D02*
D03*
X155000D02*
D03*
X151000D02*
D03*
X12600Y34900D02*
D03*
X10100Y19900D02*
D03*
X5100Y39900D02*
D03*
Y29900D02*
D03*
X20100D02*
D03*
X5100Y49900D02*
D03*
X7600Y34900D02*
D03*
X94400Y62398D02*
D03*
X159600Y60200D02*
D03*
X164600Y30200D02*
D03*
Y40200D02*
D03*
X167100Y55200D02*
D03*
X164600Y60200D02*
D03*
X167100Y25200D02*
D03*
Y35200D02*
D03*
X46300Y17800D02*
D03*
X138302Y41734D02*
D03*
X138360Y56192D02*
D03*
X149600Y30200D02*
D03*
X152100Y25200D02*
D03*
X144600Y30200D02*
D03*
X147100Y25200D02*
D03*
X142100Y35200D02*
D03*
Y25200D02*
D03*
X137100Y35200D02*
D03*
X147100D02*
D03*
X134600Y30200D02*
D03*
X137100Y25200D02*
D03*
X139600Y30200D02*
D03*
X132100Y35200D02*
D03*
X129600Y30200D02*
D03*
X132100Y25200D02*
D03*
X127100Y35200D02*
D03*
Y25200D02*
D03*
X162100Y45200D02*
D03*
X159600Y40200D02*
D03*
X162100Y35200D02*
D03*
X159600Y30200D02*
D03*
X162100Y25200D02*
D03*
X159600Y20200D02*
D03*
X154600Y60200D02*
D03*
X157100Y55200D02*
D03*
X154600Y50200D02*
D03*
Y40200D02*
D03*
X157100Y35200D02*
D03*
X154600Y30200D02*
D03*
X157100Y25200D02*
D03*
X154600Y20200D02*
D03*
X152100Y35200D02*
D03*
X117000Y74000D02*
D03*
X80200Y34747D02*
D03*
X8900Y26900D02*
D03*
X24600Y31900D02*
D03*
X5200Y45100D02*
D03*
X18700Y35100D02*
D03*
X40700Y17600D02*
D03*
X157100Y45200D02*
D03*
X159600Y50200D02*
D03*
X164600D02*
D03*
X162100Y55200D02*
D03*
X169600Y40200D02*
D03*
X167100Y45200D02*
D03*
X169600Y50200D02*
D03*
X4200Y19100D02*
D03*
X40936Y25616D02*
D03*
X33400Y47100D02*
D03*
X41000Y21700D02*
D03*
X91100Y27500D02*
D03*
X44323Y25581D02*
D03*
X42769Y27707D02*
D03*
X141987Y52444D02*
D03*
X149199Y52412D02*
D03*
X52000Y41200D02*
D03*
X134742Y52470D02*
D03*
X149202Y45167D02*
D03*
X141989Y45199D02*
D03*
X134744Y45225D02*
D03*
X145605Y56194D02*
D03*
X145547Y41737D02*
D03*
X145579Y48949D02*
D03*
X98100Y37800D02*
D03*
X90576Y70967D02*
D03*
X138334Y48947D02*
D03*
X122000Y74000D02*
D03*
X84760Y47500D02*
D03*
M02*
