G04*
G04 #@! TF.GenerationSoftware,Altium Limited,Altium Designer,20.2.6 (244)*
G04*
G04 Layer_Color=16711935*
%FSLAX25Y25*%
%MOIN*%
G70*
G04*
G04 #@! TF.SameCoordinates,35E5D78F-83E5-4AAB-BCDB-BF6E4E5D2065*
G04*
G04*
G04 #@! TF.FilePolarity,Negative*
G04*
G01*
G75*
%ADD64C,0.07284*%
%ADD65C,0.09000*%
%ADD66C,0.13800*%
G36*
X11425Y33288D02*
X14375D01*
X14379Y33288D01*
X14383Y33288D01*
X14491Y33285D01*
X14499Y33285D01*
X14506D01*
X14614Y33276D01*
X14622Y33275D01*
X14629Y33274D01*
X14737Y33260D01*
X14744Y33259D01*
X14752Y33258D01*
X14859Y33238D01*
X14866Y33236D01*
X14874Y33235D01*
X14979Y33210D01*
X14986Y33207D01*
X14994Y33206D01*
X15098Y33175D01*
X15105Y33172D01*
X15112Y33170D01*
X15214Y33134D01*
X15221Y33131D01*
X15229Y33128D01*
X15329Y33087D01*
X15336Y33084D01*
X15343Y33081D01*
X15441Y33034D01*
X15447Y33030D01*
X15454Y33027D01*
X15550Y32976D01*
X15556Y32971D01*
X15563Y32968D01*
X15655Y32911D01*
X15662Y32907D01*
X15668Y32903D01*
X15757Y32842D01*
X15764Y32837D01*
X15770Y32832D01*
X15856Y32767D01*
X15862Y32761D01*
X15868Y32757D01*
X15950Y32686D01*
X15956Y32681D01*
X15962Y32676D01*
X16040Y32602D01*
X16046Y32596D01*
X16051Y32591D01*
X16126Y32512D01*
X16131Y32506D01*
X16136Y32501D01*
X16206Y32418D01*
X16211Y32412D01*
X16216Y32406D01*
X16282Y32320D01*
X16286Y32314D01*
X16291Y32308D01*
X16352Y32219D01*
X16356Y32212D01*
X16361Y32206D01*
X16417Y32113D01*
X16421Y32107D01*
X16425Y32100D01*
X16477Y32005D01*
X16480Y31998D01*
X16484Y31991D01*
X16530Y31893D01*
X16533Y31886D01*
X16537Y31879D01*
X16578Y31779D01*
X16580Y31772D01*
X16584Y31765D01*
X16620Y31663D01*
X16622Y31655D01*
X16625Y31648D01*
X16655Y31544D01*
X16657Y31537D01*
X16659Y31529D01*
X16685Y31424D01*
X16686Y31416D01*
X16688Y31409D01*
X16707Y31302D01*
X16708Y31295D01*
X16710Y31287D01*
X16724Y31180D01*
X16725Y31172D01*
X16726Y31165D01*
X16734Y31057D01*
Y31049D01*
X16735Y31041D01*
X16738Y30933D01*
X16737Y30918D01*
X16737Y30903D01*
X16727Y30775D01*
X16726Y30767D01*
X16726Y30758D01*
X16711Y30646D01*
X16709Y30638D01*
X16709Y30631D01*
X16688Y30519D01*
X16686Y30512D01*
X16685Y30504D01*
X16658Y30393D01*
X16656Y30386D01*
X16654Y30378D01*
X16622Y30270D01*
X16619Y30263D01*
X16617Y30255D01*
X16579Y30148D01*
X16576Y30141D01*
X16574Y30134D01*
X16530Y30029D01*
X16527Y30022D01*
X16524Y30014D01*
X16475Y29912D01*
X16471Y29905D01*
X16468Y29898D01*
X16414Y29798D01*
X16410Y29792D01*
X16406Y29785D01*
X16347Y29688D01*
X16342Y29682D01*
X16338Y29675D01*
X16274Y29582D01*
X16269Y29576D01*
X16265Y29569D01*
X16196Y29479D01*
X16191Y29473D01*
X16186Y29467D01*
X16112Y29381D01*
X16107Y29375D01*
X16102Y29369D01*
X16024Y29287D01*
X16018Y29282D01*
X16013Y29276D01*
X15931Y29198D01*
X15925Y29193D01*
X15919Y29188D01*
X15833Y29114D01*
X15827Y29109D01*
X15821Y29104D01*
X15731Y29035D01*
X15724Y29031D01*
X15718Y29026D01*
X15625Y28962D01*
X15618Y28958D01*
X15612Y28953D01*
X15515Y28894D01*
X15508Y28890D01*
X15502Y28886D01*
X15402Y28832D01*
X15395Y28829D01*
X15388Y28825D01*
X15286Y28776D01*
X15278Y28773D01*
X15271Y28770D01*
X15167Y28726D01*
X15159Y28724D01*
X15152Y28721D01*
X15045Y28683D01*
X15037Y28681D01*
X15030Y28678D01*
X14921Y28646D01*
X14914Y28644D01*
X14907Y28642D01*
X14796Y28615D01*
X14788Y28614D01*
X14781Y28612D01*
X14669Y28591D01*
X14662Y28591D01*
X14654Y28589D01*
X14542Y28574D01*
X14534Y28574D01*
X14526Y28573D01*
X14413Y28564D01*
X14405D01*
X14398Y28563D01*
X14284Y28560D01*
X14277Y28560D01*
X14270Y28560D01*
X14175Y28562D01*
X11225D01*
X11221Y28562D01*
X11217Y28562D01*
X11109Y28565D01*
X11102Y28566D01*
X11094D01*
X10986Y28574D01*
X10978Y28576D01*
X10971Y28576D01*
X10863Y28590D01*
X10856Y28592D01*
X10848Y28593D01*
X10741Y28612D01*
X10734Y28614D01*
X10726Y28615D01*
X10621Y28641D01*
X10614Y28643D01*
X10606Y28645D01*
X10502Y28675D01*
X10495Y28678D01*
X10488Y28680D01*
X10386Y28716D01*
X10379Y28719D01*
X10371Y28722D01*
X10271Y28763D01*
X10264Y28767D01*
X10257Y28770D01*
X10159Y28816D01*
X10153Y28820D01*
X10146Y28823D01*
X10050Y28875D01*
X10044Y28879D01*
X10037Y28883D01*
X9945Y28939D01*
X9938Y28944D01*
X9932Y28948D01*
X9843Y29009D01*
X9837Y29014D01*
X9830Y29018D01*
X9744Y29084D01*
X9738Y29089D01*
X9732Y29094D01*
X9650Y29164D01*
X9644Y29169D01*
X9638Y29174D01*
X9560Y29249D01*
X9555Y29255D01*
X9549Y29260D01*
X9474Y29338D01*
X9470Y29344D01*
X9464Y29350D01*
X9394Y29432D01*
X9389Y29438D01*
X9384Y29444D01*
X9318Y29530D01*
X9314Y29537D01*
X9309Y29542D01*
X9248Y29632D01*
X9244Y29638D01*
X9239Y29645D01*
X9183Y29737D01*
X9179Y29744D01*
X9175Y29750D01*
X9123Y29845D01*
X9120Y29853D01*
X9116Y29859D01*
X9070Y29957D01*
X9067Y29964D01*
X9063Y29971D01*
X9022Y30071D01*
X9020Y30079D01*
X9016Y30086D01*
X8980Y30188D01*
X8978Y30195D01*
X8975Y30202D01*
X8945Y30306D01*
X8943Y30314D01*
X8941Y30321D01*
X8915Y30426D01*
X8914Y30434D01*
X8912Y30441D01*
X8892Y30548D01*
X8892Y30556D01*
X8890Y30563D01*
X8876Y30670D01*
X8875Y30678D01*
X8874Y30686D01*
X8866Y30794D01*
Y30801D01*
X8865Y30809D01*
X8862Y30918D01*
X8863Y30932D01*
X8863Y30947D01*
X8873Y31076D01*
X8874Y31084D01*
X8874Y31092D01*
X8889Y31205D01*
X8891Y31212D01*
X8891Y31220D01*
X8912Y31331D01*
X8914Y31339D01*
X8915Y31347D01*
X8942Y31457D01*
X8944Y31464D01*
X8946Y31472D01*
X8978Y31581D01*
X8981Y31588D01*
X8983Y31595D01*
X9021Y31702D01*
X9024Y31710D01*
X9026Y31717D01*
X9070Y31822D01*
X9073Y31829D01*
X9076Y31836D01*
X9125Y31938D01*
X9129Y31945D01*
X9132Y31952D01*
X9186Y32052D01*
X9190Y32058D01*
X9194Y32065D01*
X9253Y32162D01*
X9258Y32168D01*
X9262Y32175D01*
X9326Y32269D01*
X9331Y32275D01*
X9335Y32281D01*
X9404Y32371D01*
X9409Y32377D01*
X9414Y32383D01*
X9488Y32469D01*
X9493Y32475D01*
X9498Y32481D01*
X9576Y32563D01*
X9582Y32568D01*
X9587Y32574D01*
X9669Y32653D01*
X9675Y32657D01*
X9681Y32663D01*
X9767Y32737D01*
X9773Y32741D01*
X9779Y32746D01*
X9869Y32815D01*
X9876Y32820D01*
X9882Y32825D01*
X9975Y32889D01*
X9982Y32893D01*
X9988Y32897D01*
X10085Y32956D01*
X10092Y32960D01*
X10098Y32964D01*
X10198Y33018D01*
X10205Y33022D01*
X10212Y33026D01*
X10315Y33074D01*
X10322Y33077D01*
X10329Y33081D01*
X10434Y33124D01*
X10441Y33126D01*
X10448Y33130D01*
X10555Y33167D01*
X10562Y33169D01*
X10570Y33172D01*
X10678Y33204D01*
X10686Y33206D01*
X10694Y33209D01*
X10804Y33235D01*
X10812Y33236D01*
X10819Y33238D01*
X10931Y33259D01*
X10938Y33260D01*
X10946Y33261D01*
X11058Y33276D01*
X11066Y33277D01*
X11074Y33278D01*
X11187Y33287D01*
X11195D01*
X11202Y33288D01*
X11316Y33290D01*
X11323Y33290D01*
X11330Y33290D01*
X11425Y33288D01*
D02*
G37*
G36*
X11425Y61438D02*
X14375D01*
X14379Y61438D01*
X14383Y61438D01*
X14491Y61435D01*
X14498Y61434D01*
X14506D01*
X14614Y61426D01*
X14622Y61424D01*
X14629Y61424D01*
X14737Y61410D01*
X14744Y61408D01*
X14752Y61408D01*
X14859Y61388D01*
X14866Y61386D01*
X14874Y61385D01*
X14979Y61359D01*
X14986Y61357D01*
X14994Y61355D01*
X15098Y61325D01*
X15105Y61322D01*
X15112Y61320D01*
X15214Y61284D01*
X15221Y61281D01*
X15229Y61278D01*
X15329Y61237D01*
X15336Y61233D01*
X15343Y61230D01*
X15441Y61184D01*
X15447Y61180D01*
X15454Y61177D01*
X15550Y61125D01*
X15556Y61121D01*
X15563Y61117D01*
X15655Y61061D01*
X15662Y61056D01*
X15668Y61052D01*
X15757Y60991D01*
X15764Y60986D01*
X15770Y60982D01*
X15856Y60916D01*
X15862Y60911D01*
X15868Y60906D01*
X15950Y60836D01*
X15956Y60830D01*
X15962Y60826D01*
X16040Y60751D01*
X16045Y60745D01*
X16051Y60740D01*
X16126Y60662D01*
X16130Y60656D01*
X16136Y60650D01*
X16206Y60568D01*
X16211Y60562D01*
X16216Y60556D01*
X16282Y60470D01*
X16286Y60464D01*
X16291Y60457D01*
X16352Y60368D01*
X16356Y60361D01*
X16361Y60355D01*
X16417Y60263D01*
X16421Y60256D01*
X16425Y60250D01*
X16477Y60154D01*
X16480Y60147D01*
X16484Y60141D01*
X16530Y60043D01*
X16533Y60036D01*
X16537Y60029D01*
X16578Y59929D01*
X16580Y59921D01*
X16584Y59914D01*
X16620Y59812D01*
X16622Y59805D01*
X16625Y59798D01*
X16655Y59694D01*
X16657Y59686D01*
X16659Y59679D01*
X16685Y59574D01*
X16686Y59566D01*
X16688Y59558D01*
X16707Y59452D01*
X16708Y59444D01*
X16710Y59437D01*
X16724Y59329D01*
X16725Y59322D01*
X16726Y59314D01*
X16734Y59206D01*
Y59198D01*
X16735Y59191D01*
X16738Y59083D01*
X16737Y59068D01*
X16737Y59053D01*
X16727Y58924D01*
X16726Y58916D01*
X16726Y58908D01*
X16711Y58795D01*
X16709Y58788D01*
X16709Y58780D01*
X16688Y58669D01*
X16686Y58661D01*
X16685Y58653D01*
X16658Y58543D01*
X16656Y58536D01*
X16654Y58528D01*
X16622Y58419D01*
X16619Y58412D01*
X16617Y58404D01*
X16579Y58298D01*
X16576Y58290D01*
X16574Y58283D01*
X16530Y58178D01*
X16527Y58171D01*
X16524Y58164D01*
X16475Y58062D01*
X16471Y58055D01*
X16468Y58048D01*
X16414Y57948D01*
X16410Y57942D01*
X16406Y57935D01*
X16347Y57838D01*
X16342Y57832D01*
X16338Y57825D01*
X16274Y57731D01*
X16269Y57725D01*
X16265Y57719D01*
X16196Y57629D01*
X16191Y57623D01*
X16186Y57617D01*
X16112Y57530D01*
X16107Y57525D01*
X16102Y57519D01*
X16024Y57437D01*
X16018Y57432D01*
X16013Y57426D01*
X15931Y57348D01*
X15925Y57343D01*
X15919Y57337D01*
X15833Y57263D01*
X15827Y57259D01*
X15821Y57254D01*
X15731Y57185D01*
X15724Y57180D01*
X15718Y57175D01*
X15625Y57111D01*
X15618Y57107D01*
X15612Y57103D01*
X15515Y57043D01*
X15508Y57040D01*
X15502Y57036D01*
X15402Y56982D01*
X15395Y56978D01*
X15388Y56975D01*
X15285Y56926D01*
X15278Y56923D01*
X15271Y56919D01*
X15167Y56876D01*
X15159Y56874D01*
X15152Y56870D01*
X15045Y56832D01*
X15037Y56831D01*
X15030Y56828D01*
X14921Y56796D01*
X14914Y56794D01*
X14907Y56792D01*
X14796Y56765D01*
X14789Y56764D01*
X14781Y56762D01*
X14670Y56741D01*
X14662Y56740D01*
X14654Y56739D01*
X14542Y56724D01*
X14534Y56723D01*
X14526Y56722D01*
X14413Y56713D01*
X14405D01*
X14398Y56713D01*
X14284Y56710D01*
X14277Y56710D01*
X14270Y56709D01*
X14175Y56712D01*
X11225D01*
X11221Y56712D01*
X11217Y56712D01*
X11109Y56715D01*
X11101Y56715D01*
X11094D01*
X10986Y56724D01*
X10978Y56725D01*
X10971Y56726D01*
X10863Y56740D01*
X10856Y56741D01*
X10848Y56742D01*
X10741Y56762D01*
X10734Y56764D01*
X10726Y56765D01*
X10621Y56790D01*
X10614Y56793D01*
X10606Y56794D01*
X10502Y56825D01*
X10495Y56828D01*
X10488Y56830D01*
X10386Y56866D01*
X10379Y56869D01*
X10371Y56871D01*
X10271Y56913D01*
X10264Y56916D01*
X10257Y56919D01*
X10159Y56966D01*
X10153Y56970D01*
X10146Y56973D01*
X10050Y57025D01*
X10044Y57029D01*
X10037Y57032D01*
X9945Y57089D01*
X9938Y57093D01*
X9932Y57097D01*
X9843Y57158D01*
X9837Y57163D01*
X9830Y57168D01*
X9744Y57234D01*
X9738Y57239D01*
X9732Y57243D01*
X9650Y57314D01*
X9644Y57319D01*
X9638Y57324D01*
X9560Y57398D01*
X9555Y57404D01*
X9549Y57409D01*
X9474Y57488D01*
X9469Y57494D01*
X9464Y57499D01*
X9394Y57582D01*
X9389Y57588D01*
X9384Y57594D01*
X9318Y57680D01*
X9314Y57686D01*
X9309Y57692D01*
X9248Y57781D01*
X9244Y57788D01*
X9239Y57794D01*
X9183Y57887D01*
X9179Y57894D01*
X9175Y57900D01*
X9123Y57995D01*
X9120Y58002D01*
X9116Y58009D01*
X9070Y58107D01*
X9067Y58114D01*
X9063Y58121D01*
X9022Y58221D01*
X9020Y58228D01*
X9016Y58235D01*
X8980Y58337D01*
X8978Y58345D01*
X8975Y58352D01*
X8945Y58456D01*
X8943Y58463D01*
X8941Y58471D01*
X8915Y58576D01*
X8914Y58584D01*
X8912Y58591D01*
X8892Y58697D01*
X8892Y58705D01*
X8890Y58713D01*
X8876Y58820D01*
X8875Y58828D01*
X8874Y58836D01*
X8866Y58943D01*
Y58951D01*
X8865Y58959D01*
X8862Y59067D01*
X8863Y59082D01*
X8863Y59097D01*
X8873Y59225D01*
X8874Y59233D01*
X8874Y59242D01*
X8889Y59354D01*
X8891Y59362D01*
X8891Y59369D01*
X8912Y59481D01*
X8914Y59488D01*
X8915Y59496D01*
X8942Y59606D01*
X8944Y59614D01*
X8946Y59622D01*
X8978Y59730D01*
X8981Y59737D01*
X8983Y59745D01*
X9021Y59852D01*
X9024Y59859D01*
X9026Y59866D01*
X9070Y59971D01*
X9073Y59978D01*
X9076Y59986D01*
X9125Y60088D01*
X9129Y60095D01*
X9132Y60102D01*
X9186Y60202D01*
X9190Y60208D01*
X9194Y60215D01*
X9253Y60312D01*
X9258Y60318D01*
X9262Y60325D01*
X9326Y60418D01*
X9331Y60424D01*
X9335Y60431D01*
X9404Y60521D01*
X9409Y60527D01*
X9414Y60533D01*
X9488Y60619D01*
X9493Y60625D01*
X9498Y60631D01*
X9576Y60713D01*
X9582Y60718D01*
X9587Y60724D01*
X9669Y60802D01*
X9675Y60807D01*
X9681Y60812D01*
X9767Y60886D01*
X9773Y60891D01*
X9779Y60896D01*
X9869Y60965D01*
X9876Y60969D01*
X9882Y60974D01*
X9975Y61038D01*
X9982Y61042D01*
X9988Y61047D01*
X10085Y61106D01*
X10092Y61110D01*
X10098Y61114D01*
X10198Y61168D01*
X10205Y61171D01*
X10212Y61175D01*
X10314Y61224D01*
X10322Y61227D01*
X10329Y61230D01*
X10434Y61274D01*
X10441Y61276D01*
X10448Y61279D01*
X10555Y61317D01*
X10562Y61319D01*
X10570Y61322D01*
X10678Y61354D01*
X10686Y61356D01*
X10694Y61358D01*
X10804Y61385D01*
X10812Y61386D01*
X10819Y61388D01*
X10931Y61409D01*
X10938Y61409D01*
X10946Y61411D01*
X11058Y61426D01*
X11066Y61426D01*
X11074Y61427D01*
X11187Y61436D01*
X11195D01*
X11202Y61437D01*
X11316Y61440D01*
X11323Y61440D01*
X11330Y61440D01*
X11425Y61438D01*
D02*
G37*
%LPC*%
G36*
X14371Y31515D02*
X11229D01*
X11194Y31514D01*
X11163Y31512D01*
X11133Y31508D01*
X11103Y31502D01*
X11073Y31495D01*
X11043Y31486D01*
X11014Y31475D01*
X10986Y31464D01*
X10958Y31451D01*
X10930Y31436D01*
X10904Y31420D01*
X10879Y31402D01*
X10854Y31383D01*
X10831Y31363D01*
X10808Y31342D01*
X10787Y31320D01*
X10767Y31296D01*
X10748Y31272D01*
X10731Y31246D01*
X10715Y31220D01*
X10700Y31193D01*
X10687Y31165D01*
X10675Y31137D01*
X10665Y31107D01*
X10656Y31078D01*
X10649Y31048D01*
X10643Y31017D01*
X10639Y30987D01*
X10637Y30956D01*
X10636Y30925D01*
X10637Y30894D01*
X10639Y30863D01*
X10643Y30833D01*
X10649Y30803D01*
X10656Y30773D01*
X10665Y30743D01*
X10675Y30714D01*
X10687Y30685D01*
X10700Y30658D01*
X10715Y30630D01*
X10731Y30604D01*
X10748Y30579D01*
X10767Y30554D01*
X10787Y30531D01*
X10808Y30508D01*
X10831Y30487D01*
X10854Y30467D01*
X10879Y30448D01*
X10904Y30431D01*
X10931Y30415D01*
X10958Y30400D01*
X10986Y30387D01*
X11014Y30375D01*
X11043Y30365D01*
X11073Y30356D01*
X11102Y30349D01*
X11133Y30343D01*
X11163Y30339D01*
X11194Y30336D01*
X11229Y30336D01*
X14371D01*
X14406Y30336D01*
X14436Y30339D01*
X14467Y30343D01*
X14497Y30349D01*
X14527Y30356D01*
X14557Y30365D01*
X14586Y30375D01*
X14615Y30387D01*
X14642Y30400D01*
X14670Y30415D01*
X14696Y30431D01*
X14721Y30448D01*
X14746Y30467D01*
X14769Y30487D01*
X14792Y30508D01*
X14813Y30531D01*
X14833Y30554D01*
X14852Y30579D01*
X14869Y30604D01*
X14885Y30630D01*
X14900Y30658D01*
X14913Y30685D01*
X14925Y30714D01*
X14935Y30743D01*
X14944Y30773D01*
X14951Y30803D01*
X14957Y30833D01*
X14961Y30863D01*
X14964Y30894D01*
X14964Y30925D01*
X14964Y30956D01*
X14961Y30987D01*
X14957Y31017D01*
X14952Y31048D01*
X14944Y31078D01*
X14935Y31107D01*
X14925Y31137D01*
X14913Y31165D01*
X14900Y31193D01*
X14885Y31220D01*
X14869Y31246D01*
X14852Y31272D01*
X14833Y31296D01*
X14813Y31320D01*
X14792Y31342D01*
X14769Y31363D01*
X14746Y31383D01*
X14721Y31402D01*
X14696Y31420D01*
X14670Y31436D01*
X14642Y31450D01*
X14615Y31464D01*
X14586Y31475D01*
X14557Y31486D01*
X14527Y31495D01*
X14497Y31502D01*
X14467Y31508D01*
X14436Y31512D01*
X14406Y31514D01*
X14371Y31515D01*
D02*
G37*
G36*
Y59664D02*
X11229D01*
X11194Y59663D01*
X11163Y59661D01*
X11133Y59657D01*
X11103Y59651D01*
X11073Y59644D01*
X11043Y59636D01*
X11014Y59625D01*
X10985Y59613D01*
X10958Y59600D01*
X10930Y59585D01*
X10904Y59569D01*
X10879Y59552D01*
X10854Y59533D01*
X10831Y59513D01*
X10808Y59492D01*
X10787Y59469D01*
X10767Y59446D01*
X10748Y59421D01*
X10731Y59396D01*
X10715Y59370D01*
X10700Y59342D01*
X10687Y59315D01*
X10675Y59286D01*
X10665Y59257D01*
X10656Y59227D01*
X10649Y59197D01*
X10643Y59167D01*
X10639Y59136D01*
X10637Y59106D01*
X10636Y59075D01*
X10637Y59044D01*
X10639Y59013D01*
X10643Y58983D01*
X10649Y58952D01*
X10656Y58922D01*
X10665Y58893D01*
X10675Y58863D01*
X10687Y58835D01*
X10700Y58807D01*
X10715Y58780D01*
X10731Y58754D01*
X10748Y58728D01*
X10767Y58704D01*
X10787Y58680D01*
X10808Y58658D01*
X10831Y58637D01*
X10854Y58617D01*
X10879Y58598D01*
X10904Y58580D01*
X10930Y58564D01*
X10958Y58550D01*
X10986Y58536D01*
X11014Y58525D01*
X11043Y58514D01*
X11073Y58505D01*
X11103Y58498D01*
X11133Y58492D01*
X11163Y58489D01*
X11194Y58486D01*
X11229Y58485D01*
X14371D01*
X14406Y58486D01*
X14436Y58489D01*
X14467Y58492D01*
X14497Y58498D01*
X14527Y58505D01*
X14557Y58514D01*
X14586Y58525D01*
X14615Y58536D01*
X14642Y58549D01*
X14670Y58564D01*
X14696Y58580D01*
X14721Y58598D01*
X14746Y58617D01*
X14769Y58637D01*
X14792Y58658D01*
X14813Y58680D01*
X14833Y58704D01*
X14852Y58728D01*
X14869Y58754D01*
X14885Y58780D01*
X14900Y58807D01*
X14913Y58835D01*
X14925Y58863D01*
X14935Y58893D01*
X14944Y58922D01*
X14952Y58952D01*
X14957Y58983D01*
X14961Y59013D01*
X14964Y59044D01*
X14964Y59075D01*
X14964Y59106D01*
X14961Y59136D01*
X14957Y59167D01*
X14951Y59197D01*
X14944Y59227D01*
X14935Y59257D01*
X14925Y59286D01*
X14913Y59315D01*
X14900Y59342D01*
X14885Y59370D01*
X14869Y59396D01*
X14852Y59421D01*
X14833Y59446D01*
X14813Y59469D01*
X14792Y59492D01*
X14769Y59513D01*
X14746Y59533D01*
X14721Y59552D01*
X14696Y59569D01*
X14670Y59585D01*
X14642Y59600D01*
X14615Y59613D01*
X14586Y59625D01*
X14557Y59636D01*
X14527Y59644D01*
X14498Y59651D01*
X14467Y59657D01*
X14436Y59661D01*
X14406Y59663D01*
X14371Y59664D01*
D02*
G37*
%LPD*%
D64*
X175000Y85500D02*
D03*
X165000D02*
D03*
X155000D02*
D03*
X145000D02*
D03*
X135000D02*
D03*
X125000D02*
D03*
X115000D02*
D03*
X105000D02*
D03*
X95000D02*
D03*
X85000D02*
D03*
X75000D02*
D03*
X65000D02*
D03*
X25000Y4500D02*
D03*
X35000D02*
D03*
X45000D02*
D03*
X55000D02*
D03*
X65000D02*
D03*
X75000D02*
D03*
X85000D02*
D03*
X95000D02*
D03*
X105000D02*
D03*
X115000D02*
D03*
X125000D02*
D03*
X135000D02*
D03*
X145000D02*
D03*
X155000D02*
D03*
X165000D02*
D03*
X175000D02*
D03*
D65*
X190000Y7500D02*
D03*
Y82500D02*
D03*
D66*
X10000Y10000D02*
D03*
Y80000D02*
D03*
M02*
