M48
;Layer_Color=9474304
;FILE_FORMAT=2:4
INCH,TZ
;TYPE=PLATED
T1F00S00C0.0118
T2F00S00C0.0374
T3F00S00C0.0900
T4F00S00C0.1000
%
T01
X420Y1910
X1010Y1990
X890Y2690
X510Y2990
X760Y3490
X1260
X1870Y3510
X2010Y2990
X2460Y3190
X2570Y3670
X1930Y4500
X520Y4510
X510Y4990
Y3990
X3340Y4710
X3790Y4510
X4550Y4800
X4900
X5510Y5040
X5540Y4520
X5200Y4120
X4430Y3350
X4277Y2771
X4432Y2558
X4094Y2562
X4100Y2170
X4070Y1760
X4630Y1780
X4010Y910
X2350Y1380
X3690Y3200
X6090Y3160
X6410Y2800
X6626Y2283
X6420Y3738
X8020Y3475
X9450Y3260
X9859Y3516
X9810Y3780
X9430Y4360
X8850Y5000
X8476Y4750
X8540Y6160
X9440Y6240
X9058Y7097
X10250Y6770
X10660Y5841
X11200Y7500
X11700Y7400
X12200
X14700Y7450
X15100
X15500
X15460Y6020
Y5020
X14920Y5241
X14558Y4895
X14199Y5244
X13833Y4895
X13474Y5247
X13474Y4522
X13830Y4173
X14199Y4520
X14555Y4174
X14920Y4517
X15460Y4020
X15210Y3520
X14710
X14210
X13710
X13210
X12710
X12960Y3020
X13460
X13960
X14460
X14960
X15460
X15210Y2520
X14710
X14210
X13710
X13210
X12710
X12200Y1550
X11800
X11400
X10940Y3060
X9110Y2750
X9050Y2460
X8620Y2390
X7850Y7780
X7500Y7850
X6500Y7080
X3762Y7300
X3037Y7299
X3034Y6575
X2675Y6927
X2410Y7180
X2676Y6203
X3400Y6200
X3400Y6925
X3759Y6575
X13836Y5619
X14561Y5619
X14590Y1560
X15460Y2020
X15960
X16210Y2520
X16710
X16460Y3020
X15960
X16210Y3520
X16710
X16460Y4020
X15960
X16210Y4520
X15710
X15960Y5020
X16460
X16960
X16710Y5520
X16210
X15710
X15960Y6020
X16460
X17210Y6870
X16921Y7159
X15900Y7450
X16710Y4520
X16960Y4020
X15710Y3520
Y2520
X17160Y1260
T02
X2500Y450
X3500
X4500
X5500
X6500
X7500
X8500
X9500
X10500
X11500
X12500
X13500
X14500
X15500
Y8550
X14500
X13500
X12500
X11500
X10500
X9500
X8500
X7500
X6500
X16500
X17500
Y450
X16500
T03
X19000Y750
Y8250
T04
X1000Y1000
Y8000
M30
